<svg width="92" height="96" viewBox="0 0 92 96" fill="none" xmlns="http://www.w3.org/2000/svg">
<path d="M69.38 40.3729L63.03 31.7629C62.8448 31.5095 62.6026 31.3032 62.3229 31.1608C62.0432 31.0183 61.7339 30.9437 61.42 30.9429H29.67C29.3803 30.9441 29.0944 31.0083 28.832 31.1309C28.5695 31.2534 28.3368 31.4316 28.15 31.6529L20.8 40.3729H2C1.46957 40.3729 0.96086 40.5836 0.585787 40.9587C0.210714 41.3338 0 41.8425 0 42.3729V93.2729C0 93.8034 0.210714 94.3121 0.585787 94.6871C0.96086 95.0622 1.46957 95.2729 2 95.2729H89.18C89.7104 95.2729 90.2191 95.0622 90.5942 94.6871C90.9693 94.3121 91.18 93.8034 91.18 93.2729V42.3729C91.18 41.8425 90.9693 41.3338 90.5942 40.9587C90.2191 40.5836 89.7104 40.3729 89.18 40.3729H69.38ZM85.23 90.3229H5.95C5.68478 90.3229 5.43043 90.2176 5.24289 90.03C5.05536 89.8425 4.95 89.5882 4.95 89.3229V46.2729C4.95 46.0077 5.05536 45.7534 5.24289 45.5658C5.43043 45.3783 5.68478 45.2729 5.95 45.2729H22.95C23.0944 45.2729 23.2372 45.2417 23.3684 45.1812C23.4996 45.1208 23.6161 45.0327 23.71 44.9229L31.09 36.2729C31.184 36.1601 31.3018 36.0693 31.4348 36.007C31.5679 35.9448 31.7131 35.9127 31.86 35.9129H59.28C59.4378 35.9125 59.5934 35.9495 59.7342 36.0207C59.875 36.092 59.9969 36.1955 60.09 36.3229L66.44 44.9329C66.5331 45.0571 66.6539 45.1579 66.7928 45.2274C66.9316 45.2968 67.0848 45.3329 67.24 45.3329H85.24C85.5052 45.3329 85.7596 45.4383 85.9471 45.6258C86.1346 45.8134 86.24 46.0677 86.24 46.3329V89.3329C86.2387 89.4643 86.2115 89.594 86.1601 89.7149C86.1086 89.8357 86.0338 89.9452 85.94 90.0371C85.8463 90.1291 85.7353 90.2016 85.6134 90.2507C85.4916 90.2997 85.3613 90.3243 85.23 90.3229Z" fill="white"/>
<path d="M45.59 45.6929C41.6759 45.6929 37.8497 46.8536 34.5953 49.0281C31.3408 51.2027 28.8043 54.2935 27.3064 57.9096C25.8086 61.5258 25.4167 65.5049 26.1803 69.3438C26.9439 73.1827 28.8287 76.7089 31.5964 79.4766C34.364 82.2443 37.8903 84.1291 41.7292 84.8927C45.568 85.6563 49.5471 85.2644 53.1633 83.7665C56.7794 82.2687 59.8702 79.7321 62.0448 76.4777C64.2193 73.2232 65.38 69.397 65.38 65.4829C65.38 62.8841 64.8681 60.3107 63.8736 57.9096C62.879 55.5086 61.4213 53.327 59.5836 51.4893C57.746 49.6516 55.5643 48.1939 53.1633 47.1994C50.7623 46.2048 48.1889 45.6929 45.59 45.6929V45.6929ZM45.59 80.3329C42.6525 80.3349 39.7804 79.4657 37.3371 77.8351C34.8937 76.2046 32.9888 73.886 31.8633 71.1727C30.7378 68.4594 30.4423 65.4733 31.0141 62.592C31.586 59.7107 32.9995 57.0637 35.0759 54.9859C37.1523 52.9081 39.7983 51.4928 42.6792 50.919C45.5601 50.3452 48.5465 50.6387 51.2605 51.7624C53.9746 52.886 56.2944 54.7894 57.9266 57.2317C59.5588 59.674 60.43 62.5455 60.43 65.4829C60.4273 69.4189 58.8633 73.193 56.0811 75.977C53.299 78.7611 49.5259 80.3276 45.59 80.3329Z" fill="white"/>
<path d="M44.09 24.3429V9.34291L37.28 15.0029C36.8984 15.3227 36.4112 15.4886 35.9137 15.4683C35.4162 15.448 34.9442 15.2428 34.59 14.8929L33.78 14.0829C33.5912 13.8932 33.4424 13.6675 33.3424 13.4191C33.2424 13.1708 33.1933 12.905 33.198 12.6373C33.2027 12.3697 33.261 12.1057 33.3696 11.861C33.4781 11.6164 33.6347 11.396 33.83 11.2129L45.22 0.542914C45.5909 0.194164 46.0809 0 46.59 0C47.0991 0 47.5891 0.194164 47.96 0.542914L59.35 11.2129C59.5453 11.396 59.7019 11.6164 59.8105 11.861C59.919 12.1057 59.9774 12.3697 59.982 12.6373C59.9867 12.905 59.9376 13.1708 59.8376 13.4191C59.7376 13.6675 59.5888 13.8932 59.4 14.0829L58.6 14.8929C58.2465 15.247 57.7732 15.4558 57.2733 15.478C56.7735 15.5002 56.2835 15.3343 55.9 15.0129L49.09 9.35291V24.3529C49.09 24.8833 48.8793 25.3921 48.5042 25.7671C48.1292 26.1422 47.6204 26.3529 47.09 26.3529H46.09C45.8265 26.3529 45.5656 26.3009 45.3223 26.1997C45.079 26.0986 44.8581 25.9504 44.6722 25.7636C44.4864 25.5768 44.3393 25.3552 44.2394 25.1114C44.1395 24.8675 44.0887 24.6064 44.09 24.3429Z" fill="white"/>
</svg>
