<svg width="16" height="17" viewBox="0 0 16 17" fill="none" xmlns="http://www.w3.org/2000/svg">
<path d="M8.97596 7.99939L15.8398 1.14225C15.9489 1.01477 16.006 0.850788 15.9995 0.683074C15.993 0.51536 15.9235 0.356267 15.8048 0.237586C15.6861 0.118906 15.527 0.0493805 15.3593 0.0429024C15.1916 0.0364243 15.0276 0.0934713 14.9002 0.202643L8.03635 7.05979L1.1792 0.195979C1.05372 0.0704958 0.883529 -1.32218e-09 0.706068 0C0.528608 1.32218e-09 0.358415 0.0704958 0.232932 0.195979C0.107448 0.321463 0.0369526 0.491655 0.0369526 0.669116C0.0369526 0.846576 0.107448 1.01677 0.232932 1.14225L7.09674 7.99939L0.232932 14.8565C0.163173 14.9163 0.106516 14.9898 0.0665174 15.0725C0.0265185 15.1551 0.00404144 15.2452 0.000496587 15.337C-0.00304826 15.4287 0.0124156 15.5203 0.045918 15.6058C0.0794204 15.6913 0.130238 15.769 0.195181 15.8339C0.260124 15.8988 0.337789 15.9497 0.423304 15.9832C0.508818 16.0167 0.600335 16.0321 0.69211 16.0286C0.783884 16.025 0.873935 16.0026 0.95661 15.9626C1.03929 15.9226 1.1128 15.8659 1.17254 15.7961L8.03635 8.939L14.8935 15.8028C15.021 15.912 15.185 15.969 15.3527 15.9626C15.5204 15.9561 15.6795 15.8865 15.7982 15.7679C15.9168 15.6492 15.9864 15.4901 15.9928 15.3224C15.9993 15.1547 15.9423 14.9907 15.8331 14.8632L8.97596 7.99939Z" fill="white"/>
</svg>
