<svg width="10" height="3" viewBox="0 0 10 3" fill="none" xmlns="http://www.w3.org/2000/svg">
<path d="M0.0390625 1.27539C0.0390625 0.970052 0.107422 0.739909 0.244141 0.584961C0.385417 0.425456 0.585938 0.345703 0.845703 0.345703C1.11003 0.345703 1.3151 0.425456 1.46094 0.584961C1.61133 0.739909 1.68652 0.970052 1.68652 1.27539C1.68652 1.57161 1.61133 1.79948 1.46094 1.95898C1.31055 2.11849 1.10547 2.19824 0.845703 2.19824C0.613281 2.19824 0.419596 2.1276 0.264648 1.98633C0.114258 1.84049 0.0390625 1.60352 0.0390625 1.27539ZM3.77148 1.27539C3.77148 0.970052 3.83984 0.739909 3.97656 0.584961C4.11784 0.425456 4.31836 0.345703 4.57812 0.345703C4.84245 0.345703 5.04753 0.425456 5.19336 0.584961C5.34375 0.739909 5.41895 0.970052 5.41895 1.27539C5.41895 1.57161 5.34375 1.79948 5.19336 1.95898C5.04297 2.11849 4.83789 2.19824 4.57812 2.19824C4.3457 2.19824 4.15202 2.1276 3.99707 1.98633C3.84668 1.84049 3.77148 1.60352 3.77148 1.27539ZM7.50391 1.27539C7.50391 0.970052 7.57227 0.739909 7.70898 0.584961C7.85026 0.425456 8.05078 0.345703 8.31055 0.345703C8.57487 0.345703 8.77995 0.425456 8.92578 0.584961C9.07617 0.739909 9.15137 0.970052 9.15137 1.27539C9.15137 1.57161 9.07617 1.79948 8.92578 1.95898C8.77539 2.11849 8.57031 2.19824 8.31055 2.19824C8.07812 2.19824 7.88444 2.1276 7.72949 1.98633C7.5791 1.84049 7.50391 1.60352 7.50391 1.27539Z" fill="white"/>
</svg>
