<svg width="179" height="179" viewBox="0 0 179 179" fill="none" xmlns="http://www.w3.org/2000/svg">
<circle cx="89.5" cy="89.5" r="89.5" fill="#DE3190"/>
<path d="M66.513 83.3862C64.913 83.7862 63.413 84.3862 62.313 85.2862C60.813 86.4862 60.213 87.9862 60.513 89.3862C60.813 90.9862 62.413 92.7862 65.813 92.7862V88.7862C65.213 88.7862 65.913 87.5862 67.413 87.2862C69.413 86.8862 70.813 87.5862 70.213 87.7862L71.813 91.4862C73.113 90.8862 74.113 89.8862 74.613 88.6862C75.013 87.5862 75.013 86.2862 74.613 85.2862C73.513 83.0862 70.813 82.3862 66.513 83.3862Z" fill="white"/>
<path d="M116.413 85.1862C115.313 84.2862 113.813 83.6863 112.213 83.2863C107.913 82.3863 105.213 82.9862 104.213 85.1862C103.713 86.1862 103.713 87.4863 104.213 88.5863C104.713 89.7863 105.713 90.7863 107.013 91.3863L108.613 87.6862C108.013 87.4862 109.413 86.6862 111.413 87.1862C112.913 87.4862 113.613 88.6862 113.013 88.6862V92.6862C116.413 92.6862 118.013 90.8863 118.313 89.2863C118.513 87.8863 117.913 86.3862 116.413 85.1862Z" fill="white"/>
<path d="M74.113 60.2863C72.213 60.2863 70.613 61.8863 70.613 63.7863C70.613 65.6863 72.213 67.2863 74.113 67.2863C76.013 67.2863 77.613 65.6863 77.613 63.7863C77.613 61.8863 76.113 60.2863 74.113 60.2863Z" fill="white"/>
<path d="M104.513 67.2863C106.413 67.2863 108.013 65.6863 108.013 63.7863C108.013 61.8863 106.413 60.2863 104.513 60.2863C102.613 60.2863 101.013 61.8863 101.013 63.7863C101.013 65.7863 102.613 67.2863 104.513 67.2863Z" fill="white"/>
<path d="M121.713 74.7863C121.013 68.9863 118.113 63.4863 113.913 58.9863C121.413 58.9863 124.413 56.2863 125.613 54.4863C127.013 52.3863 127.013 49.7863 125.713 47.4863C123.813 44.2863 119.813 42.6863 115.213 43.0863C112.113 43.3863 109.113 44.6863 106.213 45.9863C103.013 47.3863 100.013 48.6863 96.713 48.7863C94.113 48.1863 91.513 47.7863 88.813 47.7863C86.113 47.7863 83.413 48.1863 80.813 48.7863C77.513 48.6863 74.513 47.3863 71.313 45.9863C68.413 44.7863 65.513 43.4863 62.313 43.0863C57.713 42.5863 53.713 44.2863 51.813 47.4863C50.413 49.6863 50.513 52.3863 51.913 54.4863C53.113 56.2863 56.213 58.9863 63.613 58.9863C59.413 63.5863 56.513 69.2863 55.813 75.2863C45.813 80.1863 40.113 89.8863 41.113 100.286C42.013 109.186 47.713 116.686 55.913 120.686C57.313 130.686 68.913 136.086 88.913 136.086C108.613 136.086 120.113 130.786 121.813 121.086C130.613 117.086 136.813 109.086 137.613 99.8863C138.413 89.3863 132.113 79.3863 121.713 74.7863ZM107.913 49.6863C110.613 48.4863 113.113 47.3863 115.713 47.1863C119.313 46.7863 121.513 48.2863 122.413 49.5863C122.713 50.0863 123.113 51.1863 122.413 52.2863C121.213 54.1863 117.013 55.6863 109.113 54.5863C107.413 53.3863 105.713 52.2863 103.813 51.3863C105.213 50.8863 106.613 50.2863 107.913 49.6863ZM55.313 52.2863C54.613 51.1863 55.013 50.0863 55.313 49.5863C56.113 48.1863 58.413 46.7863 62.013 47.1863C64.513 47.4863 67.113 48.5863 69.813 49.6863C71.213 50.2863 72.513 50.8863 74.013 51.3863C72.113 52.2863 70.313 53.3863 68.713 54.5863C60.713 55.6863 56.513 54.0863 55.313 52.2863ZM88.913 132.186C79.413 132.186 64.213 130.786 60.613 122.586C62.513 123.186 64.513 123.586 66.613 123.686C67.513 123.786 68.413 123.786 69.313 123.786C73.513 123.786 77.613 122.986 81.413 121.386C86.513 119.186 92.313 119.186 97.313 121.386C101.913 123.386 107.013 124.186 112.113 123.686C113.813 123.586 115.513 123.286 117.113 122.786C113.213 130.886 98.313 132.186 88.913 132.186ZM133.613 99.5863C132.813 109.986 123.413 118.686 111.713 119.686C107.313 120.086 102.813 119.386 98.813 117.686C92.713 115.086 85.813 115.086 79.713 117.686C75.713 119.386 71.313 120.086 66.813 119.686C55.413 118.686 46.013 110.186 45.013 99.9863C44.113 90.9863 49.413 82.5863 58.413 78.4863C63.113 76.8863 66.913 76.0863 70.313 75.3863C78.413 73.6863 83.713 72.5863 85.813 62.8863L81.913 62.0863C80.413 69.1863 77.413 69.7863 69.513 71.4863C66.913 72.0863 63.713 72.6863 60.113 73.7863C62.713 61.7863 75.413 51.7863 88.813 51.7863C91.413 51.7863 93.913 52.0863 96.213 52.7863V52.8863H96.313H96.413C107.313 55.7863 115.313 64.7863 117.313 73.5863C114.113 72.6863 111.413 72.0863 109.013 71.5863C101.113 69.8863 98.113 69.2863 96.613 62.1863L92.713 62.9863C94.813 72.5863 100.113 73.7863 108.213 75.4863C111.613 76.1863 115.413 76.9863 120.013 78.5863C128.913 82.3863 134.313 90.7863 133.613 99.5863Z" fill="white"/>
</svg>
