<svg width="179" height="179" viewBox="0 0 179 179" fill="none" xmlns="http://www.w3.org/2000/svg">
<circle cx="89.5" cy="89.5" r="89.5" fill="#65A4DA"/>
<path d="M80.1304 117.77C81.1613 117.77 82.169 117.465 83.0261 116.892C83.8833 116.319 84.5514 115.505 84.9459 114.553C85.3404 113.6 85.4436 112.552 85.2425 111.541C85.0413 110.53 84.5449 109.602 83.816 108.873C83.087 108.144 82.1583 107.647 81.1472 107.446C80.1362 107.245 79.0882 107.348 78.1357 107.743C77.1833 108.137 76.3693 108.805 75.7966 109.662C75.2238 110.52 74.9182 111.527 74.9182 112.558C74.9199 113.94 75.4696 115.265 76.4467 116.242C77.4238 117.219 78.7486 117.769 80.1304 117.77ZM80.1304 110.401C80.5571 110.401 80.9742 110.528 81.3289 110.765C81.6837 111.002 81.9602 111.339 82.1235 111.733C82.2868 112.127 82.3295 112.561 82.2462 112.979C82.1629 113.398 81.9575 113.782 81.6557 114.084C81.354 114.386 80.9696 114.591 80.5511 114.674C80.1326 114.758 79.6988 114.715 79.3046 114.551C78.9105 114.388 78.5735 114.112 78.3365 113.757C78.0995 113.402 77.973 112.985 77.9731 112.558C77.9736 111.986 78.201 111.438 78.6054 111.033C79.0099 110.629 79.5583 110.401 80.1304 110.4V110.401Z" fill="#FAFBFD"/>
<path d="M97.8702 117.77C98.9011 117.77 99.9089 117.465 100.766 116.892C101.623 116.319 102.291 115.505 102.686 114.553C103.08 113.601 103.184 112.553 102.983 111.541C102.782 110.53 102.285 109.602 101.556 108.873C100.827 108.144 99.8985 107.647 98.8874 107.446C97.8764 107.245 96.8283 107.348 95.8759 107.743C94.9235 108.137 94.1094 108.805 93.5367 109.662C92.964 110.52 92.6583 111.527 92.6583 112.558C92.66 113.94 93.2097 115.265 94.1867 116.242C95.1638 117.219 96.4885 117.769 97.8702 117.77ZM97.8702 110.401C98.2969 110.401 98.7141 110.528 99.0689 110.765C99.4237 111.002 99.7002 111.339 99.8635 111.733C100.027 112.127 100.07 112.561 99.9864 112.979C99.9031 113.398 99.6977 113.782 99.3959 114.084C99.0942 114.386 98.7098 114.591 98.2913 114.674C97.8728 114.758 97.439 114.715 97.0448 114.551C96.6506 114.388 96.3137 114.112 96.0767 113.757C95.8396 113.402 95.7131 112.985 95.7132 112.558C95.7137 111.986 95.9411 111.438 96.3455 111.033C96.7499 110.629 97.2982 110.401 97.8702 110.4V110.401Z" fill="#FAFBFD"/>
<path d="M139.203 64.0045C139.178 64.0006 139.153 63.9971 139.128 63.9943C138.067 63.8664 136.991 63.9545 135.964 64.2532C134.938 64.5519 133.982 65.0551 133.155 65.7325C130.901 58.7134 127.471 52.1281 123.012 46.2573C113.954 34.4851 101.876 28 89.0003 28C76.1247 28 64.0463 34.4851 54.9887 46.2586C50.5295 52.1293 47.0996 58.7147 44.8452 65.7338C44.0181 65.0565 43.0625 64.5533 42.0361 64.2545C41.0096 63.9557 39.9333 63.8673 38.8718 63.9948C38.8464 63.9976 38.8209 64.0011 38.7972 64.005C38.5427 64.0462 36.2494 64.4869 34.3798 67.2424C31.6125 71.3226 31.2566 78.1198 33.3225 87.4437C33.4519 88.2242 34.4979 92.8278 41.2412 94.8196C42.136 109.384 46.9364 122.934 54.9884 133.402C64.0455 145.176 76.124 151.661 89 151.661C101.876 151.661 113.954 145.176 123.012 133.402C131.064 122.934 135.865 109.384 136.759 94.8196C143.502 92.8278 144.549 88.2242 144.678 87.4437C146.743 78.1188 146.388 71.3218 143.62 67.2419C141.751 64.4864 139.458 64.0457 139.203 64.0045ZM36.3411 86.9811C36.337 86.9296 36.3285 86.8785 36.3156 86.8284C33.999 76.4062 35.3105 71.432 36.8181 69.0945C37.8752 67.4553 39.0605 67.0808 39.2827 67.023C41.3832 66.8168 42.8786 67.8735 43.858 69.0008C42.0028 75.788 41.0704 82.7942 41.0859 89.8304C41.0859 90.4062 41.0935 90.9806 41.1055 91.5541C36.8398 89.9261 36.3589 87.096 36.3411 86.9811ZM89.0003 148.606C78.211 148.606 68.2998 143.588 60.5527 135.242C59.9127 123.376 63.0959 114.89 66.339 109.45C65.6387 112.003 65.2854 114.638 65.2884 117.285C65.2884 131.949 75.9254 143.877 89.0003 143.877C102.075 143.877 112.712 131.948 112.712 117.285C112.715 114.663 112.368 112.053 111.681 109.523C115.133 115.32 118.07 123.737 117.448 135.242C109.701 143.588 99.7898 148.606 89.0003 148.606ZM109.657 117.285C109.657 130.263 100.391 140.822 89.0003 140.822C77.6099 140.822 68.3433 130.263 68.3433 117.285C68.3433 104.306 77.6099 93.7476 89.0003 93.7476C100.391 93.7476 109.657 104.306 109.657 117.285ZM120.582 131.53C120.439 119.367 116.444 110.877 112.903 105.726C108.588 99.4478 104.06 96.6498 103.869 96.5339C103.822 96.5055 103.774 96.4796 103.724 96.4563C99.6763 92.8504 94.5592 90.6931 89.0003 90.6931C83.4413 90.6931 78.324 92.8502 74.2765 96.4563C74.2268 96.4795 74.1783 96.5055 74.1314 96.5339C73.9407 96.6498 69.4123 99.4478 65.0972 105.726C61.5568 110.877 57.5617 119.367 57.4183 131.53C49.2237 120.875 44.1408 106.116 44.1408 89.8304C44.1408 57.4226 64.2647 31.0549 89.0003 31.0549C113.736 31.0549 133.86 57.4226 133.86 89.8304C133.86 106.116 128.777 120.875 120.582 131.53ZM141.687 86.8289C141.675 86.8711 141.667 86.9144 141.664 86.9582C141.643 87.0937 141.162 89.9261 136.896 91.5546C136.908 90.9811 136.916 90.4067 136.916 89.8309C136.932 82.7947 135.999 75.7884 134.144 69.0011C135.121 67.8771 136.616 66.8168 138.72 67.0235C138.942 67.0813 140.127 67.4563 141.184 69.095C142.691 71.432 144.001 76.4062 141.685 86.8284L141.687 86.8289Z" fill="#FAFBFD"/>
<path d="M95.0467 75.325L91.5399 76.5215C89.8923 77.0719 88.1112 77.0768 86.4606 76.5355L82.9535 75.3174C81.5391 74.829 80.0552 74.5718 78.559 74.5557H57.3727C56.9676 74.5557 56.5791 74.7166 56.2927 75.003C56.0062 75.2895 55.8453 75.678 55.8453 76.0831C55.8453 76.4882 56.0062 76.8768 56.2927 77.1632C56.5791 77.4497 56.9676 77.6106 57.3727 77.6106H64.8174C65.1269 79.5476 66.1036 81.3154 67.5786 82.6085C69.0536 83.9016 70.934 84.6387 72.8948 84.6921C74.8557 84.7456 76.7735 84.1122 78.3168 82.9014C79.86 81.6907 80.9317 79.9787 81.3464 78.0615C81.5615 78.1187 81.7756 78.1946 81.9876 78.2651L85.4944 79.4413C87.7701 80.1978 90.2292 80.1996 92.506 79.4464L96.0128 78.2786C96.2249 78.2078 96.439 78.1465 96.6541 78.0892C97.0757 80.0026 98.1516 81.709 99.6965 82.9142C101.241 84.1193 103.158 84.7477 105.117 84.691C107.075 84.6343 108.953 83.8961 110.425 82.6035C111.898 81.311 112.873 79.5452 113.183 77.6106H120.628C121.033 77.6106 121.421 77.4497 121.708 77.1632C121.994 76.8768 122.155 76.4882 122.155 76.0831C122.155 75.678 121.994 75.2895 121.708 75.003C121.421 74.7166 121.033 74.5557 120.628 74.5557H99.4415C97.9448 74.5744 96.4608 74.8342 95.0467 75.325ZM73.1161 81.5841C71.9369 81.5832 70.791 81.1934 69.8559 80.475C68.9209 79.7566 68.2489 78.7497 67.9444 77.6106H78.2881C77.9835 78.7498 77.3115 79.7566 76.3764 80.475C75.4413 81.1934 74.2953 81.5832 73.1161 81.5841ZM104.884 81.5841C103.705 81.5832 102.559 81.1934 101.624 80.475C100.689 79.7566 100.017 78.7498 99.7124 77.6106H110.056C109.752 78.7497 109.08 79.7566 108.145 80.475C107.209 81.1934 106.064 81.5832 104.884 81.5841Z" fill="#FAFBFD"/>
<path d="M74.9548 128.205C75.1665 128.551 75.5068 128.798 75.9007 128.892C76.2946 128.987 76.71 128.921 77.0553 128.709C85.3263 123.637 93.1296 123.63 100.912 128.688C101.251 128.909 101.665 128.985 102.061 128.901C102.457 128.817 102.804 128.579 103.025 128.239C103.246 127.9 103.322 127.486 103.238 127.09C103.154 126.693 102.916 126.347 102.576 126.126C93.83 120.442 84.7049 120.434 75.4583 126.105C75.2873 126.209 75.1387 126.347 75.0208 126.509C74.9029 126.672 74.8182 126.856 74.7714 127.051C74.7247 127.246 74.7168 127.448 74.7483 127.646C74.7797 127.844 74.8499 128.034 74.9548 128.205Z" fill="#FAFBFD"/>
</svg>
