<svg width="60" height="60" viewBox="0 0 60 60" fill="none" xmlns="http://www.w3.org/2000/svg">
<path d="M14.9991 27.8586C14.9898 27.8586 14.9804 27.8586 14.9691 27.8586C13.7859 27.8586 12.8259 28.8168 12.8259 30.0019C12.8259 31.1869 13.7841 32.1451 14.9691 32.1451C14.9804 32.1451 14.9898 32.1451 15.001 32.1451H44.9991C45.0085 32.1451 45.0179 32.1451 45.0291 32.1451C46.2123 32.1451 47.1724 31.1869 47.1724 30.0019C47.1724 28.8168 46.2142 27.8586 45.0291 27.8586C45.0179 27.8586 45.0085 27.8586 44.9972 27.8586H14.9991Z" fill="#FAFBFD"/>
<path d="M32.1433 15.0009C32.1433 14.9916 32.1433 14.9822 32.1433 14.9709C32.1433 13.7877 31.1851 12.8277 30 12.8277C28.815 12.8277 27.8568 13.7859 27.8568 14.9709C27.8568 14.9822 27.8568 14.9916 27.8568 15.0028V15.0009V45.0009C27.8568 45.0103 27.8568 45.0197 27.8568 45.0309C27.8568 46.2141 28.815 47.1742 30 47.1742C31.1851 47.1742 32.1433 46.216 32.1433 45.0309C32.1433 45.0197 32.1433 45.0103 32.1433 44.9991V45.0009V15.0009Z" fill="#FAFBFD"/>
<path d="M30 0C13.4558 0 0 13.4577 0 30C0 46.5423 13.4577 60 30 60C46.5442 60 60 46.5423 60 30C60 13.4577 46.5423 0 30 0ZM30 4.28652C44.2284 4.28652 55.7154 15.7754 55.7154 30.0019C55.7154 44.2284 44.2284 55.7172 30 55.7172C15.7716 55.7172 4.28464 44.2303 4.28464 30.0019C4.28464 15.7735 15.7716 4.28652 30 4.28652Z" fill="#FAFBFD"/>
</svg>
