<svg width="291" height="210" viewBox="0 0 291 210" fill="none" xmlns="http://www.w3.org/2000/svg">
<g clip-path="url(#clip0)">
<path d="M160.271 147.433H171.675C172.021 147.433 172.324 147.145 172.324 146.799V146.726C172.324 146.38 172.021 146.092 171.646 146.092H161.079C154.678 146.092 148.277 146.092 141.89 146.092H132.087C131.741 146.092 131.438 146.38 131.438 146.726V146.799C131.438 147.145 131.727 147.433 132.087 147.433H145.999L142.164 154.468C139.439 159.485 136.715 164.488 133.976 169.505L129.463 177.78C129.305 178.068 129.434 178.443 129.737 178.616L129.795 178.645C130.097 178.804 130.487 178.717 130.631 178.443L147.513 147.433H158.758L175.64 178.443C175.784 178.717 176.173 178.818 176.476 178.645L176.534 178.616C176.836 178.443 176.966 178.068 176.807 177.78L172.295 169.505C169.57 164.488 166.846 159.485 164.106 154.468L160.271 147.433ZM172.281 141.783V133.401C172.281 127.008 172.281 120.63 172.281 114.251V106.634C172.281 105.439 171.312 104.471 170.118 104.471H146.59C145.396 104.471 144.428 105.439 144.428 106.634V141.808C144.428 143.002 145.396 143.971 146.59 143.971C146.591 143.971 146.592 143.971 146.592 143.971L170.12 143.946C171.314 143.945 172.281 142.977 172.281 141.783Z" fill="#D8DEED"/>
<g clip-path="url(#clip1)">
<path d="M239.208 146.397V146.424C239.208 146.77 238.905 147.058 238.559 147.058H227.674L231.509 154.093C234.249 159.11 236.973 164.113 239.698 169.13L244.21 177.405C244.369 177.694 244.239 178.068 243.937 178.241L243.879 178.27C243.576 178.443 243.187 178.342 243.043 178.068L226.161 147.058H214.916L198.034 178.068C197.89 178.342 197.5 178.429 197.198 178.27L197.14 178.241C196.837 178.068 196.708 177.694 196.866 177.405L201.379 169.13C204.118 164.113 206.842 159.11 209.567 154.093L213.402 147.058H198.971C198.611 147.058 198.322 146.77 198.322 146.424V146.352C198.322 146.006 198.625 145.717 198.971 145.717H208.774C215.161 145.717 221.562 145.717 227.963 145.717H237.935L239.15 135.885C239.986 129.196 240.808 122.492 241.644 115.788L243.014 104.716C243.057 104.327 243.389 104.039 243.749 104.082L243.821 104.096C244.167 104.14 244.412 104.5 244.369 104.861L239.222 146.323C239.219 146.348 239.214 146.373 239.208 146.397Z" fill="#D8DEED"/>
<path d="M239.208 146.397V146.424C239.208 146.77 238.905 147.058 238.559 147.058H227.674L231.509 154.093C234.248 159.11 236.973 164.113 239.698 169.13L244.21 177.405C244.369 177.694 244.239 178.068 243.936 178.241L243.879 178.27C243.576 178.443 243.187 178.342 243.042 178.068L226.161 147.058H214.916L198.034 178.068C197.889 178.342 197.5 178.429 197.197 178.27L197.14 178.241C196.837 178.068 196.707 177.694 196.866 177.405L201.378 169.13C204.117 164.113 206.842 159.11 209.567 154.093L213.402 147.058H198.971C198.61 147.058 198.322 146.77 198.322 146.424V146.352C198.322 146.006 198.625 145.717 198.971 145.717H208.774C215.161 145.717 221.562 145.717 227.963 145.717H237.935L239.15 135.885C239.986 129.196 240.808 122.492 241.644 115.788L243.014 104.716C243.057 104.327 243.388 104.039 243.749 104.082L243.821 104.096C244.167 104.14 244.412 104.5 244.369 104.861L239.222 146.323C239.218 146.348 239.213 146.373 239.208 146.397Z" fill="#D8DEED"/>
</g>
<g clip-path="url(#clip2)">
<path d="M170.266 177.008H192.612C192.97 177.008 193.261 177.298 193.261 177.656C193.261 178.015 192.97 178.305 192.612 178.305H170.266C169.908 178.305 169.617 178.015 169.617 177.656C169.617 177.298 169.908 177.008 170.266 177.008ZM214.055 177.01L228.157 166.497C228.259 166.426 228.361 166.385 228.476 166.387C228.678 166.376 228.878 166.466 229.005 166.627L229.047 166.7C229.259 166.949 229.195 167.337 228.932 167.534L214.585 178.285L206.135 178.311C205.803 178.305 205.534 178.041 205.525 177.709L205.527 177.622C205.547 177.291 205.811 177.022 206.143 177.028L214.055 177.01Z" fill="#FFCB3D"/>
<path d="M192.86 177.018C192.784 176.987 192.7 176.969 192.612 176.969H170.266C170.198 176.969 170.132 176.98 170.07 177C170.075 176.954 170.082 176.908 170.093 176.862C170.266 176.17 170.482 175.708 171.131 175.29C171.78 174.872 172.443 174.497 173.135 174.166C175.687 172.912 176.566 172.912 178.239 171.773C178.931 171.297 179.565 170.749 180.156 170.158C180.55 169.764 181.405 169.12 182.722 168.226L194.763 168.626L192.86 177.018ZM228.41 166.352C228.321 166.364 228.239 166.402 228.157 166.458L214.055 176.971L206.143 176.989C206.134 176.989 206.126 176.989 206.118 176.989C206.088 176.903 206.074 176.814 206.076 176.72C206.092 176.62 206.094 176.504 206.125 176.389C206.308 175.699 206.614 175.259 207.265 174.851C207.916 174.444 208.497 174.062 209.19 173.742C210.551 173.085 211.439 172.788 212.222 172.482C212.339 172.281 212.449 172.075 212.556 171.851C212.69 171.565 213.28 170.072 213.539 168.944C213.712 168.192 213.961 167.303 214.285 166.278L214.488 165.473L223.34 159.066L228.41 166.352Z" fill="#474961"/>
<path d="M200.048 124.924C200.293 124.924 200.628 124.924 200.628 124.924C207.115 124.909 213.603 124.895 220.09 124.881C228.343 124.839 232.666 124.837 233.06 124.876C233.478 124.977 236.309 126.533 237.116 129.263C237.548 130.724 237.895 132.68 237.751 135.102C237.664 136.068 237.534 138.173 236.309 140.191C235.04 142.296 233.282 143.709 230.672 144.603C228.452 145.352 226.275 145.006 223.594 144.761H223.565C223.464 144.747 223.262 144.703 223.017 144.66L222.527 144.574C222.253 144.516 222.008 144.473 221.892 144.458H221.864C219.384 144.011 217.178 143.608 214.972 143.19L214.871 143.175C214.75 143.151 214.628 143.128 214.507 143.104C214.888 143.627 215.25 144.131 215.594 144.618C216.545 145.958 217.468 147.299 218.362 148.625L221.98 153.743C222.528 154.507 222.283 155.574 221.432 156.108L216.978 158.876L212.941 161.557L212.148 162.062C211.355 162.552 210.317 162.393 209.784 161.687C208.414 159.87 207.405 158.501 205.66 156.266C204.563 154.849 205.246 155.829 201.76 152.197C200.416 155.984 198.67 161.002 197.456 163.041C197.153 163.56 196.562 163.834 195.957 163.748L184.51 162.047C183.53 161.903 182.953 160.85 183.371 159.942C185.49 155.285 189.251 142.156 189.77 140.974C189.946 140.576 190.112 140.154 190.27 139.716C188.93 137.961 188.271 136.969 187.712 135.622C187.207 134.411 186.746 133.301 186.775 131.801C186.818 129.581 187.928 127.058 190.148 125.703C191.388 124.939 192.571 124.975 193.292 124.917C193.936 124.898 196.186 124.898 200.042 124.917C200.044 124.919 200.046 124.922 200.048 124.924Z" fill="#DE3190"/>
<path opacity="0.176986" d="M200.048 124.903C199.877 124.903 199.728 124.903 199.728 124.903C198.705 124.903 198.517 125.134 197.608 125.595C196.902 125.941 196.167 126.359 195.417 126.893C194.379 127.614 193.586 128.637 193.096 129.791C193.082 129.819 193.067 129.848 193.053 129.892C192.139 132.086 191.414 136.328 190.222 139.652C188.914 137.937 188.264 136.953 187.712 135.622C187.207 134.411 186.746 133.301 186.775 131.801C186.818 129.581 187.928 127.058 190.148 125.703C191.388 124.939 192.59 124.961 193.311 124.903C193.955 124.884 196.201 124.884 200.048 124.903L200.048 124.903ZM214.5 143.095C214.884 143.621 215.248 144.129 215.594 144.618C216.545 145.958 217.468 147.299 218.362 148.626L221.98 153.743C222.528 154.508 222.283 155.574 221.432 156.108L216.978 158.876L212.941 161.557L212.148 162.062C211.355 162.552 210.317 162.393 209.784 161.687C208.414 159.871 207.405 158.501 205.661 156.266C204.557 154.842 205.253 155.839 201.708 152.143C202.497 149.921 203.146 148.129 203.466 147.623C204.172 146.498 204.874 144.38 205.494 143.559C205.826 143.112 206.287 142.492 206.864 141.771C207.513 141.857 208.161 141.944 208.81 142.045C209.704 142.203 210.598 142.376 211.506 142.535C212.512 142.718 213.507 142.901 214.5 143.095Z" fill="#444444"/>
<path d="M204.117 138.735C204.904 139.782 205.147 140.077 205.4 140.324C205.633 140.552 205.865 140.832 206.64 141.864C206.712 141.959 206.847 141.978 206.943 141.906C207.038 141.835 207.057 141.699 206.986 141.604C206.199 140.556 205.956 140.262 205.702 140.015C205.469 139.787 205.237 139.506 204.463 138.475C204.391 138.38 204.255 138.361 204.16 138.432C204.064 138.504 204.045 138.64 204.117 138.735Z" fill="#482D1F"/>
<path d="M231.886 112.342L236.148 111.006C236.44 110.647 238.935 105.825 233.891 103.46C233.534 102.826 233.142 102.211 232.715 101.62C231.417 99.8033 230.35 98.3328 228.447 97.4534C227.732 97.1253 227.013 96.9358 226.321 96.8422C225.358 96.4793 224.306 96.3079 223.214 96.3721L219.898 96.574C215.689 96.8046 212.503 100.38 212.762 104.546L212.777 104.806L213.195 112.612L213.564 120.094L213.771 121.529C213.771 121.645 213.786 121.745 213.8 121.861C213.815 121.991 213.829 122.106 213.843 122.236C213.887 122.567 214.853 124.759 214.91 124.888L233.061 124.917L231.886 112.342Z" fill="#FFCB3D"/>
<path d="M212.116 162.042L212.877 161.557L216.914 158.876L221.311 156.144L223.627 159.492L214.613 165.61L212.116 162.042ZM184.803 162.1L195.893 163.748C195.936 163.754 195.979 163.758 196.021 163.761L194.763 168.625L182.723 168.226L184.803 162.1ZM223.403 91.0158L223.183 92.7082L223.093 94.0025L222.921 96.4563L219.875 96.6417C219.44 96.6655 219.017 96.725 218.607 96.817L218.765 94.674C218.704 94.6837 218.642 94.6936 218.578 94.7035C217.292 94.917 217.366 94.8933 217.278 94.9017C216.335 94.9513 215.582 94.7686 215.441 94.7154C214.28 94.3741 213.369 91.9113 213.437 88.6644C213.44 88.4045 213.473 88.1467 213.505 87.8888L213.943 85.347C214.041 84.7757 214.28 84.2433 214.643 83.8062C214.801 83.615 214.957 83.4524 215.125 83.3197C217.003 81.6878 219.634 82.4933 220.1 82.6559C220.157 82.6743 220.213 82.6927 220.27 82.7111C220.773 82.9487 221.254 83.0979 221.752 83.205C221.981 83.2499 222.124 83.4767 222.079 83.7047L221.363 87.3255C221.296 87.6676 224.089 86.2004 224.137 89.1959C224.251 89.9326 223.897 90.6104 223.403 91.0158ZM213.523 117.88C213.849 117.825 214.218 117.765 214.637 117.699C219.221 116.984 223.09 116.442 226.318 116.006C226.317 116.005 226.316 116.005 226.315 116.004C226.175 115.749 225.857 115.079 225.458 114.22C225.557 114.225 225.658 114.228 225.761 114.23L236.019 111.013C236.109 111.256 236.2 111.502 236.292 111.752C238.001 116.413 238.938 118.918 238.735 120.665C238.747 120.667 238.758 120.669 238.77 120.67C238.757 120.681 238.742 120.714 238.722 120.768C238.713 120.827 238.703 120.886 238.691 120.944C238.68 120.94 238.669 120.935 238.658 120.931C238.425 121.52 237.747 122.999 235.367 124.433C233.38 125.631 224.614 125.792 209.071 124.917C209.056 124.905 209.041 124.894 209.025 124.882C207.375 124.751 205.572 124.404 203.617 123.841C204.168 124.001 204.709 124.144 205.24 124.271L197.658 123.27C196.374 122.933 192.741 121.946 189.991 121.207C189.109 120.977 188.237 120.75 187.465 120.549C185.865 120.131 184.683 119.813 184.683 119.813C184.769 118.083 187.508 118.516 188.734 118.804C190.233 118.876 191.733 118.963 193.246 119.035C193.48 118.974 193.756 118.906 194.067 118.849C192.945 118.075 194.219 117.454 197.889 116.986C199.794 116.743 201.246 116.997 202.726 117.415L210.611 115.952L210.6 115.941L213.002 109.113L213.229 112.938L213.243 113.083L213.523 117.88Z" fill="#F2A98A"/>
<path d="M218.643 95.8203L220.307 94.2688L218.643 94.6397L218.643 95.8203Z" fill="#482D1F"/>
<path d="M213.536 90.7634C213.067 91.3595 212.812 91.9522 212.961 92.4493C213.151 93.0778 213.748 93.3766 214.357 93.6775C214.362 93.68 214.367 93.6825 214.373 93.685C213.982 92.9842 213.684 91.9749 213.536 90.7634ZM221.902 91.3125C221.699 92.0577 221.37 93.0347 220.913 94.2437C222.671 94.9834 224.048 94.9834 225.044 94.2437C225.456 93.9401 226.335 90.8331 226.907 89.2689C227.088 88.7468 227.717 86.9843 226.847 85.3627C226.54 84.7921 226.131 84.4455 225.953 84.303C224.981 83.5269 224.093 83.6238 221.961 83.1134C221.52 83.0103 220.867 82.849 220.09 82.5924C220.032 82.5883 219.976 82.5699 219.919 82.5515C219.454 82.3889 216.873 81.696 215.1 83.2773C214.991 83.3786 214.912 83.4558 214.866 83.5088C215.231 83.8071 215.535 84.0081 215.778 84.1118C216.803 84.5447 217.755 84.568 218.35 84.5229C218.44 84.8905 218.584 85.3196 218.799 85.7538C219.403 87.0106 220.362 87.7874 220.959 88.1981C221.09 88.0691 221.393 87.7967 221.791 87.6105C221.836 87.5848 222.178 87.4497 222.564 87.5056C223.251 87.597 223.839 88.2884 223.946 89.033C224.065 89.8073 223.683 90.5176 223.15 90.9138C222.669 91.2711 222.14 91.3078 221.902 91.3125Z" fill="#482D1F"/>
<path d="M227.996 117.194C228.1 117.251 228.232 117.212 228.289 117.108C228.346 117.003 228.308 116.871 228.203 116.814L226.401 115.831C226.296 115.773 226.164 115.812 226.107 115.917C226.05 116.022 226.089 116.153 226.193 116.21L227.996 117.194ZM223.097 108.298C223.14 108.187 223.085 108.062 222.973 108.018C222.862 107.975 222.737 108.03 222.694 108.142C222.658 108.233 222.634 108.299 222.598 108.41C222.543 108.581 222.492 108.768 222.448 108.969C222.167 110.276 222.301 111.591 223.092 112.736C223.744 113.676 224.614 114.212 225.514 114.496C225.627 114.532 225.749 114.469 225.785 114.356C225.821 114.242 225.758 114.12 225.644 114.084C224.828 113.826 224.036 113.338 223.448 112.49C222.735 111.457 222.613 110.261 222.871 109.06C222.911 108.873 222.959 108.701 223.009 108.543C223.042 108.442 223.064 108.382 223.097 108.298Z" fill="#482D1F"/>
<path opacity="0.2" d="M213.453 117.906L213.171 113.083L213.157 112.938L212.93 109.113L210.528 115.941L210.54 115.952L202.617 117.422C203.147 117.57 203.68 117.74 204.238 117.916C205.004 118.158 206.04 118.564 207.346 119.135C208.646 118.852 209.517 118.681 210.151 118.591C211.086 118.46 210.564 118.39 213.453 117.906H213.453ZM194.002 118.848C193.688 118.905 193.41 118.973 193.175 119.035C191.661 118.963 190.162 118.876 188.662 118.804C187.437 118.516 184.698 118.084 184.611 119.814C184.611 119.814 185.793 120.131 187.394 120.549C188.166 120.75 189.037 120.977 189.92 121.207C192.669 121.946 196.302 122.933 197.586 123.27L205.168 124.271C204.637 124.145 204.097 124.001 203.545 123.841C201.402 123.219 198.756 121.793 195.609 119.563C194.864 119.312 194.328 119.073 194.002 118.848Z" fill="#8C2A00"/>
<path d="M200.406 122.481C199.013 121.76 197.48 120.81 195.809 119.63L180.415 115.483C179.983 115.367 179.521 115.627 179.406 116.074C179.291 116.521 179.55 116.968 179.997 117.083L200.008 122.475C200.144 122.51 200.28 122.51 200.406 122.481V122.481Z" fill="#474961"/>
<path d="M214.439 87.9994C214.412 88.2707 214.381 88.7103 214.221 88.8764C213.963 89.1445 213.593 88.3274 213.789 87.8458C213.877 87.6492 214 87.5829 214.118 87.6082C214.315 87.6345 214.45 87.8017 214.439 87.9994ZM217.601 88.3768C217.575 88.6481 217.543 89.0877 217.384 89.2538C217.125 89.5219 216.755 88.7048 216.951 88.2232C217.039 88.0266 217.162 87.9603 217.281 87.9856C217.477 88.0119 217.612 88.1791 217.601 88.3768Z" fill="#482D1F"/>
<path d="M215.151 88.2548L214.733 89.5952C214.696 89.7678 214.793 89.9548 214.958 89.9898C215.054 90.0182 215.117 90.0315 215.369 90.0802C215.481 90.102 215.558 90.1174 215.649 90.1367C215.727 90.1532 215.804 90.1035 215.82 90.0256C215.837 89.9478 215.787 89.8712 215.709 89.8547C215.616 89.8349 215.538 89.8192 215.423 89.7971C215.181 89.7504 215.123 89.7379 215.029 89.7104C215.022 89.7087 215.009 89.6827 215.012 89.668L215.426 88.3406C215.45 88.2646 215.407 88.1837 215.331 88.1601C215.255 88.1364 215.174 88.1788 215.151 88.2548Z" fill="#482D1F"/>
<path d="M215.677 91.0325C215.777 91.0216 216.029 90.9622 216.089 90.8137C216.095 90.7828 216.118 90.7394 216.108 90.7211C216.071 90.6325 215.883 90.6571 215.631 90.652C215.185 90.6377 214.822 90.5606 214.822 90.5606C214.822 90.5606 214.887 90.8485 214.938 90.9399C215.047 91.1564 215.516 91.0627 215.677 91.0325Z" fill="#482D1F"/>
<path d="M215.872 88.0489C216.106 86.961 217.176 86.2671 218.265 86.4986C219.067 86.6691 219.656 87.2943 219.819 88.047L219.826 88.117L219.819 88.047C219.824 88.0696 219.828 88.0923 219.832 88.1152L220.952 87.7855C221.067 87.7517 221.187 87.8173 221.221 87.9318C221.255 88.0464 221.189 88.1666 221.074 88.2004L219.902 88.5454C219.889 88.5493 219.876 88.5519 219.862 88.5532C219.858 88.6654 219.844 88.7788 219.82 88.8924C219.588 89.9828 218.516 90.6788 217.426 90.447C216.497 90.2496 215.855 89.443 215.827 88.5345C215.829 88.5155 215.831 88.4972 215.832 88.4796L215.34 88.4431L215.331 88.4998C215.051 89.5244 214.016 90.1645 212.964 89.9409C211.874 89.7091 211.178 88.6373 211.41 87.547C211.641 86.4567 212.713 85.7607 213.804 85.9924C214.769 86.1977 215.425 87.0617 215.402 88.014L215.872 88.0489ZM217.516 90.024C218.372 90.2061 219.214 89.6592 219.396 88.8025C219.579 87.9458 219.032 87.1037 218.175 86.9216C217.318 86.7395 216.476 87.2864 216.294 88.1431C216.112 88.9998 216.659 89.8419 217.516 90.024ZM213.054 89.5178C213.911 89.6999 214.753 89.153 214.935 88.2964C215.117 87.4397 214.57 86.5976 213.714 86.4155C212.857 86.2334 212.015 86.7802 211.833 87.6369C211.651 88.4936 212.197 89.3357 213.054 89.5178Z" fill="#482D1F"/>
</g>
<g clip-path="url(#clip3)">
<path d="M51.464 179.611C51.0891 179.611 50.8008 179.361 50.8152 179.062V178.862C50.8152 178.563 51.118 178.313 51.464 178.313H66.241C66.6015 178.313 66.8898 178.563 66.8898 178.862V179.062C66.8898 179.361 66.587 179.611 66.241 179.611H51.464ZM84.3953 178.313H107.318C107.676 178.313 107.967 178.604 107.967 178.962C107.967 179.32 107.676 179.611 107.318 179.611H84.3953C84.037 179.611 83.7466 179.32 83.7466 178.962C83.7466 178.604 84.037 178.313 84.3953 178.313Z" fill="#3ABF7C"/>
<path d="M74.0907 129.238C73.7087 137.27 73.0556 148.975 72.1315 164.351C72.0796 165.214 71.3994 165.906 70.538 165.972C65.9819 166.325 63.7038 166.501 63.7038 166.501C62.544 166.477 61.3699 166.454 60.1329 166.374C59.6391 166.354 59.1283 166.304 58.6176 166.254C55.2878 165.563 52.9628 164.933 49.6331 164.242C48.9836 164.093 47.9989 162.73 48.627 160.483C49.255 158.237 51.1855 145.28 52.7387 135.769C52.6073 134.234 52.6209 132.701 52.8383 131.182C53.0798 129.438 57.2964 100.239 57.7891 97.3714C58.1745 92.0005 60.7947 89.6568 63.8114 88.6649C64.6182 88.3997 65.2281 87.4591 66.4468 87.0538C67.549 86.6873 69.9352 86.461 73.6053 86.3751C74.7953 86.1055 77.7302 86.198 79.7624 87.3702C80.5674 87.8346 81.6305 88.86 82.9256 91.303C84.2206 93.746 91.7808 117.007 91.9394 121.307C93.3234 125.268 94.4623 128.978 95.1255 131.246C95.731 133.308 95.731 134.957 95.7886 135.443C97.3889 148.21 103.819 159.681 100.82 162.479C100.359 162.906 97.8935 163.392 92.963 164.378C92.6458 164.437 92.3575 164.496 92.3575 164.496C91.132 164.732 89.9787 164.908 88.8254 165.07C88.8254 165.07 83.3759 166.13 77.1911 165.659C76.1942 165.58 75.1607 153.44 74.0907 129.238Z" fill="#A339FF"/>
<path opacity="0.176986" d="M79.7624 87.3194C80.5674 87.7838 81.6305 88.8092 82.9255 91.2522C84.2206 93.6952 91.7808 116.956 91.9394 121.256C93.3234 125.217 94.4623 128.928 95.1254 131.195C95.7309 133.257 95.7309 134.906 95.7886 135.392C97.3889 148.159 103.819 159.63 100.82 162.428C100.359 162.855 97.8934 163.341 92.9629 164.327C92.6458 164.386 92.3574 164.445 92.3574 164.445C91.132 164.681 89.9787 164.857 88.8254 165.019C88.8254 165.019 83.3759 166.08 77.1911 165.608C76.1866 165.529 75.145 153.204 74.0664 128.635C74.3169 123.3 74.4422 119.661 74.4422 117.718C74.8848 114.265 75.3116 110.797 75.7542 107.344C76.144 99.4998 76.2216 94.1795 75.987 91.3828C75.9598 91.0589 75.7852 89.3763 75.4631 86.335L79.7624 87.3194Z" fill="#444444"/>
<path d="M66.2468 178.313H51.6243L56.0196 169.844L64.0064 170.81L66.2468 178.313ZM107.608 178.377C107.523 178.336 107.428 178.313 107.327 178.313H84.4048C84.3563 178.313 84.3091 178.319 84.2636 178.329L85.8155 169.513L94.8493 169.231L97.4443 171.119C98.0498 171.696 98.6842 172.244 99.3906 172.705C101.077 173.815 101.957 173.801 104.523 175.026C105.215 175.344 105.892 175.718 106.541 176.122C106.858 176.41 107.421 176.987 107.608 177.679C107.637 177.794 107.637 177.91 107.651 178.011C107.655 178.141 107.638 178.263 107.608 178.377Z" fill="#474961"/>
<path d="M62.7323 98.8853C62.7323 98.8853 67.1005 108.198 64.9092 108.645C64.9092 108.645 63.5973 107.939 62.6458 105.69" fill="#482D1F"/>
<path d="M51.6593 101.23L49.7851 113.758C49.7274 114.147 49.9869 114.508 50.3762 114.58L67.0851 117.088C67.4744 117.146 67.8348 116.886 67.9069 116.497L69.781 103.969C69.8387 103.58 69.5792 103.219 69.1899 103.147L52.481 100.639C52.0774 100.581 51.7169 100.855 51.6593 101.23Z" fill="#F2F6FB"/>
<path d="M67.9771 105.543L66.5499 114.726C66.4778 115.116 66.7517 115.476 67.141 115.548L68.4817 115.764C68.871 115.836 69.2314 115.563 69.3035 115.173L70.7307 105.99C70.8028 105.601 70.5289 105.24 70.1396 105.168L68.7989 104.952C68.4096 104.88 68.0492 105.154 67.9771 105.543Z" fill="#3ABF7C"/>
<path d="M75.9471 65.7436C76.9703 65.331 78.5331 65.0117 80.1351 65.9083C81.4995 66.6565 81.1999 67.684 83.5481 70.018C84.7124 71.1722 85.732 71.8846 85.6593 72.7946C85.614 73.3174 85.2445 73.683 84.952 73.9161C83.6336 74.4439 82.312 74.9697 80.9888 75.4954L81.0405 79.9311L81.0428 80.0657L81.1297 82.541L81.1297 83.393C81.1298 86.2002 78.954 88.5271 76.1531 88.7153L66.9544 89.3334C65.0478 89.4615 63.3984 88.0197 63.2703 86.1131C63.2654 86.0403 63.2628 85.9674 63.2625 85.8944L63.2316 77.817C61.7414 77.918 60.2512 78.0184 58.7612 78.1172C58.2925 78.0306 57.677 77.8388 57.4041 77.3405C56.9176 76.4529 57.8931 75.2509 58.8638 73.4963C60.8053 69.9873 59.9987 69.1039 61.3813 67.6614C63.2975 65.6598 65.8432 65.3914 67.2506 65.4044C67.5706 65.4002 67.898 65.4549 68.2075 65.5365L68.2433 65.5551C68.913 65.3513 69.6244 65.239 70.3618 65.2335L73.5594 65.2181C74.3896 65.2091 75.1935 65.4003 75.9471 65.7436Z" fill="#3ABF7C"/>
<path d="M64.7427 166.358L64.0066 170.81C64.0066 170.81 61.3491 170.488 56.0341 169.844C56.0696 168.27 56.0964 166.876 56.1144 165.662C56.8863 165.837 57.6912 166.014 58.5652 166.195C59.076 166.245 59.5868 166.295 60.0805 166.315C61.3175 166.396 62.4917 166.418 63.6515 166.442L64.7427 166.358ZM94.4912 164.003L94.8494 169.231L85.8156 169.513C85.8156 169.513 85.4619 167.599 85.0427 165.505C87.3113 165.296 88.7731 165.012 88.7731 165.012C89.9264 164.85 91.0797 164.673 92.3051 164.437C92.3051 164.437 92.5935 164.378 92.9106 164.32C93.4689 164.208 93.9955 164.103 94.4912 164.003ZM71.0336 62.7346L70.342 60.2121C70.2896 60.0618 69.7288 59.8506 69.4143 59.6021C68.8551 59.1472 68.7286 58.3764 68.834 57.6073C68.9918 56.8696 69.6426 56.2021 70.342 56.1466C70.6042 56.1258 70.8559 56.1819 71.1076 56.2975L71.1251 56.308C71.2125 56.3605 71.3174 56.364 71.4048 56.3571C71.6461 56.3118 71.8175 56.1056 71.7862 55.8608L71.2711 52.1262C71.2258 51.8849 71.3833 51.6822 71.6246 51.6369C72.1526 51.5498 72.6562 51.4243 73.1563 51.2253C73.2262 51.2078 73.2822 51.1939 73.3382 51.1799C73.8383 51.0404 76.5555 50.3778 78.3796 52.1517C78.5438 52.3336 78.7045 52.5015 78.8408 52.6904C79.1796 53.1557 79.3926 53.7118 79.4656 54.3027L79.7612 56.9183C79.782 57.1806 79.7888 57.4463 79.7817 57.7156C79.6572 61.0302 78.5927 63.4946 77.3862 63.7806C76.7637 63.9061 76.1203 63.9476 75.491 63.8668C75.406 63.8478 75.4628 63.8659 74.5214 63.6619L74.5092 65.1412C76.079 65.4436 76.7156 66.0247 76.7156 66.0247C76.6555 66.4046 76.5154 66.6746 76.3415 66.8746C75.2724 68.12 72.0491 67.4927 68.3112 65.4996C69.1234 65.309 69.8666 65.177 70.5451 65.0917C70.708 64.3075 70.8746 63.6021 71.0336 62.7346ZM81.0917 83.6078C81.0955 83.5251 81.0974 83.442 81.0974 83.3584L81.0974 82.5063L81.0105 80.031L81.0082 79.8965L80.9561 75.4216C82.3149 74.8818 83.6721 74.342 85.0261 73.7999C85.1008 73.7403 85.1807 73.6721 85.2588 73.5947L88.8991 78.4003C89.8531 77.6079 94.3132 74.2207 97.1014 72.1104C100.942 68.675 108.353 62.115 108.353 62.115C109.292 62.7989 108.624 64.9269 107.503 67.2247C107.977 67.5369 108.486 68.1493 109.03 69.0617C109.564 69.9589 109.381 71.1099 108.595 71.7971L104.184 75.6515C99.7433 80.9428 92.0587 88.7012 89.8348 89.4771C87.4343 90.3144 84.3201 87.7851 81.0917 83.6078ZM59.0072 78.0408C62.2715 77.8241 65.5368 77.5996 68.8016 77.3793L62.8005 102.702C62.7973 102.702 62.7941 102.702 62.7908 102.703L65.4563 113.765C65.5195 114.027 65.3922 114.299 65.1499 114.418C64.3196 114.825 63.2495 115.022 61.9395 115.007C59.6357 114.981 58.047 114.1 58.047 114.087C56.2834 110.177 55.2816 107.145 55.0416 104.991C55.0089 104.698 55.0061 104.374 55.0332 104.02C55.0239 104.016 55.0145 104.013 55.0051 104.009L59.0072 78.0408Z" fill="#BF865F"/>
<path opacity="0.176986" d="M75.7783 65.831C76.7729 65.3829 78.4021 64.9384 80.1349 65.9083C81.4994 66.6565 81.1997 67.684 83.548 70.018C84.7123 71.1722 85.669 71.8425 85.669 72.7556C85.669 73.2669 85.3418 73.5929 85.026 73.7999C83.6718 74.342 82.3134 74.8849 80.956 75.4111L80.8597 72.5158C80.8699 70.7728 80.3741 69.1997 79.3723 67.7964C78.598 66.7119 77.4 66.0567 75.7783 65.831Z" fill="#444444"/>
<path opacity="0.2" d="M81.0916 83.6078C81.0955 83.5251 81.0974 83.4419 81.0974 83.3583L81.0974 82.5063L81.0105 80.031L81.0081 79.8964L80.9561 75.4216C82.3149 74.8818 83.6721 74.3419 85.026 73.7999C85.1008 73.7403 85.1806 73.672 85.2588 73.5947L88.899 78.4003C89.8531 77.6078 94.3132 74.2207 97.1013 72.1103C100.942 68.6749 108.353 62.115 108.353 62.115C109.292 62.7989 108.624 64.9269 107.502 67.2246C107.977 67.5369 108.486 68.1492 109.03 69.0617C109.564 69.9588 109.381 71.1099 108.595 71.7971L104.184 75.6514C99.7432 80.9428 92.0587 88.7011 89.8347 89.4771C87.4343 90.3143 84.32 87.7851 81.0916 83.6078Z" fill="#8C2A00"/>
<path d="M61.7276 109.741C61.7007 109.625 61.7732 109.509 61.8896 109.482C62.0059 109.455 62.1221 109.527 62.149 109.644C62.316 110.365 62.4695 110.925 62.8301 112.171C63.1928 113.425 63.3478 113.99 63.5171 114.722C63.544 114.838 63.4715 114.954 63.3552 114.981C63.2388 115.008 63.1227 114.936 63.0957 114.819C62.9287 114.098 62.7752 113.538 62.4146 112.292C62.0519 111.038 61.897 110.473 61.7276 109.741ZM58.7901 109.235C58.756 109.121 58.8211 109 58.9356 108.966C59.0501 108.932 59.1705 108.997 59.2046 109.112C59.4397 109.901 59.6026 110.499 59.95 111.819C60.2963 113.134 60.4583 113.728 60.6917 114.512C60.7258 114.627 60.6606 114.747 60.5462 114.781C60.4317 114.815 60.3113 114.75 60.2772 114.636C60.0421 113.846 59.8792 113.248 59.5318 111.929C59.1855 110.614 59.0235 110.019 58.7901 109.235ZM68.4845 77.5126C68.4869 77.3934 68.5854 77.2986 68.7046 77.3007C68.7143 77.3008 68.7314 77.3004 68.7547 77.2989C68.7932 77.2964 68.836 77.2917 68.8817 77.2842C69.0089 77.2634 69.135 77.2254 69.2509 77.1669C69.6304 76.9752 69.8322 76.6089 69.7686 75.967C69.7187 75.468 69.6472 75.0325 69.5598 74.6576C69.4982 74.3932 69.4326 74.1753 69.3676 74.0011C69.33 73.9003 69.3021 73.8383 69.2884 73.8127C69.2322 73.7073 69.2721 73.5763 69.3774 73.5201C69.4828 73.4639 69.6138 73.5038 69.67 73.6092C69.6927 73.6517 69.7285 73.7312 69.7728 73.8499C69.8443 74.0415 69.9152 74.2772 69.981 74.5594C70.0726 74.9527 70.1472 75.4066 70.199 75.9242C70.2803 76.7443 69.9846 77.2808 69.4458 77.5529C69.2873 77.633 69.1196 77.6835 68.9515 77.711C68.8464 77.7282 68.7596 77.7338 68.6998 77.7332L68.6964 77.7332C68.577 77.7308 68.4821 77.632 68.4845 77.5126Z" fill="#482D1F"/>
<path d="M65.8769 58.0045C63.4157 59.7197 60.6573 59.646 59.2563 58.3459C58.1905 57.3487 57.9922 55.7192 57.9644 55.4884C57.6826 53.1665 59.5922 52.423 59.7531 52.3532C59.7531 52.3532 62.1076 50.2952 66.0425 53.8012C66.0548 53.8123 66.0672 53.8234 66.0796 53.8347C66.3129 53.4291 66.6432 53.0935 67.0151 52.8158C68.0576 52.0507 68.9666 52.1807 71.2012 51.7275C71.6558 51.6439 72.3589 51.4468 73.1913 51.2096C73.2612 51.1922 73.3172 51.1782 73.3731 51.1643C73.8732 51.0247 76.5553 50.3777 78.3794 52.1516C78.3759 52.1958 76.8163 57.6538 72.6698 58.3162H72.6698L71.9496 57.0533C71.74 56.7489 71.4569 56.5075 71.1318 56.3359C70.8802 56.2204 70.6285 56.1643 70.3662 56.1851C69.6669 56.2406 69.0161 56.908 68.8583 57.6457C68.7144 58.3799 68.9797 59.1458 69.5668 59.5937C69.937 59.8985 70.3894 60.0664 70.8733 60.0667C70.9506 61.2183 71.0435 62.8183 71.0435 62.8183C71.0435 62.8183 70.8049 62.8183 70.6977 62.8183C70.5912 62.8183 67.0519 61.7652 65.8769 58.0045ZM77.5725 56.7215C77.2997 56.8192 76.8381 56.9343 76.4395 56.8851C75.7507 56.8043 76.3489 56.3431 76.9504 56.2526C77.2336 56.1968 77.4678 56.3018 77.6251 56.3963C77.737 56.4873 77.7089 56.6726 77.5725 56.7215ZM80.2752 56.2335C80.0094 56.3593 79.5757 56.5268 79.1527 56.4986C78.4499 56.4807 78.9887 55.96 79.5937 55.824C79.9049 55.7613 80.1286 55.8244 80.2999 55.9154C80.4222 55.9889 80.4081 56.1707 80.2752 56.2335Z" fill="#482D1F"/>
<path d="M79.2518 58.1217C79.1085 57.9643 79.1123 57.5622 79.1229 57.3069C79.123 57.1286 79.2805 56.9854 79.4413 56.975C79.5462 56.9785 79.6756 57.0206 79.7244 57.2164C79.8709 57.685 79.4544 58.3981 79.2518 58.1217ZM76.8725 58.4093C76.7153 58.2553 76.733 57.8498 76.7437 57.5945C76.7438 57.4162 76.9012 57.2729 77.0621 57.2625C77.167 57.2661 77.2963 57.3081 77.3451 57.504C77.4917 57.9726 77.0892 58.6822 76.8725 58.4093Z" fill="#482D1F"/>
<path d="M79.1048 59.2417L78.9736 57.7082L79.0122 56.861C79.0158 56.7815 78.9543 56.714 78.8748 56.7104C78.7952 56.7068 78.7278 56.7683 78.7242 56.8479L78.6852 57.7045L78.6856 57.7234L78.8175 59.2654C78.8179 59.271 78.8078 59.2818 78.7819 59.2845L78.7669 59.2868C78.6161 59.3187 78.4331 59.3348 78.2184 59.3348C78.1388 59.3348 78.0743 59.3994 78.0743 59.479C78.0743 59.5586 78.1388 59.6232 78.2184 59.6232C78.4488 59.6232 78.6491 59.6057 78.8198 59.5703C78.9907 59.5487 79.1181 59.4091 79.1048 59.2417Z" fill="#482D1F"/>
<path d="M66.738 54.3262C66.738 54.3262 67.0761 56.0397 66.0885 58.5146L68.5017 57.5861L68.4606 56.1699L66.738 54.3262Z" fill="#482D1F"/>
<path d="M74.5785 63.6634L73.3479 63.3759L74.4827 65.8416L74.5785 63.6634Z" fill="#482D1F"/>
<path d="M78.1315 60.7826C78.0266 60.779 77.7679 60.7544 77.698 60.5935C77.6911 60.5655 77.6666 60.5271 77.6736 60.4956C77.6982 60.4152 78.1632 60.3735 78.1632 60.3735C78.7472 60.3319 78.8976 60.2796 78.9465 60.3565C78.9709 60.395 78.9709 60.4545 78.8729 60.5978C78.7713 60.846 78.2958 60.7862 78.1315 60.7826Z" fill="#482D1F"/>
</g>
<g clip-path="url(#clip4)">
<path d="M147.881 177.209C147.805 177.177 147.72 177.16 147.632 177.16H124.71C124.651 177.16 124.594 177.168 124.54 177.182C124.506 177.119 124.48 177.05 124.465 176.976V176.962C124.465 176.89 124.45 176.817 124.465 176.745C124.479 176.659 124.479 176.587 124.508 176.5C124.695 175.852 125.2 175.304 125.531 175.001C125.575 174.958 125.604 174.943 125.647 174.914C126.281 174.525 126.93 174.165 127.607 173.862C128.934 173.257 131.875 172.017 132.754 171.57C133.893 170.993 135.465 170.013 137.108 168.254C137.195 168.211 137.31 168.153 137.31 168.153L147.257 167.62C147.257 167.62 147.445 168.052 147.445 168.067L147.949 176.904C147.949 177.014 147.925 177.117 147.881 177.209ZM166.987 177.181C166.933 177.167 166.877 177.16 166.819 177.16H152.375C152.297 177.16 152.222 177.172 152.153 177.195L153.485 169.494L162.983 167.687L166.987 177.181Z" fill="#474961"/>
<path d="M161.649 144.979C163.159 151.751 164.615 158.757 165.907 165.72C165.973 166.064 166.088 166.865 165.7 167.615C164.984 168.987 163.186 168.899 158.871 169.368C153.791 169.937 151.663 170.572 150.535 169.168C150.155 168.719 150.033 168.246 149.994 168.032C149.662 166.066 148.845 162.785 147.844 158.847C148.271 160.822 148.687 162.799 149.09 164.774C149.162 165.117 149.291 165.916 148.917 166.672C148.226 168.057 146.426 168 142.12 168.542C137.051 169.199 134.934 169.87 133.782 168.485C133.393 168.043 133.264 167.572 133.221 167.358C132.169 161.748 126.957 145.432 124.926 133.727C124.926 133.698 124.912 133.684 124.912 133.655C124.264 129.873 126.697 126.332 130.312 125.847C131.507 125.69 132.702 125.533 133.897 125.376C134.117 125.348 134.336 125.331 134.554 125.327L134.552 125.322L152.073 123.685C163.436 123.565 169.117 123.505 169.117 123.505C169.16 125.428 169.553 132.741 169.409 135.487C169.181 139.826 168.202 143.996 163.359 144.949C162.833 144.984 162.26 144.993 161.649 144.979Z" fill="#474BFF"/>
<path opacity="0.176986" d="M161.644 145.004C160.583 140.243 159.495 135.598 158.418 131.163C157.613 127.852 154.613 125.66 151.395 126.019C150.197 126.156 148.999 126.292 147.802 126.429C144.179 126.852 141.683 130.349 142.263 134.141C142.262 134.169 142.277 134.184 142.276 134.212C142.453 135.355 142.66 136.541 142.889 137.757C142.255 135.231 141.618 132.752 140.986 130.336C140.246 127.511 137.91 125.535 135.237 125.286L152.106 123.71C163.469 123.59 169.151 123.53 169.151 123.53C169.194 125.454 169.586 132.766 169.442 135.512C169.215 139.851 168.236 144.021 163.392 144.974C162.855 145.01 162.269 145.019 161.644 145.004Z" fill="#474961"/>
<path d="M141.993 134.892L148.829 164.27C148.856 164.386 148.972 164.459 149.088 164.432C149.205 164.405 149.277 164.288 149.25 164.172L142.415 134.794C142.388 134.678 142.271 134.605 142.155 134.632C142.039 134.659 141.966 134.776 141.993 134.892Z" fill="#482D1F"/>
<path fill-rule="evenodd" clip-rule="evenodd" d="M163.829 91.9007C161.09 91.9485 158.607 92.8391 156.382 94.5725C155.464 94.5217 154.543 94.5764 153.64 94.6416C153.645 94.5638 153.631 94.5256 153.598 94.5271C150.355 94.7447 148.294 94.9154 147.416 95.0392C144.582 95.439 142.714 97.0501 142.267 97.5114C141.878 97.9007 140.782 99.0402 139.961 103.045C139.784 103.909 139.226 105.318 138.724 106.584C138.475 107.213 138.239 107.807 138.072 108.281C138.058 108.32 138.042 108.365 138.024 108.416C137.704 109.329 136.772 111.988 137.322 113.299C137.686 114.167 139.754 115.086 143.525 116.056C143.5 116.727 143.475 117.426 143.449 118.154C143.449 118.154 143.38 122.796 144.821 124.166C149.292 124.49 154.02 124.212 156.952 124.04C157.781 123.991 158.466 123.951 158.961 123.935C159.874 123.906 162.718 123.834 167.492 123.718C167.578 123.517 167.498 122.887 167.251 121.83C167.488 120.378 167.511 118.278 167.274 115.765C167.542 115.723 167.798 115.683 168.044 115.645C170.32 115.292 171.712 115.076 173.263 113.957C175.463 112.37 174.676 109.973 173.263 107.834C172.146 106.143 171.661 103.809 171.344 102.279C171.259 101.873 171.187 101.523 171.117 101.257C170.312 98.1252 169.648 97.5631 169.233 97.2122C169.172 97.1609 169.117 97.1141 169.067 97.0645C168.621 96.6032 168.188 96.286 167.9 96.0842C167.873 96.0659 167.847 96.0479 167.82 96.03C167.834 95.9934 167.847 95.9557 167.858 95.9171C168.626 93.2098 168.22 91.8241 163.829 91.9007ZM124.061 177.809C124.061 178.169 124.364 178.458 124.71 178.458H147.632C147.993 178.458 148.281 178.169 148.281 177.809C148.281 177.448 147.993 177.16 147.632 177.16H124.71C124.35 177.16 124.061 177.448 124.061 177.809ZM152.375 178.458H166.834C167.186 178.458 167.482 178.208 167.454 177.909V177.709C167.454 177.41 167.158 177.16 166.819 177.16H152.375C152.023 177.16 151.741 177.41 151.741 177.709V177.909C151.741 178.208 152.037 178.458 152.375 178.458Z" fill="#FF5645"/>
<path opacity="0.176986" d="M156.385 94.6647C158.621 92.91 161.117 92.0086 163.873 91.9605C168.264 91.8839 168.67 93.2697 167.902 95.9769C167.887 96.0279 167.87 96.0772 167.85 96.1248C165.927 94.8316 163.906 94.6348 162.868 94.6063C162.839 94.5919 162.81 94.5919 162.781 94.5919L157.663 94.5198C157.073 94.4947 157.139 94.4696 157.414 94.7685C157.072 94.7159 156.729 94.683 156.385 94.6647ZM149.112 111.217C149.13 110.593 149.641 110.097 150.264 110.097H156.919C156.925 110.097 156.93 110.097 156.935 110.097C157.572 110.106 158.081 110.63 158.072 111.267C158.058 112.293 158.231 113.073 158.592 113.608C158.985 114.19 159.584 114.604 160.388 114.85C160.752 114.961 161 115.297 161 115.677V119.902L145.391 120.451L145.53 115.9C145.542 115.539 145.776 115.223 146.117 115.107C147.385 114.678 148.203 114.194 148.573 113.657C148.898 113.184 149.078 112.371 149.112 111.217Z" fill="#444444"/>
<path d="M158.725 89.6153L157.723 95.6742C157.703 95.7733 157.642 95.8641 157.549 95.8901C157.137 96.045 156.563 96.1979 155.885 96.2129C154.658 96.2535 153.692 95.86 153.159 95.5802C153.051 95.5299 152.988 95.4001 153.01 95.2869L153.435 92.8128C152.647 92.9432 152.693 92.9238 152.616 92.9339C151.68 92.987 150.921 92.8101 150.785 92.7543C150.284 92.6128 149.829 92.0837 149.488 91.2685C149.024 90.1796 148.736 88.5667 148.774 86.7089C148.766 86.4432 148.802 86.1857 148.837 85.9282L149.273 83.3841C149.369 82.8153 149.618 82.2908 149.988 81.8195C150.146 81.6151 150.295 81.4531 150.466 81.3249C152.34 79.6919 154.974 80.4976 155.442 80.6619C155.496 80.687 155.552 80.698 155.606 80.7232C156.102 80.9665 156.589 81.1052 157.082 81.2156C157.574 81.3261 160.587 86.8906 160.586 87.1988C160.591 87.5954 159.711 88.5864 158.725 89.6153ZM137.693 121.118L138.374 115.835L138.597 114.379L143.545 116.033L143.464 118.678C145.356 118.416 147.69 118.389 150.335 118.917C150.389 118.927 150.442 118.938 150.494 118.949C154.847 118.011 160.727 116.814 164.657 116.296L162.773 109.275C163.116 110.289 163.342 110.923 163.381 110.929C163.568 110.958 164.563 116.262 164.679 116.233C169.22 115.31 171.099 115.541 173.3 113.953C173.617 113.724 173.873 113.479 174.073 113.219C175.014 117.628 175.463 123.519 169.406 124.596L145.9 124.27L136.313 125.158C136.233 123.607 136.883 122.162 137.693 121.118Z" fill="#DB9E75"/>
<path d="M164.924 115.975C164.957 116.089 164.89 116.209 164.775 116.242C164.66 116.274 164.54 116.207 164.508 116.092C163.975 114.21 162.276 108.509 161.916 107.453C161.878 107.34 161.938 107.217 162.051 107.179C162.164 107.14 162.287 107.201 162.326 107.314C162.689 108.378 164.39 114.085 164.924 115.975ZM143.759 116.061C143.744 116.179 143.636 116.263 143.518 116.248C143.399 116.233 143.315 116.125 143.33 116.006L144.359 107.861C144.374 107.742 144.482 107.658 144.6 107.673C144.719 107.688 144.803 107.797 144.788 107.915L143.759 116.061Z" fill="#482D1F"/>
<path d="M153.436 92.8071L154.52 92.5975L153.188 94.2536L153.436 92.8071Z" fill="#482D1F"/>
<path d="M157.261 89.1567L157.309 89.1905C157.695 89.2167 157.955 89.2134 158.089 89.1806C158.289 89.1315 158.877 88.9813 159.309 88.4191C159.741 87.8569 159.946 87.0302 159.606 86.2885C159.277 85.5636 158.496 85.0448 157.773 85.1392C157.366 85.1923 157.054 85.4399 157.02 85.4627C156.914 85.5536 156.822 85.6488 156.744 85.7418L149.181 83.7899C149.432 82.1363 150.257 81.0569 151.656 80.5516C152.053 80.408 153.138 80.1972 154.079 80.3193C155.532 80.5078 156.841 81.007 157.234 81.1131C157.554 81.2046 160.117 81.3224 161.568 82.4384C161.724 82.5716 162.088 82.9066 162.342 83.4701C163.14 85.1819 162.522 86.9563 162.314 87.3566C162.243 87.4936 161.538 88.8412 160.582 90.0058C159.584 91.2213 158.335 92.2531 158.335 92.2531C157.569 92.0643 157.211 91.0322 157.261 89.1567ZM149.43 85.2211C149.294 85.1652 149.287 84.973 149.406 84.8932C149.555 84.8048 149.803 84.7356 150.086 84.7906C150.667 84.9034 151.215 85.4065 150.531 85.4498C150.127 85.4887 149.685 85.3441 149.43 85.2211ZM152.326 85.8868C152.19 85.831 152.183 85.6388 152.316 85.5617C152.465 85.4732 152.713 85.404 153.011 85.4618C153.591 85.5746 154.137 86.0919 153.455 86.121C153.02 86.1686 152.598 85.9984 152.326 85.8868Z" fill="#482D1F"/>
<path d="M150.339 86.4404C150.278 86.6783 150.158 87.0662 149.989 87.1803C149.707 87.3458 149.534 86.5777 149.803 86.1747C149.909 86.0045 150.014 85.9955 150.124 86.0316C150.289 86.0929 150.372 86.2706 150.339 86.4404ZM152.88 86.8904C152.847 87.1337 152.77 87.5299 152.596 87.6723C152.337 87.8716 152.073 87.1153 152.302 86.6899C152.395 86.517 152.502 86.4938 152.615 86.5158C152.785 86.5488 152.899 86.7178 152.88 86.8904Z" fill="#482D1F"/>
<path d="M151.153 89.5801C151.258 89.571 151.512 89.547 151.585 89.3996C151.59 89.3713 151.612 89.3316 151.604 89.3005C151.566 89.1905 151.386 89.2141 151.128 89.1787C150.67 89.119 150.31 89.005 150.31 89.005C150.31 89.005 150.354 89.3073 150.408 89.406C150.523 89.6485 151.003 89.595 151.153 89.5801Z" fill="#482D1F"/>
<path d="M150.242 88.0022C150.184 88.1566 150.278 88.3374 150.434 88.3956C150.468 88.4057 150.468 88.4057 150.491 88.412C150.726 88.4767 150.874 88.5126 151.13 88.5624C151.209 88.5776 151.284 88.5265 151.299 88.4484C151.315 88.3702 151.264 88.2946 151.185 88.2794C150.937 88.2311 150.796 88.1969 150.568 88.134L150.522 88.1215C150.522 88.1208 150.512 88.1021 150.513 88.0995L151.021 86.623L151.027 86.6036L151.189 85.7686C151.204 85.6905 151.153 85.6148 151.075 85.5996C150.997 85.5844 150.921 85.6355 150.906 85.7136L150.745 86.5387L150.242 88.0022Z" fill="#482D1F"/>
<path opacity="0.2" d="M137.714 121.106C138.614 120.378 139.622 119.82 140.738 119.43C141.855 119.04 142.758 118.791 143.448 118.681L143.545 116.033L138.597 114.379L137.714 121.106Z" fill="#8C2A00"/>
</g>
<g clip-path="url(#clip5)">
<path d="M237.952 123.386H122.475C121.918 123.386 121.466 123.838 121.466 124.395C121.466 124.952 121.918 125.404 122.475 125.404H237.952C238.51 125.404 238.962 124.952 238.962 124.395C238.962 123.838 238.51 123.386 237.952 123.386Z" fill="#D8DEED"/>
</g>
<g clip-path="url(#clip6)">
<path d="M245.158 41.9316H201.337C200.3 41.9316 199.46 42.7712 199.46 43.8069V76.5305C199.46 77.5662 200.3 78.4058 201.337 78.4058H245.158C246.195 78.4058 247.035 77.5662 247.035 76.5305V43.8069C247.035 42.7712 246.195 41.9316 245.158 41.9316Z" fill="#E1E5F0"/>
<path d="M226.455 68.1849V69.8643C226.455 69.9577 226.445 69.9916 226.427 70.0257C226.408 70.0599 226.381 70.0867 226.347 70.1049C226.313 70.1232 226.279 70.1329 226.186 70.1329H209.923V67.9163H226.186C226.279 67.9163 226.313 67.926 226.347 67.9442C226.381 67.9625 226.408 67.9893 226.427 68.0234C226.445 68.0576 226.455 68.0915 226.455 68.1849Z" fill="#D8DEED"/>
<path d="M242.859 63.7515V65.431C242.859 65.5244 242.849 65.5582 242.831 65.5924C242.813 65.6265 242.786 65.6533 242.752 65.6716C242.718 65.6899 242.684 65.6996 242.59 65.6996H209.923V63.4829L242.59 63.4829C242.684 63.4829 242.718 63.4926 242.752 63.5109C242.786 63.5292 242.813 63.556 242.831 63.5901C242.849 63.6242 242.859 63.6581 242.859 63.7515Z" fill="#F2F6FB"/>
<path d="M238.536 59.3182V60.9976C238.536 61.091 238.526 61.1249 238.508 61.159C238.489 61.1932 238.463 61.22 238.428 61.2382C238.394 61.2565 238.36 61.2662 238.267 61.2662L209.923 61.2662V59.0496L238.267 59.0496C238.36 59.0496 238.394 59.0593 238.428 59.0775C238.463 59.0958 238.489 59.1226 238.508 59.1568C238.526 59.1909 238.536 59.2248 238.536 59.3182Z" fill="#D8DEED"/>
<path d="M228.743 54.8848V56.5643C228.743 56.6577 228.734 56.6915 228.715 56.7257C228.697 56.7598 228.67 56.7866 228.636 56.8049C228.602 56.8232 228.568 56.8329 228.475 56.8329H209.923V54.6162H228.475C228.568 54.6162 228.602 54.6259 228.636 54.6442C228.67 54.6625 228.697 54.6893 228.715 54.7234C228.734 54.7575 228.743 54.7914 228.743 54.8848Z" fill="#D8DEED"/>
<path d="M233.576 50.4515V52.1309C233.576 52.2243 233.566 52.2582 233.548 52.2923C233.53 52.3265 233.503 52.3533 233.469 52.3715C233.434 52.3898 233.401 52.3995 233.307 52.3995L209.923 52.3995V50.1829L233.307 50.1829C233.401 50.1829 233.434 50.1926 233.469 50.2108C233.503 50.2291 233.53 50.2559 233.548 50.2901C233.566 50.3242 233.576 50.3581 233.576 50.4515Z" fill="#D8DEED"/>
</g>
<g clip-path="url(#clip7)">
<path d="M142.937 37.4625H93.8604C92.7046 37.4625 91.7676 38.3984 91.7676 39.5528V76.0273C91.7676 77.1817 92.7046 78.1175 93.8604 78.1175H142.937C144.093 78.1175 145.03 77.1817 145.03 76.0273V39.5528C145.03 38.3984 144.093 37.4625 142.937 37.4625Z" fill="#F2F6FB"/>
<path d="M119.269 69.3483C125.227 65.9132 127.264 58.298 123.819 52.3391C120.374 46.3802 112.751 44.3343 106.793 47.7694C100.835 51.2045 98.7978 58.8197 102.243 64.7786C105.688 70.7374 113.311 72.7834 119.269 69.3483ZM116.217 64.0688C113.174 65.823 109.281 64.7782 107.522 61.7351C105.762 58.6921 106.803 54.8031 109.845 53.0489C112.888 51.2947 116.781 52.3395 118.54 55.3825C120.3 58.4256 119.259 62.3146 116.217 64.0688Z" fill="#E1E5F0"/>
<mask id="mask0" mask-type="alpha" maskUnits="userSpaceOnUse" x="97" y="45" width="32" height="29">
<path d="M105.25 45.1513C97.8845 49.3977 95.3665 58.8122 99.626 66.1792C103.885 73.5461 113.309 76.0759 120.675 71.8295C128.04 67.5831 130.558 58.1686 126.299 50.8016L121.056 53.8243C123.641 58.2951 122.113 64.0084 117.643 66.5854C113.173 69.1624 107.454 67.6272 104.869 63.1564C102.284 58.6857 103.812 52.9724 108.282 50.3954L105.25 45.1513Z" fill="white"/>
</mask>
<g mask="url(#mask0)">
<path d="M105.25 45.152C97.8846 49.3984 95.3665 58.8129 99.6259 66.1798C103.885 73.5468 113.309 76.0765 120.675 71.83C128.04 67.5836 130.558 58.1691 126.299 50.8022L121.056 53.8249C123.641 58.2957 122.113 64.009 117.643 66.586C113.173 69.163 107.454 67.6278 104.869 63.1571C102.284 58.6864 103.812 52.973 108.282 50.396L105.25 45.152Z" fill="white"/>
<path d="M105.513 45.1207C97.3496 47.8906 94.662 59.1807 98.921 66.5469C103.18 73.9132 116.135 76.4903 120.936 71.7963L117.94 66.217C113.451 68.8052 107.68 67.6152 105.096 63.1449C102.511 58.6746 104.055 52.9525 108.544 50.3643L105.513 45.1207Z" fill="#474BFF"/>
</g>
<path d="M136.449 51.5593H132.996C132.881 51.5593 132.787 51.6529 132.787 51.7683V55.173C132.787 55.2884 132.881 55.382 132.996 55.382H136.449C136.565 55.382 136.659 55.2884 136.659 55.173V51.7683C136.659 51.6529 136.565 51.5593 136.449 51.5593Z" fill="#474BFF"/>
<path d="M136.449 57.1567H132.996C132.881 57.1567 132.787 57.2503 132.787 57.3658V60.7704C132.787 60.8858 132.881 60.9794 132.996 60.9794H136.449C136.565 60.9794 136.659 60.8858 136.659 60.7704V57.3658C136.659 57.2503 136.565 57.1567 136.449 57.1567Z" fill="white"/>
<path d="M136.449 62.7543H132.996C132.881 62.7543 132.787 62.8479 132.787 62.9633V66.3679C132.787 66.4834 132.881 66.577 132.996 66.577H136.449C136.565 66.577 136.659 66.4834 136.659 66.3679V62.9633C136.659 62.8479 136.565 62.7543 136.449 62.7543Z" fill="#E1E5F0"/>
<path d="M91.7676 39.5532C91.7676 38.3986 92.7053 37.4625 93.8596 37.4625H142.729C143.884 37.4625 144.821 38.3986 144.821 39.5532V42.061H91.7676V39.5532Z" fill="#E1E5F0"/>
</g>
<g clip-path="url(#clip8)">
<path d="M200.581 26.2175H144.565C143.273 26.2175 142.226 27.2662 142.226 28.5598V69.3148C142.226 70.6084 143.273 71.6571 144.565 71.6571H200.581C201.873 71.6571 202.92 70.6084 202.92 69.3148V28.5598C202.92 27.2662 201.873 26.2175 200.581 26.2175Z" fill="#F2F6FB"/>
<mask id="mask1" mask-type="alpha" maskUnits="userSpaceOnUse" x="143" y="33" width="59" height="39">
<path d="M143.278 33.9469H201.867V71.1433C201.867 71.4025 201.658 71.6127 201.4 71.6127H143.746C143.488 71.6127 143.278 71.4032 143.278 71.1433V33.9469Z" fill="white"/>
</mask>
<g mask="url(#mask1)">
<path d="M175.662 69.8497V73.0553H178.645V74.7649H166.501V73.0553H169.484V69.8497H155.463C155.205 69.8497 154.996 69.6407 154.996 69.3821V65.5756H190.15V69.3821C190.15 69.6403 189.941 69.8497 189.683 69.8497H175.662Z" fill="#D8DEED"/>
<path fill-rule="evenodd" clip-rule="evenodd" d="M154.997 46.1703C154.997 45.911 155.206 45.7008 155.464 45.7008H189.683C189.941 45.7008 190.151 45.9105 190.151 46.1703V66.2166H154.997V46.1703Z" fill="white"/>
<path d="M172.905 58.1541L172.667 58.1571L172.669 58.1541H169.632C169.529 58.1541 169.49 58.0817 169.544 57.9936L171.673 54.5225C171.727 54.4338 171.817 54.433 171.873 54.5193L173.422 56.9236L173.997 55.9841C174.051 55.8955 174.142 55.8929 174.2 55.9779L175.53 57.9397C175.588 58.0249 175.552 58.0965 175.447 58.0998L174.286 58.1363L174.166 58.1379L174.175 58.1541C174.175 58.1541 174.091 58.1541 173.988 58.1541H172.905ZM174.145 55.0178C173.866 55.0178 173.64 54.7859 173.64 54.4999C173.64 54.2138 173.866 53.9819 174.145 53.9819C174.425 53.9819 174.651 54.2138 174.651 54.4999C174.651 54.7859 174.425 55.0178 174.145 55.0178Z" fill="#D8DEED"/>
</g>
<path d="M179.062 40.9222H166.199C166.07 40.9222 165.965 41.0271 165.965 41.1565V42.8185C165.965 42.9478 166.07 43.0527 166.199 43.0527H179.062C179.191 43.0527 179.295 42.9478 179.295 42.8185V41.1565C179.295 41.0271 179.191 40.9222 179.062 40.9222Z" fill="#D8DEED"/>
<path d="M185.727 37.4603H159.534C159.405 37.4603 159.3 37.5652 159.3 37.6946V39.3566C159.3 39.4859 159.405 39.5908 159.534 39.5908H185.727C185.856 39.5908 185.961 39.4859 185.961 39.3566V37.6946C185.961 37.5652 185.856 37.4603 185.727 37.4603Z" fill="#D8DEED"/>
<path d="M142.226 28.5603C142.226 27.2664 143.273 26.2175 144.566 26.2175H200.58C201.872 26.2175 202.92 27.2665 202.92 28.5603V31.3705H142.226V28.5603Z" fill="#E1E5F0"/>
<path d="M145.676 29.9651C146.289 29.9651 146.787 29.467 146.787 28.8526C146.787 28.2381 146.289 27.74 145.676 27.74C145.062 27.74 144.565 28.2381 144.565 28.8526C144.565 29.467 145.062 29.9651 145.676 29.9651Z" fill="#FF5645"/>
<path d="M149.301 29.9651C149.915 29.9651 150.412 29.467 150.412 28.8526C150.412 28.2381 149.915 27.74 149.301 27.74C148.688 27.74 148.19 28.2381 148.19 28.8526C148.19 29.467 148.688 29.9651 149.301 29.9651Z" fill="#FFCB3D"/>
<path d="M153.043 29.9651C153.657 29.9651 154.154 29.467 154.154 28.8526C154.154 28.2381 153.657 27.74 153.043 27.74C152.43 27.74 151.932 28.2381 151.932 28.8526C151.932 29.467 152.43 29.9651 153.043 29.9651Z" fill="#3ABF7C"/>
</g>
</g>
<defs>
<clipPath id="clip0">
<rect x="23" y="18" width="245.083" height="173" fill="white"/>
</clipPath>
<clipPath id="clip1">
<rect x="196.721" y="104.068" width="47.7192" height="74.39" fill="white"/>
</clipPath>
<clipPath id="clip2">
<rect x="166.59" y="69.3234" width="75.255" height="108.99" fill="white"/>
</clipPath>
<clipPath id="clip3">
<rect x="5.98853" y="43.2291" width="146.473" height="136.526" fill="white"/>
</clipPath>
<clipPath id="clip4">
<rect x="111.663" y="69.4675" width="75.255" height="108.99" fill="white"/>
</clipPath>
<clipPath id="clip5">
<rect x="121.466" y="123.386" width="186.552" height="2.01833" fill="white"/>
</clipPath>
<clipPath id="clip6">
<rect x="199.46" y="41.9316" width="47.575" height="36.4742" fill="white"/>
</clipPath>
<clipPath id="clip7">
<rect x="91.7676" y="37.4625" width="53.0533" height="40.655" fill="white"/>
</clipPath>
<clipPath id="clip8">
<rect x="142.226" y="26.2175" width="60.6942" height="45.5567" fill="white"/>
</clipPath>
</defs>
</svg>
