<svg width="291" height="221" viewBox="0 0 291 221" fill="none" xmlns="http://www.w3.org/2000/svg">
<path d="M84.1055 166.033L83.1912 186.757H77.2772L74.4385 174.412L76.4629 173.5L80.0059 183.707L81.1017 166.033H84.1055Z" fill="#D8DEED"/>
<mask id="mask0" mask-type="alpha" maskUnits="userSpaceOnUse" x="57" y="131" width="44" height="85">
<path d="M70.9863 186.757H87.8823C88.8872 186.757 89.7019 187.571 89.7019 188.576V207.942C89.7019 212.392 86.0941 216 81.6438 216H77.2248C72.7744 216 69.1667 212.392 69.1667 207.942V188.576C69.1667 187.571 69.9814 186.757 70.9863 186.757ZM57.1035 154.888C57.0674 154.449 57.1016 154.006 57.2046 153.577C57.7412 151.343 59.9867 149.968 62.2201 150.504C64.2421 150.99 66.0811 151.858 67.737 153.107C70.7004 155.343 71.5213 157.625 70.1997 159.953C74.5068 159.953 77.0182 161.589 77.734 164.862C79.1407 171.294 79.1407 176.71 76.4351 178.122C71.8007 180.54 67.3791 176.854 64.7048 173.5C62.9219 171.264 62.5781 167.838 63.6734 163.223C61.4293 162.903 59.7028 161.813 58.494 159.953C57.7501 158.808 57.2866 157.12 57.1035 154.888ZM99.8322 160.676C100.663 161.227 100.9 162.373 100.542 164.115C100.267 165.456 99.6313 166.697 98.7039 167.704L94.7417 172.008C96.0056 174.986 95.5992 177.207 93.5226 178.673C89.4417 181.553 85.6577 183.159 83.8775 181.707C80.8281 179.22 82.2719 173.586 83.8302 170.743C84.8691 168.847 87.1063 168.088 90.5418 168.466C91.298 165.55 92.1485 163.398 93.0935 162.01C94.5109 159.929 98.0895 159.521 99.8322 160.676ZM79.1335 134.232C79.3336 133.805 79.6047 133.416 79.9352 133.08C81.5468 131.444 84.1801 131.423 85.8168 133.035C87.2193 134.416 88.2547 136.078 88.923 138.023C90.1294 141.534 89.5891 144.796 87.3019 147.81C90.8726 150.219 92.0395 152.98 90.8027 156.093C88.3724 162.212 85.3437 166.702 82.3113 166.36C77.117 165.773 74.6163 158.475 74.2745 154.2C74.0467 151.349 75.9761 148.906 80.0626 146.872C78.7779 143.088 78.1546 140.087 78.1927 137.869C78.212 136.74 78.5256 135.528 79.1335 134.232Z" fill="white"/>
</mask>
<g mask="url(#mask0)">
<path d="M70.9863 186.757H87.8823C88.8872 186.757 89.7019 187.571 89.7019 188.576V207.942C89.7019 212.392 86.0941 216 81.6438 216H77.2248C72.7744 216 69.1667 212.392 69.1667 207.942V188.576C69.1667 187.571 69.9814 186.757 70.9863 186.757ZM57.1035 154.888C57.0674 154.449 57.1016 154.006 57.2046 153.577C57.7412 151.343 59.9867 149.968 62.2201 150.504C64.2421 150.99 66.0811 151.858 67.737 153.107C70.7004 155.343 71.5213 157.625 70.1997 159.953C74.5068 159.953 77.0182 161.589 77.734 164.862C79.1407 171.294 79.1407 176.71 76.4351 178.122C71.8007 180.54 67.3791 176.854 64.7048 173.5C62.9219 171.264 62.5781 167.838 63.6734 163.223C61.4293 162.903 59.7028 161.813 58.494 159.953C57.7501 158.808 57.2866 157.12 57.1035 154.888ZM99.8322 160.676C100.663 161.227 100.9 162.373 100.542 164.115C100.267 165.456 99.6313 166.697 98.7039 167.704L94.7417 172.008C96.0056 174.986 95.5992 177.207 93.5226 178.673C89.4417 181.553 85.6577 183.159 83.8775 181.707C80.8281 179.22 82.2719 173.586 83.8302 170.743C84.8691 168.847 87.1063 168.088 90.5418 168.466C91.298 165.55 92.1485 163.398 93.0935 162.01C94.5109 159.929 98.0895 159.521 99.8322 160.676ZM79.1335 134.232C79.3336 133.805 79.6047 133.416 79.9352 133.08C81.5468 131.444 84.1801 131.423 85.8168 133.035C87.2193 134.416 88.2547 136.078 88.923 138.023C90.1294 141.534 89.5891 144.796 87.3019 147.81C90.8726 150.219 92.0395 152.98 90.8027 156.093C88.3724 162.212 85.3437 166.702 82.3113 166.36C77.117 165.773 74.6163 158.475 74.2745 154.2C74.0467 151.349 75.9761 148.906 80.0626 146.872C78.7779 143.088 78.1546 140.087 78.1927 137.869C78.212 136.74 78.5256 135.528 79.1335 134.232Z" fill="#E1E5F0"/>
<path d="M80.4857 176.392C79.9865 176.993 79.1221 177.199 77.8141 176.897C66.3355 174.247 57.6261 144.172 66.4574 137.87C68.4167 136.472 65.3753 144.753 67.5092 147.553C72.6553 154.306 79.8202 166.622 80.8899 172.987C82.0041 170.714 84.4887 168.476 86.2897 166.033C90.4521 160.388 94.6832 154.484 99.0135 157.124C105.869 161.305 82.8552 183.732 80.4857 176.392ZM98.5506 120.526C109.396 120.241 94.1768 167.847 86.1425 159.231C78.1082 150.615 87.7055 120.812 98.5506 120.526ZM67.7371 192.865H91.0017V207.422H67.7371V192.865Z" fill="#F2F6FB"/>
</g>
<g clip-path="url(#clip0)">
<path d="M184.476 32.7453C186.879 28.3093 191.553 24.6731 200.255 23.8911C210.852 22.9388 214.945 27.2883 216.782 33.249C218.046 32.9953 219.449 32.8125 221.008 32.7145C238.262 31.6302 240.017 42.6482 238.262 48.3271C236.804 53.0439 226.353 53.3188 218.813 53.2766C217.368 58.8257 211.056 58.3071 205 58.3071C198.576 58.3071 187.514 56.422 183.75 51.1082C176.428 51.2432 168.519 50.2152 166.289 48.2141C162.193 44.5385 162.661 33.7826 179.943 32.7055C181.574 32.6038 183.084 32.6232 184.476 32.7453Z" fill="#E1E5F0"/>
<path d="M149.899 42.9381C153.312 36.891 159.807 31.9787 171.68 30.9041C186.265 29.5839 192.015 35.5185 194.624 43.7233C196.544 43.2943 198.706 42.9884 201.14 42.8332C225.128 41.3048 227.568 56.8355 225.128 64.8403C223.073 71.5834 208.155 71.8863 197.644 71.8142C195.809 79.991 186.868 79.2403 178.296 79.2403C169.264 79.2403 153.659 76.5489 148.537 68.9443C138.334 69.1526 127.265 67.6934 124.155 64.8403C118.47 59.6245 119.119 44.3617 143.107 42.8332C145.568 42.6764 147.829 42.7227 149.899 42.9381ZM133.444 15.1865C134.908 12.5438 137.726 10.3868 142.928 9.91917C149.3 9.34629 151.778 11.9492 152.894 15.5267C153.701 15.3532 154.606 15.2291 155.62 15.165C165.996 14.5094 167.052 21.1714 165.996 24.6052C165.11 27.488 158.698 27.6267 154.154 27.597C153.319 31.0302 149.477 30.7122 145.793 30.7122C141.926 30.7122 135.275 29.5803 132.981 26.3928C128.578 26.4752 123.822 25.8477 122.48 24.6262C120.017 22.3827 120.298 15.8174 130.692 15.1599C131.683 15.0972 132.599 15.11 133.444 15.1865Z" fill="#F2F6FB"/>
</g>
<g clip-path="url(#clip1)">
<path d="M233.124 94H161.876C158.664 94 156.06 96.604 156.06 99.8161V178.043C156.06 181.255 158.664 183.859 161.876 183.859H233.124C236.336 183.859 238.94 181.255 238.94 178.043V99.8161C238.94 96.604 236.336 94 233.124 94Z" fill="#E1E5F0"/>
<path d="M168.325 153.279H226.721C227.552 153.279 228.226 153.953 228.226 154.785C228.226 155.616 227.552 156.29 226.721 156.29H168.325C167.494 156.29 166.82 155.616 166.82 154.785C166.82 153.953 167.494 153.279 168.325 153.279ZM168.325 163.065H226.721C227.552 163.065 228.226 163.739 228.226 164.571C228.226 165.402 227.552 166.076 226.721 166.076H168.325C167.494 166.076 166.82 165.402 166.82 164.571C166.82 163.739 167.494 163.065 168.325 163.065ZM176.237 158.172H218.809C219.641 158.172 220.315 158.846 220.315 159.678C220.315 160.509 219.641 161.183 218.809 161.183H176.237C175.405 161.183 174.731 160.509 174.731 159.678C174.731 158.846 175.405 158.172 176.237 158.172ZM180.004 167.958H215.042C215.874 167.958 216.548 168.632 216.548 169.464C216.548 170.295 215.874 170.969 215.042 170.969H180.004C179.172 170.969 178.498 170.295 178.498 169.464C178.498 168.632 179.172 167.958 180.004 167.958Z" fill="#F2F6FB"/>
<path d="M197.335 125.376C202.952 125.376 207.506 120.826 207.506 115.213C207.506 109.601 202.952 105.051 197.335 105.051C191.717 105.051 187.163 109.601 187.163 115.213C187.163 120.826 191.717 125.376 197.335 125.376Z" fill="#474BFF"/>
<path d="M197.331 115.111C196.305 115.111 195.473 114.292 195.473 113.28C195.473 112.269 196.305 111.449 197.331 111.449C198.357 111.449 199.189 112.269 199.189 113.28C199.189 114.292 198.357 115.111 197.331 115.111ZM197.331 116.027C199.191 116.027 200.698 117.513 200.698 119.346H193.964C193.964 117.513 195.471 116.027 197.331 116.027Z" fill="#F2F6FB"/>
<path d="M208.334 134.033H186.336C185.504 134.033 184.83 134.707 184.83 135.538C184.83 136.37 185.504 137.044 186.336 137.044H208.334C209.165 137.044 209.839 136.37 209.839 135.538C209.839 134.707 209.165 134.033 208.334 134.033Z" fill="#F2F6FB"/>
<path d="M212.696 129.14H181.974C181.142 129.14 180.468 129.814 180.468 130.645C180.468 131.477 181.142 132.151 181.974 132.151H212.696C213.528 132.151 214.202 131.477 214.202 130.645C214.202 129.814 213.528 129.14 212.696 129.14Z" fill="#F2F6FB"/>
</g>
<g clip-path="url(#clip2)">
<path d="M104.647 195.022H132.924C133.34 195.022 133.677 195.359 133.677 195.775C133.677 196.19 133.34 196.528 132.924 196.528H104.647C104.231 196.528 103.894 196.19 103.894 195.775C103.894 195.359 104.231 195.022 104.647 195.022ZM144.135 195.022H161.704C162.119 195.022 162.457 195.359 162.457 195.775C162.457 196.19 162.119 196.528 161.704 196.528H144.135C143.719 196.528 143.382 196.19 143.382 195.775C143.382 195.359 143.719 195.022 144.135 195.022Z" fill="#A339FF"/>
<path d="M161.648 195.022H144.4L145.981 184.6L158.269 184.15L161.648 195.022ZM132.986 195.024C132.965 195.022 132.945 195.022 132.924 195.022H104.646C104.555 195.022 104.467 195.038 104.386 195.068C104.341 194.949 104.313 194.802 104.313 194.618C104.33 194.501 104.33 194.367 104.363 194.233C104.564 193.43 104.815 192.912 105.585 192.426C106.354 191.941 107.124 191.523 107.927 191.138C110.906 189.699 111.926 189.716 113.884 188.411C114.419 188.042 115.167 187.423 116.126 186.553L119.121 184.345H131.704L132.986 195.024Z" fill="#474961"/>
<path d="M120.741 109.502L120.692 109.413C122.453 107.528 123.658 106.378 124.305 105.963C128.249 103.435 132.981 103.04 137.406 103.489C139.286 103.68 156.992 118.06 161.84 133.554C163.672 139.406 164.182 153.424 163.371 175.607C163.272 178.307 161.056 180.444 158.355 180.444H144.873C142.166 180.444 139.946 178.297 139.856 175.591L138.731 141.916L132.539 130.759C131.706 135.547 129.953 141.96 127.281 149.999L133.519 175.005C133.634 175.463 133.683 175.934 133.665 176.406C133.563 179.176 131.233 181.339 128.463 181.236L118.714 180.875C116.752 180.802 115.013 179.592 114.262 177.779L105.501 156.62C104.098 153.23 103.847 149.473 104.788 145.928C110.082 125.974 115.4 113.832 120.741 109.502Z" fill="#FFCB3D"/>
<path d="M120.741 109.479L120.692 109.39C122.453 107.505 123.658 106.355 124.305 105.94C128.249 103.412 132.981 103.017 137.406 103.466C139.286 103.657 156.992 118.037 161.84 133.531C163.672 139.383 164.182 153.401 163.371 175.584C163.272 178.283 161.056 180.421 158.355 180.421H144.873C142.166 180.421 139.946 178.274 139.856 175.568L138.731 141.892L132.539 130.736C131.706 135.524 129.953 141.937 127.281 149.976L133.519 174.982C133.634 175.44 133.683 175.911 133.665 176.383C133.563 179.153 131.233 181.316 128.463 181.213L118.714 180.852C116.752 180.779 115.013 179.569 114.262 177.756L105.501 156.597C104.098 153.207 103.847 149.45 104.788 145.905C110.082 125.951 115.4 113.809 120.741 109.479Z" fill="#FFCB3D"/>
<path opacity="0.176986" d="M120.687 109.524L132.521 130.845C131.68 135.621 129.934 141.998 127.282 149.976L133.52 174.982C133.634 175.44 133.683 175.911 133.665 176.383C133.563 179.153 131.234 181.316 128.463 181.213L118.715 180.852C116.753 180.779 115.014 179.569 114.263 177.756L105.502 156.597C104.099 153.207 103.848 149.45 104.789 145.905C110.065 126.019 115.365 113.892 120.687 109.524Z" fill="#8C2A00"/>
<path d="M122.229 80.0525C123.561 79.3481 125.258 78.8015 127.319 78.4129L128.362 78.2101C132.739 77.387 135.854 77.5997 137.961 79.4188C141.556 74.6231 144.645 75.6927 147.228 82.6276C150.046 90.1948 147.73 92.5792 140.281 89.7809L140.216 99.1671C140.242 99.8559 140.208 100.497 140.113 101.09C141.023 102.088 143.228 103.762 142.455 104.317C138.571 107.108 125.437 108.695 120.511 107.463C119.393 107.183 120.997 104.85 121.569 103.592C121.363 103.27 121.215 102.955 121.153 102.668C121.116 102.48 119.443 97.5914 118.587 91.3014C118.573 91.198 118.56 91.0955 118.547 90.9937C111.116 93.1732 109.412 90.7444 113.436 83.7074C116.856 77.7257 119.787 76.5074 122.229 80.0525Z" fill="#A339FF"/>
<path d="M126.165 72.481C126.058 72.3514 125.976 72.26 125.92 72.2067C125.361 71.6587 124.553 69.4668 124.825 68.5588C125.069 67.7199 130.495 62.7384 131.118 62.5438C131.185 62.5392 131.251 62.5178 131.318 62.5131C131.88 62.4067 135.023 61.7676 136.903 63.9509C137.066 64.124 137.216 64.3483 137.367 64.5893C137.725 65.1514 137.905 65.8097 137.918 66.4797L137.994 69.4768C137.981 69.7796 137.986 70.0812 137.94 70.3863C137.464 74.1265 136.006 76.7947 134.611 76.9929C134.445 77.0212 133.545 77.101 132.474 76.8907C132.386 76.868 132.438 76.8977 131.532 76.606L131.423 77.8275C132.842 77.731 134.089 77.8039 135.179 78.0773C135.153 78.0904 135.126 78.1037 135.097 78.1174C129.095 80.9488 124.506 80.1893 122.691 79.8303C123.475 79.4645 124.369 79.1466 125.373 78.8764L126.165 72.481ZM117.005 79.2741C115.912 80.1963 114.756 81.7219 113.539 83.8508C112.005 86.5342 111.303 88.5475 111.435 89.8907C105.06 88.0781 101.346 86.3701 100.292 84.7668C95.955 78.1717 91.9965 70.6288 88.4165 62.1382C86.2971 61.3294 84.8198 60.5259 83.9846 59.7279C82.8492 58.6431 81.0103 57.5132 78.4679 56.3383C78.1617 55.1331 78.7535 54.5293 80.2434 54.5268C81.6699 54.5244 85.5127 55.6069 88.1328 56.3941C87.6845 55.8029 87.1292 55.1672 86.4669 54.4869L86.4669 54.4869C86.1924 54.205 86.0995 53.793 86.2263 53.4206C86.4125 52.874 87.0064 52.5819 87.553 52.7681C88.9 53.2269 92.5846 55.8845 94.207 57.0732L96.0199 57.1141C96.8636 57.1331 97.6319 57.6045 98.031 58.3481L107.25 75.5213L117.005 79.2741ZM144.238 77.4652L152.298 71.8129L157.088 52.9196C157.295 52.1016 157.927 51.4583 158.741 51.2357L160.49 50.7575C161.777 49.2116 164.709 45.7415 165.905 44.9704C166.39 44.6576 167.037 44.7974 167.35 45.2826C167.563 45.6133 167.573 46.0356 167.375 46.3755L167.375 46.3755C166.896 47.1958 166.511 47.947 166.22 48.629C168.571 47.2313 172.038 45.2514 173.423 44.9086C174.869 44.5506 175.589 44.9933 175.584 46.2368C173.401 47.9918 171.89 49.533 171.051 50.8603C170.434 51.8367 169.195 52.9736 167.334 54.2711C165.914 63.3756 163.898 71.6521 161.286 79.1005C160.534 81.2449 156.197 84.4343 148.276 88.6686C148.539 87.2905 148.18 85.285 147.199 82.6518C146.277 80.1745 145.29 78.4456 144.238 77.4652ZM145.904 180.444L157.87 180.444L158.314 184.345L145.923 184.673L145.904 180.444ZM118.926 180.883L128.463 181.236C129.478 181.274 130.434 181.007 131.243 180.518L131.674 184.444L119.015 184.444L118.926 180.883Z" fill="#DB9E75"/>
<path opacity="0.2" d="M113.557 83.8758C112.023 86.5592 111.321 88.5725 111.452 89.9157C105.078 88.1031 101.364 86.3951 100.31 84.7918C95.9728 78.1967 91.9966 70.6289 88.4165 62.1382C86.2971 61.3294 84.8377 60.5509 84.0024 59.7529C82.867 58.6681 81.0103 57.5133 78.4679 56.3384C78.1617 55.1332 78.803 54.5125 80.2809 54.5259C81.7587 54.5394 85.5833 55.6233 88.1489 56.413C87.7006 55.8219 87.1471 55.1922 86.4847 54.5119C86.2103 54.23 86.0995 53.793 86.2263 53.4206C86.4125 52.8741 87.0064 52.582 87.553 52.7681C88.9 53.227 92.5846 55.8846 94.207 57.0733L96.02 57.1142C96.8637 57.1332 97.6497 57.6295 98.0489 58.3731L107.268 75.5463L117.023 79.2991C115.93 80.2213 114.774 81.7469 113.557 83.8758Z" fill="#8C2A00"/>
<path d="M88.0684 56.5367C87.9327 56.5084 87.8457 56.3754 87.874 56.2397C87.9023 56.104 88.0353 56.017 88.171 56.0453C90.3518 56.5008 92.3915 56.7782 94.29 56.8777C94.4284 56.8849 94.5348 57.003 94.5275 57.1414C94.5203 57.2799 94.4022 57.3862 94.2637 57.3789C92.3385 57.278 90.2734 56.9972 88.0684 56.5367ZM166.118 48.678C166.248 48.6292 166.393 48.6949 166.441 48.8246C166.49 48.9544 166.424 49.0991 166.295 49.1479L160.925 51.1659C160.796 51.2147 160.651 51.149 160.602 51.0193C160.553 50.8895 160.619 50.7448 160.749 50.696L166.118 48.678Z" fill="#482D1F"/>
<path opacity="0.176986" d="M118.473 90.869C110.949 93.2774 109.525 90.6173 113.518 83.6339C115.866 79.5277 117.991 77.7674 119.877 78.1505C120.517 78.2804 121.287 78.9109 122.186 80.0419C120.865 80.7374 119.901 81.5872 119.293 82.5916C118.25 84.1475 117.977 86.9067 118.473 90.869Z" fill="#444444"/>
<path d="M131.428 77.7989L128.575 75.4143L131.551 76.6015L131.428 77.7989Z" fill="#482D1F"/>
<path d="M136.855 69.964C136.875 69.7613 137.031 69.5994 137.231 69.5854C137.365 69.5761 137.486 69.6347 137.553 69.8649C137.707 70.3908 137.243 71.1948 137.005 70.9095C136.824 70.7209 136.842 70.2501 136.855 69.964ZM133.877 70.0716C133.897 69.8689 134.053 69.707 134.253 69.693C134.387 69.6837 134.508 69.7423 134.575 69.9725C134.729 70.4984 134.265 71.3024 134.027 71.0172C133.846 70.8285 133.847 70.3588 133.877 70.0716Z" fill="#482D1F"/>
<path d="M134.933 73.3629C134.816 73.3294 134.532 73.229 134.481 73.045C134.481 73.0115 134.465 72.9613 134.481 72.9278C134.548 72.8274 134.766 72.8776 135.067 72.9111C135.603 72.9613 136.038 72.9111 136.038 72.9111C136.038 72.9111 135.904 73.2458 135.82 73.3294C135.653 73.5971 135.117 73.4131 134.933 73.3629Z" fill="#482D1F"/>
<path d="M128.21 67.6034C128.017 67.4817 127.695 67.3149 127.289 67.235C127.23 67.2269 126.804 67.1554 126.383 67.3233C125.632 67.6153 125.159 68.5535 125.247 69.4224C125.321 70.3361 125.95 71.0158 126.658 71.3221C127.085 71.5067 127.497 71.5227 127.804 71.4952C127.481 73.3858 126.886 74.3755 126.02 74.4643C126.02 74.4643 124.96 73.3403 124.009 71.7821C123.099 70.2891 122.506 68.6265 122.447 68.4575C122.272 67.9639 121.849 65.8247 123.042 63.9861C123.185 63.7607 123.339 63.5741 123.488 63.4219C123.063 62.8498 122.741 62.098 122.521 61.1667C121.932 58.6748 123.259 56.1746 125.959 56.3177C128.659 56.4609 129.46 56.7974 129.982 59.2241C130.186 60.1772 130.131 61.1644 129.889 62.0181C130.653 61.8816 131.849 61.6868 133.048 61.6995C134.15 61.7112 135.364 62.1262 135.796 62.358C137.107 63.0622 137.866 64.2681 138.073 65.9755C138.106 66.2507 137.91 66.5009 137.635 66.5343C137.634 66.5344 137.632 66.5346 137.631 66.5347L128.21 67.6034ZM138.017 68.5912C137.704 68.6634 137.173 68.7509 136.694 68.6166C135.943 68.4343 136.666 67.9812 137.353 67.9667C137.688 67.96 137.95 68.1095 138.11 68.2325C138.235 68.3412 138.182 68.5461 138.017 68.5912ZM134.779 68.8176C134.449 68.891 133.918 68.9785 133.422 68.8454C132.673 68.6798 133.395 68.2099 134.081 68.1955C134.433 68.1877 134.695 68.3371 134.855 68.4601C134.996 68.5676 134.944 68.7726 134.779 68.8176Z" fill="#482D1F"/>
<path d="M136.234 71.9602L136.235 71.9788C136.235 72.1614 136.11 72.331 135.927 72.3614C135.894 72.3646 135.875 72.3659 135.857 72.3672C135.68 72.3787 135.553 72.3804 135.097 72.3804C135.004 72.3804 134.93 72.3055 134.93 72.2131C134.93 72.1207 135.004 72.0457 135.097 72.0457C135.545 72.0457 135.668 72.0441 135.835 72.0332C135.852 72.0321 135.87 72.0309 135.887 72.0295C135.883 72.0295 135.897 72.0101 135.9 71.9854L135.7 70.2071L135.699 70.1828L135.733 69.1956C135.736 69.1032 135.813 69.0309 135.906 69.034C135.998 69.0372 136.07 69.1146 136.067 69.2069L136.034 70.1819L136.234 71.9602Z" fill="#482D1F"/>
</g>
<defs>
<clipPath id="clip0">
<rect x="108" width="144" height="79.2" fill="white"/>
</clipPath>
<clipPath id="clip1">
<rect x="120" y="94" width="155" height="88.6961" fill="white"/>
</clipPath>
<clipPath id="clip2">
<rect x="46" y="38.0728" width="170" height="158.455" fill="white"/>
</clipPath>
</defs>
</svg>
