<svg width="291" height="210" viewBox="0 0 291 210" fill="none" xmlns="http://www.w3.org/2000/svg">
<g clip-path="url(#clip0)">
<path d="M248.655 39.8402H140.12C139.56 39.8402 139.105 40.2943 139.105 40.8546V166.464C139.105 167.024 139.56 167.479 140.12 167.479H248.655C249.215 167.479 249.669 167.024 249.669 166.464V40.8546C249.669 40.2943 249.215 39.8402 248.655 39.8402Z" fill="#F2F6FB"/>
<path d="M160.894 53.3649V54.3792H148.067C147.972 54.3792 147.897 54.4546 147.897 54.5481H146.882C146.882 53.8942 147.412 53.3649 148.067 53.3649H160.894ZM176.785 53.3649V54.3792H162.922V53.3649H176.785ZM192.676 53.3649V54.3792H178.814V53.3649H192.676ZM208.568 53.3649V54.3792H194.705V53.3649H208.568ZM224.459 53.3649V54.3792H210.596V53.3649H224.459ZM240.351 53.3649V54.3792H226.488V53.3649H240.351ZM242.062 68.877H241.047V55.0143H242.062V68.877ZM236.883 80.9212V79.9069H240.877C240.972 79.9069 241.047 79.8315 241.047 79.738V70.9057H242.062V79.738C242.062 80.3919 241.532 80.9212 240.877 80.9212H236.883ZM220.991 80.9212V79.9069H234.854V80.9212H220.991ZM205.1 80.9212V79.9069H218.963V80.9212H205.1ZM189.209 80.9212V79.9069H203.071V80.9212H189.209ZM173.317 80.9212V79.9069H187.18V80.9212H173.317ZM157.426 80.9212V79.9069H171.288V80.9212H157.426ZM146.882 74.2413H147.897V79.738C147.897 79.831 147.973 79.9069 148.067 79.9069H155.397V80.9212H148.067C147.413 80.9212 146.882 80.3917 146.882 79.738V74.2413ZM146.882 58.3499H147.897V72.2126H146.882V58.3499ZM146.882 54.5481H147.897V56.3212H146.882V54.5481Z" fill="#D8DEED"/>
<path d="M139.105 41.7007C139.105 39.833 140.619 38.3188 142.486 38.3188H246.288C248.155 38.3188 249.669 39.8331 249.669 41.7007V45.7574H139.105V41.7007Z" fill="#D8DEED"/>
<path d="M144.092 43.7286C144.979 43.7286 145.698 43.0095 145.698 42.1225C145.698 41.2355 144.979 40.5165 144.092 40.5165C143.205 40.5165 142.486 41.2355 142.486 42.1225C142.486 43.0095 143.205 43.7286 144.092 43.7286Z" fill="#FF5645"/>
<path d="M149.334 43.7286C150.221 43.7286 150.94 43.0095 150.94 42.1225C150.94 41.2355 150.221 40.5165 149.334 40.5165C148.447 40.5165 147.728 41.2355 147.728 42.1225C147.728 43.0095 148.447 43.7286 149.334 43.7286Z" fill="#FFCB3D"/>
<path d="M154.743 43.7286C155.63 43.7286 156.349 43.0095 156.349 42.1225C156.349 41.2355 155.63 40.5165 154.743 40.5165C153.856 40.5165 153.137 41.2355 153.137 42.1225C153.137 43.0095 153.856 43.7286 154.743 43.7286Z" fill="#3ABF7C"/>
<path d="M146.898 88.1896C146.898 87.8168 147.199 87.5145 147.574 87.5145H240.724C241.098 87.5145 241.401 87.816 241.401 88.1896V116.809C241.401 117.182 241.1 117.484 240.724 117.484H147.574C147.201 117.484 146.898 117.182 146.898 116.809V88.1896ZM147.22 122.848H183.23C183.416 122.848 183.568 122.999 183.568 123.186V127.243C183.568 127.43 183.416 127.581 183.23 127.581H147.22C147.034 127.581 146.882 127.43 146.882 127.243V123.186C146.882 122.999 147.034 122.848 147.22 122.848ZM147.22 130.624H172.748C172.935 130.624 173.086 130.776 173.086 130.962V135.02C173.086 135.206 172.935 135.358 172.748 135.358H147.22C147.034 135.358 146.882 135.206 146.882 135.02V130.962C146.882 130.776 147.034 130.624 147.22 130.624ZM147.22 138.57H177.989C178.176 138.57 178.327 138.721 178.327 138.908V142.965C178.327 143.152 178.176 143.303 177.989 143.303H147.22C147.034 143.303 146.882 143.152 146.882 142.965V138.908C146.882 138.721 147.034 138.57 147.22 138.57ZM147.22 146.346H167.507C167.694 146.346 167.845 146.498 167.845 146.685V150.742C167.845 150.929 167.694 151.08 167.507 151.08H147.22C147.034 151.08 146.882 150.929 146.882 150.742V146.685C146.882 146.498 147.034 146.346 147.22 146.346ZM194.387 130.624H231.58C231.767 130.624 231.918 130.776 231.918 130.962V135.02C231.918 135.206 231.767 135.358 231.58 135.358H194.387C194.201 135.358 194.049 135.206 194.049 135.02V130.962C194.049 130.776 194.201 130.624 194.387 130.624ZM194.387 138.57H236.314C236.5 138.57 236.652 138.721 236.652 138.908V142.965C236.652 143.152 236.5 143.303 236.314 143.303H194.387C194.201 143.303 194.049 143.152 194.049 142.965V138.908C194.049 138.721 194.201 138.57 194.387 138.57ZM194.387 146.346H241.047C241.234 146.346 241.385 146.498 241.385 146.685V150.742C241.385 150.929 241.234 151.08 241.047 151.08H194.387C194.201 151.08 194.049 150.929 194.049 150.742V146.685C194.049 146.498 194.201 146.346 194.387 146.346ZM194.387 154.123H226.846C227.033 154.123 227.185 154.275 227.185 154.461V158.519C227.185 158.705 227.033 158.857 226.846 158.857H194.387C194.201 158.857 194.049 158.705 194.049 158.519V154.461C194.049 154.275 194.201 154.123 194.387 154.123ZM194.403 122.878H241.063C241.249 122.878 241.401 123.03 241.401 123.216V127.335C241.401 127.522 241.249 127.673 241.063 127.673H194.403C194.216 127.673 194.065 127.522 194.065 127.335V123.216C194.065 123.03 194.216 122.878 194.403 122.878Z" fill="#E1E5F0"/>
<path fill-rule="evenodd" clip-rule="evenodd" d="M195.245 108.462L194.545 108.47L194.55 108.462H185.978C185.79 108.462 185.718 108.333 185.817 108.175L191.889 98.4258C191.987 98.2674 192.152 98.2664 192.254 98.4213L196.631 105.113L198.314 102.406C198.413 102.247 198.578 102.242 198.684 102.396L202.557 108.021C202.663 108.174 202.598 108.303 202.41 108.309L198.842 108.419L198.689 108.421L198.714 108.462C198.714 108.462 198.562 108.462 198.374 108.462H195.245ZM198.631 99.9243C197.859 99.9243 197.233 99.2931 197.233 98.5144C197.233 97.7357 197.859 97.1045 198.631 97.1045C199.403 97.1045 200.029 97.7357 200.029 98.5144C200.029 99.2931 199.403 99.9243 198.631 99.9243Z" fill="white"/>
</g>
<g clip-path="url(#clip1)">
<path d="M52.2944 186.582H69.5383C69.9585 186.582 70.2991 186.923 70.2991 187.343C70.2991 187.763 69.9585 188.104 69.5383 188.104H52.2944C51.8743 188.104 51.5337 187.763 51.5337 187.343C51.5337 186.923 51.8743 186.582 52.2944 186.582ZM105.717 186.582H134.456C134.876 186.582 135.217 186.923 135.217 187.343C135.217 187.763 134.876 188.104 134.456 188.104H105.717C105.296 188.104 104.956 187.763 104.956 187.343C104.956 186.923 105.296 186.582 105.717 186.582Z" fill="#FFCB3D"/>
<path d="M134.543 186.587C134.514 186.584 134.485 186.582 134.456 186.582H105.716C105.667 186.582 105.618 186.587 105.572 186.596L106.93 175.764H119.643L122.669 177.996C123.362 178.689 124.123 179.314 124.934 179.872C126.912 181.191 127.944 181.174 130.953 182.628C131.764 183.017 132.542 183.439 133.32 183.93C133.691 184.268 134.351 184.944 134.554 185.755C134.587 185.891 134.587 186.026 134.604 186.144C134.604 186.302 134.581 186.45 134.543 186.587ZM69.7551 186.613C69.6863 186.593 69.6135 186.582 69.538 186.582H52.2942C52.2493 186.582 52.2053 186.586 52.1626 186.593L56.2463 176.111L68.3508 177.751L69.7551 186.613Z" fill="#474961"/>
<path d="M64.2317 131.002C64.1591 130.986 64.0865 130.97 64.0138 130.955C67.919 108.18 70.8963 94.5315 72.9456 90.0096C74.9949 85.4876 77.4101 82.2854 80.1912 80.4031C82.845 77.3793 87.5257 77.5478 94.0007 77.3581C94.1652 77.3505 94.352 77.3522 94.5164 77.3444C101.211 77.2313 100.098 77.4872 101.865 78.0341C110.347 80.2995 117.383 94.6065 122.973 120.955L124.75 129.586C124.725 129.515 124.698 129.445 124.671 129.377C124.72 129.6 124.743 129.826 124.742 130.056C124.921 133.743 122.059 136.633 116.157 138.725C112.551 140.003 105.493 143.522 93.8899 144.632C88.964 145.103 79.7713 145.001 66.312 144.325C64.0877 140.589 63.1359 137.598 63.4566 135.352C63.6324 134.122 63.8907 132.672 64.2317 131.002H64.2317Z" fill="#A339FF"/>
<path opacity="0.176986" d="M64.2227 131.046C83.9955 135.335 98.6059 135.004 108.054 130.053C117.318 125.198 122.853 124.957 124.661 129.33C124.716 129.568 124.743 129.81 124.742 130.056C124.921 133.743 122.059 136.633 116.157 138.725C112.551 140.004 105.493 143.522 93.8899 144.632C88.964 145.103 79.7713 145.001 66.312 144.325C64.0877 140.589 63.1359 137.598 63.4566 135.353C63.6308 134.133 63.8861 132.698 64.2227 131.046Z" fill="#444444"/>
<path d="M82.2229 64.247C80.3302 63.9556 78.8118 63.6448 77.6678 63.3148C76.7303 63.183 75.2974 62.8109 74.7354 61.7076C73.9166 60.1244 75.4155 57.962 77.0883 55.5339C79.102 52.6245 80.3356 51.5751 82.2763 50.2025C85.5801 47.8659 87.6203 47.7753 89.1004 49.2786C89.2493 49.4299 89.3976 49.6803 89.5451 50.0297C89.9672 49.9682 90.3989 49.9394 90.8379 49.9458L94.5571 50.0134C99.2738 50.0641 103.027 54.1046 102.959 58.9903V59.2946L102.858 68.7111L102.767 73.1206C102.704 76.1561 100.225 78.5841 97.1889 78.5841H87.7049C87.6843 78.5841 87.6636 78.584 87.643 78.5837C84.5621 78.5495 82.0922 76.0242 82.1264 72.9433L82.2229 64.247Z" fill="#FFCB3D"/>
<path d="M159.377 68.7304L31.7449 62.0415C30.8125 61.9926 30.017 62.7089 29.9682 63.6413L27.8093 104.835C27.7604 105.767 28.4767 106.563 29.4091 106.611L157.041 113.3C157.974 113.349 158.769 112.633 158.818 111.701L160.977 70.5071C161.026 69.5747 160.31 68.7793 159.377 68.7304Z" fill="#D8DEED"/>
<path d="M116.498 79.3492L36.8125 75.1731C36.4396 75.1535 36.1214 75.44 36.1018 75.813L35.6771 83.9166C35.6576 84.2896 35.9441 84.6078 36.317 84.6273L116.003 88.8035C116.376 88.823 116.694 88.5365 116.713 88.1636L117.138 80.0599C117.158 79.687 116.871 79.3688 116.498 79.3492Z" fill="white"/>
<path d="M95.8993 47.675L95.6787 50.4833C95.6678 50.6215 95.5737 50.739 95.4413 50.7799C94.7026 51.0077 93.9846 51.0905 93.2871 51.0282C92.5696 50.9641 91.5142 50.7068 90.1208 50.2563C89.9557 50.2029 89.8578 50.0332 89.8943 49.8635L91.0146 44.653L91.0803 44.6716C90.4655 43.4296 90.0761 42.7348 89.9122 42.5871C89.2884 41.9897 88.7958 38.302 91.5757 38.5243C91.8818 38.5261 92.18 38.6137 92.4667 38.7536L92.4853 38.7686C92.5782 38.8439 92.6977 38.8483 92.8171 38.8528C93.1029 38.8227 93.3171 38.5962 93.3039 38.3086L92.994 33.9045C92.9639 33.6187 93.1613 33.3939 93.4471 33.3639C94.0692 33.2985 94.671 33.2013 95.2789 33.0014C95.363 32.9925 95.4285 32.9687 95.4957 32.9616C96.0939 32.8307 99.3176 32.2879 101.319 34.5084C101.495 34.7279 101.671 34.9474 101.813 35.1704C102.18 35.7438 102.385 36.4022 102.409 37.1137L102.545 40.1931C102.544 40.4993 102.542 40.8055 102.508 41.132C102.099 44.9998 100.659 47.8028 99.2222 48.0389C98.4842 48.1335 97.7356 48.1271 96.9897 47.9846C96.895 47.949 96.9559 47.9783 95.8993 47.675ZM81.1915 133.709L68.3511 177.751L56.2466 176.111L64.0142 130.955L64.0526 130.957C64.0498 130.974 64.0469 130.991 64.044 131.007C70.2701 132.365 75.9859 133.265 81.1915 133.709ZM103.787 131.859C105.31 131.347 106.733 130.745 108.054 130.053C117.154 125.284 122.656 124.967 124.561 129.101C125.651 132.574 125.963 135.744 125.496 138.609C124.096 147.212 122.145 159.597 119.643 175.764H106.93L107.15 139.468L103.787 131.859ZM75.3731 62.4155C76.0557 62.9747 77.0204 63.2037 77.7139 63.3012C79.8177 63.9081 83.1877 64.4497 87.8239 64.9262L85.4198 74.3355L100.648 79.78C100.722 79.7959 101.078 79.9379 101.714 80.2061C108.317 82.0869 112.715 83.7915 114.909 85.32C116.61 86.5053 116.265 88.0565 113.873 89.9736C111.969 91.4994 109.414 91.9407 107.109 91.1423L97.2672 87.734C97.2677 87.722 97.2682 87.71 97.2687 87.698C84.9335 86.3534 77.5078 83.7019 74.9917 79.7434C72.6704 76.0913 72.7975 70.3153 75.3731 62.4155V62.4155ZM113.463 66.3476C117.533 62.1613 121.257 61.4878 124.637 64.3274C128.017 67.1669 124.292 67.8403 113.463 66.3476Z" fill="#ED9474"/>
<path d="M86.326 40.7702C85.8135 40.9732 85.3067 41.0512 84.8056 41.0044C81.4901 40.6947 79.2429 37.7819 78.3553 34.9346C77.4678 32.0873 79.0271 30.6265 81.5219 29.0334C84.0167 27.4403 86.8727 28.5761 89.2535 29.8076C90.6451 30.5274 91.4615 31.7758 91.7026 33.553C92.0792 33.5189 92.4948 33.4759 92.9593 33.4151C93.4974 33.3586 94.0973 33.2125 95.0954 33.0056C95.1795 32.9967 95.6526 32.8799 95.7198 32.8728C96.318 32.7419 99.336 32.3029 101.337 34.5234C101.326 34.5756 100.808 34.5234 99.2938 35.529C97.5689 36.6743 95.8693 41.6937 94.3482 41.6156C94.3315 41.6153 94.2973 41.6321 94.2455 41.666L94.3128 41.6023L93.3813 39.6943C93.1708 39.3085 92.8514 39.0191 92.4869 38.7854C92.2002 38.6456 91.902 38.5579 91.5958 38.5561C90.7817 38.5737 89.9728 39.2876 89.7231 40.1468C89.4903 41.0042 89.7388 41.9131 90.3944 42.4901C90.8085 42.8716 91.3429 43.1044 91.9083 43.1469L92.5957 43.0616C92.568 43.0864 92.5399 43.1115 92.5114 43.137C91.3394 44.9859 90.7534 45.9103 90.7534 45.9103C90.7534 45.9103 90.2458 45.7736 89.2307 45.5003C87.9832 45.0685 87.0149 43.4917 86.326 40.7702ZM100.081 39.5512C99.7534 39.6706 99.2242 39.8112 98.7411 39.743C97.9332 39.6579 98.6235 39.1094 99.3429 38.9998C99.6774 38.9476 99.9606 39.0538 100.143 39.1707C100.273 39.276 100.245 39.4999 100.081 39.5512ZM102.932 39.1835C102.608 39.3365 102.101 39.5258 101.606 39.5098C100.77 39.4787 101.42 38.8665 102.117 38.7082C102.482 38.6189 102.746 38.71 102.944 38.8083C103.105 38.8933 103.095 39.1154 102.932 39.1835Z" fill="#482D1F"/>
<path d="M99.1384 41.7412C98.9491 41.5571 98.9668 41.0792 98.9872 40.7881C98.9811 40.5678 99.1687 40.4121 99.3536 40.3926C99.4731 40.3971 99.6315 40.4484 99.6898 40.6803C99.8659 41.2227 99.3923 42.0544 99.1384 41.7412ZM101.911 41.4328C101.755 41.2451 101.739 40.7708 101.76 40.4797C101.753 40.2594 101.941 40.1037 102.126 40.0842C102.245 40.0887 102.404 40.14 102.462 40.3719C102.638 40.9143 102.148 41.7478 101.911 41.4328Z" fill="#482D1F"/>
<path d="M101.607 40.1785C101.61 40.0852 101.537 40.0072 101.444 40.0044C101.35 40.0016 101.272 40.075 101.269 40.1683L101.239 41.1745L101.24 41.1956L101.411 42.9791C101.406 42.9998 101.392 43.0146 101.37 43.0191C101.167 43.018 100.906 43.018 100.587 43.0192C100.494 43.0195 100.419 43.0955 100.419 43.1889C100.419 43.2822 100.495 43.3576 100.589 43.3573C100.913 43.3561 101.177 43.3561 101.38 43.3573L101.399 43.3564C101.595 43.3357 101.738 43.1796 101.749 42.9905L101.749 42.9642L101.578 41.174L101.607 40.1785Z" fill="#482D1F"/>
<path d="M100.593 44.75C100.474 44.7456 100.164 44.7101 100.077 44.5323C100.074 44.4986 100.035 44.4517 100.048 44.4163C100.09 44.327 100.611 44.2722 100.611 44.2722C101.302 44.2165 101.467 44.1652 101.526 44.244C101.548 44.2927 101.555 44.3599 101.453 44.5236C101.332 44.8254 100.782 44.7642 100.593 44.75Z" fill="#482D1F"/>
<path d="M127.173 79.9087L150.393 81.1256C151.522 81.1848 151.925 81.3237 152.326 81.5661C152.727 81.8084 153.034 82.1493 153.233 82.5735C153.433 82.9978 153.529 83.4133 153.469 84.5421L153.314 87.5036C153.255 88.6324 153.116 89.0356 152.874 89.4367C152.631 89.8379 152.291 90.1448 151.866 90.3438C151.442 90.5429 151.027 90.639 149.898 90.5798L126.677 89.3629C125.548 89.3037 125.145 89.1647 124.744 88.9224C124.343 88.6801 124.036 88.3392 123.837 87.915C123.638 87.4907 123.542 87.0752 123.601 85.9464L123.756 82.9849C123.815 81.8561 123.954 81.4529 124.197 81.0518C124.439 80.6506 124.78 80.3437 125.204 80.1447C125.628 79.9456 126.044 79.8495 127.173 79.9087Z" fill="#474BFF"/>
<path d="M102.531 96.1876L53.74 93.6306C53.5535 93.6208 53.3944 93.7641 53.3846 93.9506L53.1369 98.6777C53.1271 98.8642 53.2704 99.0233 53.4569 99.033L102.247 101.59C102.434 101.6 102.593 101.457 102.603 101.27L102.851 96.543C102.86 96.3565 102.717 96.1974 102.531 96.1876Z" fill="#F2F6FB"/>
<path d="M134.116 97.9634L106.428 96.5123C106.242 96.5026 106.083 96.6458 106.073 96.8323L105.825 101.559C105.816 101.746 105.959 101.905 106.145 101.915L133.833 103.366C134.019 103.376 134.178 103.232 134.188 103.046L134.436 98.3187C134.446 98.1322 134.302 97.9731 134.116 97.9634Z" fill="#F2F6FB"/>
<path d="M112.439 90.4997C112.569 90.552 112.717 90.4892 112.769 90.3594C112.822 90.2295 112.759 90.0817 112.629 90.0293C111.813 89.7002 111.171 89.4647 109.735 88.9559C108.306 88.4494 107.669 88.2156 106.862 87.8901C106.732 87.8377 106.585 87.9005 106.532 88.0304C106.48 88.1603 106.543 88.308 106.672 88.3604C107.488 88.6896 108.13 88.9251 109.566 89.4339C110.995 89.9403 111.632 90.1741 112.439 90.4997ZM114.964 88.6863C115.097 88.7305 115.241 88.6587 115.285 88.5258C115.329 88.3929 115.257 88.2494 115.125 88.2051C114.214 87.9019 113.514 87.651 111.959 87.0798C110.399 86.5069 109.696 86.2548 108.779 85.9495C108.646 85.9052 108.502 85.9771 108.458 86.1099C108.414 86.2428 108.486 86.3864 108.619 86.4307C109.529 86.7338 110.229 86.9848 111.784 87.5559C113.344 88.1288 114.048 88.381 114.964 88.6863Z" fill="#482D1F"/>
<path d="M90.148 64.4435C91.4231 60.9653 92.1638 58.4711 92.371 56.9493C92.3899 56.8106 92.2927 56.6827 92.1539 56.6638C92.0151 56.645 91.8873 56.7421 91.8684 56.8809C91.6675 58.3566 90.935 60.8231 89.6718 64.2689C89.6236 64.4004 89.6911 64.5461 89.8226 64.5943C89.9541 64.6425 90.0998 64.575 90.148 64.4435Z" fill="#482D1F"/>
</g>
<defs>
<clipPath id="clip0">
<rect x="139.105" y="25.3013" width="110.564" height="142.177" fill="white"/>
</clipPath>
<clipPath id="clip1">
<rect x="27.6968" y="22.7655" width="134.57" height="165.338" fill="white"/>
</clipPath>
</defs>
</svg>
