<svg width="291" height="210" viewBox="0 0 291 210" fill="none" xmlns="http://www.w3.org/2000/svg">
<path d="M80.7822 148.375H202.909L211.573 112.399C213.179 105.733 219.626 101.41 226.402 102.456C226.708 102.504 227.012 102.564 227.313 102.636C233.306 104.079 236.994 110.108 235.551 116.101L225.791 156.625C224.186 163.292 217.739 167.614 210.962 166.568C210.656 166.521 210.352 166.461 210.051 166.389C206.405 165.511 203.611 162.935 202.308 159.702H81.383C80.08 162.935 77.2867 165.511 73.6399 166.389C73.339 166.461 73.0352 166.521 72.7293 166.568C65.9528 167.614 59.5057 163.292 57.9002 156.625L48.1405 116.101C46.6972 110.108 50.3854 104.079 56.3783 102.636C56.6792 102.564 56.983 102.504 57.2889 102.456C64.0654 101.41 70.5125 105.733 72.118 112.399L80.7822 148.375Z" fill="#E1E5F0"/>
<mask id="mask0" mask-type="alpha" maskUnits="userSpaceOnUse" x="73" y="102" width="138" height="47">
<path d="M90.248 102.392H193.373C202.71 102.392 210.279 109.961 210.279 119.297V148.375H73.3423V119.297C73.3423 109.961 80.9112 102.392 90.248 102.392Z" fill="white"/>
</mask>
<g mask="url(#mask0)">
<path d="M90.248 102.392H193.373C202.71 102.392 210.279 109.961 210.279 119.297V148.375H73.3423V119.297C73.3423 109.961 80.9112 102.392 90.248 102.392Z" fill="#F2F6FB"/>
</g>
<path d="M69.1999 169L64.5386 177.074C63.815 178.327 62.2124 178.757 60.9591 178.033C59.7058 177.309 59.2763 175.707 59.9999 174.453L63.7175 168.015C62.6301 167.164 61.9311 165.839 61.9311 164.351C61.9311 161.783 64.0126 159.702 66.5802 159.702H216.703C219.271 159.702 221.352 161.783 221.352 164.351C221.352 165.748 220.736 167 219.762 167.853L223.573 174.453C224.296 175.707 223.867 177.309 222.613 178.033C221.36 178.757 219.757 178.327 219.034 177.074L214.373 169H69.1999Z" fill="#D8DEED"/>
<g clip-path="url(#clip0)">
<path d="M165.816 149.39H196.754C197.501 149.39 198.106 149.995 198.106 150.742V153.447C198.106 154.194 197.501 154.799 196.754 154.799H165.816C165.069 154.799 164.464 154.194 164.464 153.447V150.742C164.464 149.995 165.069 149.39 165.816 149.39ZM164.126 127.75H195.063C195.81 127.75 196.416 128.356 196.416 129.103V131.808C196.416 132.555 195.81 133.16 195.063 133.16H164.126C163.379 133.16 162.773 132.555 162.773 131.808V129.103C162.773 128.356 163.379 127.75 164.126 127.75ZM160.576 138.57H191.513C192.26 138.57 192.866 139.175 192.866 139.922V142.627C192.866 143.374 192.26 143.98 191.513 143.98H160.576C159.829 143.98 159.223 143.374 159.223 142.627V139.922C159.223 139.175 159.829 138.57 160.576 138.57Z" fill="#474BFF"/>
<path d="M168.859 143.98H199.797C200.544 143.98 201.149 144.585 201.149 145.332V148.037C201.149 148.784 200.544 149.389 199.797 149.389H168.859C168.112 149.389 167.507 148.784 167.507 148.037V145.332C167.507 144.585 168.112 143.98 168.859 143.98ZM169.874 133.16H200.811C201.558 133.16 202.164 133.765 202.164 134.512V137.217C202.164 137.964 201.558 138.57 200.811 138.57H169.874C169.127 138.57 168.521 137.964 168.521 137.217V134.512C168.521 133.765 169.127 133.16 169.874 133.16Z" fill="#474961"/>
<path d="M165.732 129.779H196.416V131.3H165.732C165.312 131.3 164.971 130.96 164.971 130.54C164.971 130.119 165.312 129.779 165.732 129.779ZM168.521 135.189H198.614V136.71H168.521V135.189ZM162.773 140.598H192.866V142.12H162.773V140.598ZM167.507 146.008H197.599V147.53H167.507V146.008ZM168.014 151.418H198.106V152.94H168.014V151.418Z" fill="#F2F6FB"/>
</g>
<g clip-path="url(#clip1)">
<path d="M167.676 28.5133H88.8953C87.028 28.5133 85.5142 30.0271 85.5142 31.8945V90.8955C85.5142 92.7628 87.028 94.2766 88.8953 94.2766H167.676C169.543 94.2766 171.057 92.7628 171.057 90.8955V31.8945C171.057 30.0271 169.543 28.5133 167.676 28.5133Z" fill="#F2F6FB"/>
<path d="M85.5142 31.8952C85.5142 30.0274 87.0291 28.5133 88.894 28.5133H167.846C169.713 28.5133 171.226 30.0276 171.226 31.8952V35.9518H85.5142V31.8952Z" fill="#E1E5F0"/>
<path d="M90.5016 33.9231C91.3885 33.9231 92.1076 33.2041 92.1076 32.3171C92.1076 31.4301 91.3885 30.7111 90.5016 30.7111C89.6146 30.7111 88.8955 31.4301 88.8955 32.3171C88.8955 33.2041 89.6146 33.9231 90.5016 33.9231Z" fill="#FF5645"/>
<path d="M95.7423 33.9231C96.6293 33.9231 97.3483 33.2041 97.3483 32.3171C97.3483 31.4301 96.6293 30.7111 95.7423 30.7111C94.8553 30.7111 94.1362 31.4301 94.1362 32.3171C94.1362 33.2041 94.8553 33.9231 95.7423 33.9231Z" fill="#FFCB3D"/>
<path d="M101.152 33.9231C102.039 33.9231 102.758 33.2041 102.758 32.3171C102.758 31.4301 102.039 30.7111 101.152 30.7111C100.265 30.7111 99.5464 31.4301 99.5464 32.3171C99.5464 33.2041 100.265 33.9231 101.152 33.9231Z" fill="#3ABF7C"/>
<path d="M89.7409 40.9723H92.1754C92.3621 40.9723 92.5135 41.1237 92.5135 41.3104V42.1916C92.5135 42.3783 92.3621 42.5297 92.1754 42.5297H89.7409C89.5542 42.5297 89.4028 42.3783 89.4028 42.1916V41.3104C89.4028 41.1237 89.5542 40.9723 89.7409 40.9723ZM155.842 40.9723H166.831C167.018 40.9723 167.169 41.1237 167.169 41.3104V42.1916C167.169 42.3783 167.018 42.5297 166.831 42.5297H155.842C155.656 42.5297 155.504 42.3783 155.504 42.1916V41.3104C155.504 41.1237 155.656 40.9723 155.842 40.9723ZM134.845 40.9723H145.834C146.021 40.9723 146.172 41.1237 146.172 41.3104V42.1916C146.172 42.3783 146.021 42.5297 145.834 42.5297H134.845C134.659 42.5297 134.507 42.3783 134.507 42.1916V41.3104C134.507 41.1237 134.659 40.9723 134.845 40.9723ZM148.066 40.9723H153.611C153.798 40.9723 153.949 41.1237 153.949 41.3104V42.1916C153.949 42.3783 153.798 42.5297 153.611 42.5297H148.066C147.879 42.5297 147.728 42.3783 147.728 42.1916V41.3104C147.728 41.1237 147.879 40.9723 148.066 40.9723Z" fill="#D8DEED"/>
<path d="M93.6291 52.2632H116.283C116.47 52.2632 116.621 52.4146 116.621 52.6013V55.0398C116.621 55.2266 116.47 55.3779 116.283 55.3779H93.6291C93.4424 55.3779 93.291 55.2266 93.291 55.0398V52.6013C93.291 52.4146 93.4424 52.2632 93.6291 52.2632ZM93.6291 57.3247H112.395C112.581 57.3247 112.733 57.476 112.733 57.6628V60.1013C112.733 60.288 112.581 60.4394 112.395 60.4394H93.6291C93.4424 60.4394 93.291 60.288 93.291 60.1013V57.6628C93.291 57.476 93.4424 57.3247 93.6291 57.3247ZM93.6291 67.4476H104.618C104.805 67.4476 104.956 67.599 104.956 67.7857V70.2243C104.956 70.411 104.805 70.5624 104.618 70.5624H93.6291C93.4424 70.5624 93.291 70.411 93.291 70.2243V67.7857C93.291 67.599 93.4424 67.4476 93.6291 67.4476ZM93.6291 62.3861H116.283C116.47 62.3861 116.621 62.5375 116.621 62.7242V65.1628C116.621 65.3495 116.47 65.5009 116.283 65.5009H93.6291C93.4424 65.5009 93.291 65.3495 93.291 65.1628V62.7242C93.291 62.5375 93.4424 62.3861 93.6291 62.3861Z" fill="#E1E5F0"/>
<path d="M117.504 77.1813H138.29C139.378 77.1813 139.795 77.299 140.209 77.52C140.622 77.741 140.946 78.0653 141.167 78.4786C141.388 78.8918 141.506 79.3087 141.506 80.3974V81.752C141.506 82.8408 141.388 83.2576 141.167 83.6709C140.946 84.0841 140.622 84.4084 140.209 84.6295C139.795 84.8505 139.378 84.9682 138.29 84.9682H117.504C116.415 84.9682 115.998 84.8505 115.585 84.6295C115.172 84.4084 114.847 84.0841 114.626 83.6709C114.405 83.2576 114.288 82.8408 114.288 81.752V80.3974C114.288 79.3087 114.405 78.8918 114.626 78.4786C114.847 78.0653 115.172 77.741 115.585 77.52C115.998 77.299 116.415 77.1813 117.504 77.1813Z" fill="#3ABF7C"/>
<path d="M156.518 59.8849V64.0848C156.518 65.2179 155.812 66.2309 154.749 66.6228C152.127 67.5893 149.504 68.0726 146.882 68.0726C144.26 68.0726 141.637 67.5893 139.015 66.6228C137.952 66.2309 137.246 65.2179 137.246 64.0848V60.1356L129.346 57.2849C129.053 57.1795 128.826 56.946 128.728 56.6513C128.551 56.1198 128.838 55.5454 129.369 55.3684L145.031 50.1522C146.344 49.7147 147.768 49.7381 149.066 50.2186L163.01 55.379C163.279 55.4784 163.493 55.6869 163.6 55.9528C163.808 56.4728 163.556 57.0633 163.036 57.2718L156.518 59.8849Z" fill="#474BFF"/>
<path opacity="0.176986" d="M156.518 59.8849V64.0848C156.518 65.2179 155.812 66.231 154.749 66.6228C152.126 67.5893 149.504 68.0726 146.882 68.0726C144.26 68.0726 141.637 67.5893 139.015 66.6228C137.952 66.231 137.246 65.2179 137.246 64.0848V60.1357L144.88 62.8905C146.284 63.3972 147.825 63.3702 149.211 62.8147L156.518 59.8849Z" fill="#444444"/>
<path d="M159.308 63.5857V59.0082L146.788 56.1433C146.56 56.0913 146.418 55.8646 146.47 55.6371C146.522 55.4095 146.749 55.2673 146.976 55.3193L159.825 58.2594C160.017 58.3033 160.153 58.4743 160.153 58.6714V63.5857C160.598 63.7558 160.914 64.1867 160.914 64.6914C160.914 65.1263 160.679 65.5065 160.33 65.7121C160.36 65.7673 160.383 65.8161 160.399 65.8585C161.136 67.864 162.073 69.9905 159.934 70.0993C158.705 70.1617 158.506 68.7313 159.337 65.8079C158.877 65.6458 158.547 65.2071 158.547 64.6914C158.547 64.1867 158.863 63.7558 159.308 63.5857Z" fill="#474961"/>
</g>
<g clip-path="url(#clip2)">
<path d="M139.168 177.96C139.239 177.938 139.314 177.926 139.391 177.926H148.774C149.197 177.926 149.552 178.281 149.552 178.704C149.552 179.127 149.197 179.482 148.774 179.482H140.711H113.662C113.242 179.482 112.901 179.141 112.901 178.721C112.901 178.301 113.242 177.96 113.662 177.96H139.168Z" fill="#FFCB3D"/>
<path d="M140.703 177.96H139.391C139.314 177.96 139.239 177.972 139.168 177.994H113.662C113.539 177.994 113.423 178.023 113.321 178.075L113.07 167.132L125.726 167.312L128.124 160.547L139.248 163.919C139.803 165.807 140.376 167.695 140.948 169.6C141.251 170.595 141.554 171.573 141.857 172.55C142.8 172.921 143.607 173.258 144.18 173.511C145.274 173.983 146.2 174.422 147.21 175.079C147.21 175.079 148.085 175.618 148.573 176.394C148.724 176.647 148.859 176.933 148.943 177.237C148.977 177.372 148.977 177.507 148.994 177.625C148.988 177.735 148.963 177.859 148.932 177.977C148.881 177.966 148.828 177.96 148.774 177.96H140.706C140.713 177.936 140.717 177.912 140.716 177.887C140.716 177.912 140.711 177.936 140.703 177.96Z" fill="#474961"/>
<path opacity="0.176986" d="M140.732 177.96C140.744 177.922 140.746 177.883 140.738 177.842C140.721 177.707 140.721 177.571 140.687 177.453C140.484 176.642 139.842 175.965 139.47 175.61C138.709 175.12 137.948 174.681 137.12 174.292C134.128 172.804 133.265 172.821 131.304 171.485C130.493 170.927 129.749 170.302 129.056 169.592L126.147 167.327L125.75 167.321L128.151 160.547L139.275 163.919C139.83 165.807 140.402 167.695 140.975 169.6C141.278 170.595 141.581 171.573 141.884 172.55C142.826 172.921 143.634 173.258 144.206 173.511C145.3 173.983 146.226 174.422 147.236 175.079C147.236 175.079 148.111 175.618 148.6 176.394C148.751 176.647 148.886 176.933 148.97 177.237C149.004 177.372 149.004 177.507 149.02 177.625C149.015 177.737 148.989 177.863 148.957 177.983C148.898 177.968 148.837 177.96 148.774 177.96H140.732Z" fill="#444444"/>
<path d="M129.55 155.915C129.61 157.358 129.691 158.557 129.809 159.438C129.828 159.658 129.817 161.278 129.514 161.853C128.574 163.615 123.362 163.097 118.72 163.226C114.077 163.356 111.518 163.809 110.137 162.74C109.38 162.158 109.267 161.112 109.222 160.747C109.015 158.889 108.774 157.006 108.52 155.114C102.734 157.409 99.0947 158.771 97.6029 159.198C96.1267 159.621 94.491 159.735 93.0033 159.805C80.3265 164.409 73.5013 156.98 72.7824 155.215C70.0366 148.475 71.2268 142.78 73.5573 138.844C74.863 135.442 108.518 120.138 110.45 119.313C106.814 120.895 112.381 118.488 110.45 119.313C114.086 117.731 115.842 116.622 119.612 117.202C123.38 117.782 127.63 119.714 128.006 122.282C128.006 122.282 128.295 124.386 128.415 125.508C129.202 125.342 129.948 125.167 130.654 124.983C130.657 124.981 130.659 124.98 130.661 124.978C132.519 123.697 139.385 122.64 142.74 124.097C146.887 125.899 149.323 130.247 148.694 134.725C147.797 141.119 147.283 144.585 147.154 145.123C146.96 145.948 144.615 155.277 143.758 158.7C143.57 159.478 142.746 160.067 141.689 160.173C140.524 160.298 133.414 157.517 129.55 155.915Z" fill="#A339FF"/>
<path opacity="0.176986" d="M129.615 155.941C129.331 148.605 129.535 135.374 128.485 125.517C129.261 125.352 129.996 125.18 130.692 124.998C130.695 124.997 130.697 124.995 130.699 124.993C132.557 123.712 139.423 122.655 142.778 124.113C146.925 125.915 149.361 130.262 148.732 134.74C147.835 141.134 147.321 144.6 147.192 145.138C146.999 145.963 144.653 155.292 143.797 158.716C143.609 159.493 142.784 160.082 141.727 160.189C140.565 160.313 133.485 157.546 129.615 155.941ZM108.589 155.117C102.785 157.42 99.1356 158.786 97.6412 159.214C96.2331 159.617 94.6799 159.739 93.2485 159.81C93.4927 159.72 93.739 159.625 93.9875 159.525C99.3912 157.363 104.009 154.078 107.841 149.669C108.09 151.485 108.345 153.305 108.589 155.117Z" fill="#444444"/>
<path d="M91.3414 128.298C82.1181 132.829 76.3975 136.085 74.1799 138.068L73.5111 138.4C70.1366 133.912 68.7715 127.835 69.4159 120.169C67.804 119.775 66.4217 119.371 65.7902 119.075C64.5271 118.484 64.1852 117.19 64.7643 115.193C65.2495 113.275 66.231 111.051 67.7088 108.52C69.4652 105.513 71.943 105.425 73.5423 105.626C74.9391 104.586 81.7476 104.467 83.025 104.726C85.0345 105.149 88.0145 105.74 89.6475 108.164C90.1717 108.92 90.4155 109.654 90.5425 110.179C90.5425 110.179 90.7863 110.914 90.9594 111.714C91.3574 113.544 92.1465 119.949 91.3414 128.298Z" fill="#FFCB3D"/>
<path d="M111.291 104.218L94.4556 119.376C94.074 119.72 94.0432 120.308 94.3868 120.689C94.7304 121.071 95.3184 121.102 95.7 120.758L112.535 105.6C112.917 105.256 112.947 104.668 112.604 104.287C112.26 103.905 111.672 103.874 111.291 104.218Z" fill="#474961"/>
<path d="M105.405 109.255L95.3566 102.768C94.7322 102.365 93.9178 102.417 93.3497 102.896L83.5116 111.195C82.7979 111.797 82.7073 112.863 83.3093 113.577C83.4101 113.697 83.5271 113.802 83.6568 113.889L94.9216 121.48L105.614 111.936C106.311 111.315 106.372 110.246 105.75 109.549C105.649 109.436 105.533 109.337 105.405 109.255Z" fill="#474BFF"/>
<path d="M77.6595 98.551C77.1539 97.8962 76.7009 97.2803 76.4604 96.7738C76.1038 96.0361 76.2895 93.8853 76.9639 93.0273C77.6382 92.1693 82.9852 88.2008 83.0527 88.1961C83.6226 88.1054 86.8331 87.7284 88.6533 90.0075C88.8192 90.1993 88.9694 90.4091 89.1064 90.6707C89.403 91.277 89.5682 91.9433 89.5648 92.6214L89.5386 95.6398C89.5261 95.9458 89.4967 96.2529 89.4493 96.5443C89.1088 98.7034 88.4376 100.496 87.6711 101.651C87.1049 102.521 86.4633 103.04 85.8742 103.099C85.7068 103.127 84.7949 103.174 83.71 102.928C83.6393 102.91 83.6579 102.925 83.2165 102.768L83.3068 104.757C84.7704 105.064 86.6653 105.486 88.1898 106.597C86.0135 107.755 83.6034 108.276 80.9594 108.16C79.8222 108.11 78.6231 107.958 77.3621 107.703C76.4262 106.595 75.2859 105.943 74.6493 105.837C74.3592 105.789 73.9658 105.71 73.5051 105.657C73.5131 105.65 73.5212 105.643 73.5293 105.636C74.0854 105.178 75.684 104.894 77.4289 104.739L77.5376 98.5127L77.6595 98.551ZM91.9197 122.78C91.9589 122.779 91.998 122.777 92.037 122.773C91.9993 122.774 91.9615 122.774 91.9239 122.772C91.9225 122.775 91.9211 122.777 91.9197 122.78ZM94.1812 120.932L94.8982 121.409L95.5642 120.816C95.5861 120.8 95.6074 120.782 95.6282 120.764L96.0263 120.405L105.537 111.942C105.67 111.824 105.779 111.69 105.866 111.546L108.742 108.956C110.044 108.312 111.055 108.058 111.392 108.532C111.392 108.532 106.35 114 103.687 116.87C102.99 118.696 101.957 121.032 100.589 123.877C97.1796 125.471 94.0878 126.949 91.3134 128.312C91.492 126.53 91.5971 124.836 91.6479 123.254C88.3358 128.928 83.216 133.722 76.2887 137.638C67.4298 142.645 65.9858 125.573 65.7559 118.983C65.7885 118.999 65.8217 119.015 65.8556 119.03C67.6724 119.843 76.0975 121.718 77.6586 121.464C77.7035 121.459 77.7468 121.448 77.7886 121.433L77.5232 125.529L87.3522 118.547C87.3542 118.545 87.3562 118.542 87.3583 118.539L92.2501 112.278C92.6238 111.8 93.3144 111.715 93.7926 112.089C93.9425 112.206 94.0537 112.354 94.1243 112.517L94.2658 112.307C94.6051 111.804 95.2881 111.671 95.7913 112.011C96.123 112.234 96.2937 112.607 96.2743 112.98C96.5381 112.955 96.8118 113.024 97.0401 113.196L97.0432 113.199C97.507 113.548 97.5997 114.207 97.2501 114.671C97.2409 114.684 97.2313 114.696 97.2215 114.708L97.1495 114.795C97.4953 114.713 97.8745 114.8 98.1539 115.06C98.5977 115.474 98.622 116.169 98.2081 116.613L94.1812 120.932ZM130.138 156.087C133.106 157.307 137.552 159.047 140.052 159.786L139.248 163.919L129.744 161.038C129.817 160.535 129.814 160.026 129.802 159.888C129.695 159.086 129.62 158.012 129.564 156.725C129.555 156.472 129.545 156.208 129.534 155.933L130.138 156.087ZM113.074 163.426C114.469 163.446 116.3 163.294 118.72 163.226C120.447 163.178 122.253 163.22 123.889 163.2L125.872 166.9L125.726 167.312L113.086 167.132L113.074 163.426Z" fill="#F2A98A"/>
<path opacity="0.2" d="M91.6006 123.129C91.6681 123.013 91.7348 122.895 91.8007 122.778C92.115 122.795 92.4345 122.678 92.666 122.43L94.0888 120.904L94.847 121.409L95.513 120.816C95.5349 120.8 95.5562 120.782 95.5769 120.764L95.9751 120.405L105.486 111.942C105.619 111.824 105.728 111.69 105.814 111.546L108.69 108.956C109.993 108.312 111.003 108.058 111.341 108.532C111.341 108.532 106.299 114 103.636 116.87C102.939 118.696 101.906 121.032 100.538 123.877C97.1284 125.471 94.0366 126.949 91.2622 128.312C91.4455 126.483 91.5514 124.747 91.6006 123.129Z" fill="#8C2A00"/>
<path d="M83.2171 102.774L80.8652 101.979L83.2967 104.753L83.2171 102.774Z" fill="#482D1F"/>
<path d="M85.9002 88.275C86.8448 88.5167 87.8374 89.0051 88.5914 89.9492C88.7573 90.141 88.9076 90.3508 89.0445 90.6124C89.1753 90.8797 89.2805 91.1587 89.357 91.4452L80.7934 94.4316L81.8917 88.663C83.53 88.4244 84.8662 88.295 85.9002 88.275Z" fill="#482D1F"/>
<path d="M86.5629 88.6379C83.5643 91.5743 81.6548 93.4927 80.8343 94.3932C80.8041 94.437 80.7737 94.4822 80.7431 94.5288C80.7068 94.3757 80.566 93.8774 80.1795 93.3964C80.1434 93.365 79.8307 93.014 79.3793 92.8592C78.5654 92.611 77.5446 93.0383 77.0219 93.8036C76.4667 94.5881 76.5362 95.5831 76.9097 96.3196C77.2832 97.0561 77.932 97.3666 78.1583 97.4525L79.0686 97.6261L79.1606 97.5843C78.4913 99.0003 77.8813 100.275 77.4908 100.367C76.7808 100.535 75.6859 99.0184 74.9129 98.2839C74.4216 97.8172 73.2415 96.29 72.8885 94.1631C72.7836 93.4594 72.3938 91.0731 73.8595 89.1932C74.3709 88.54 74.9784 88.1982 75.2281 88.0498C76.0775 87.5971 79.3388 87.3382 81.8445 87.2012C81.3672 86.4617 81.077 84.9292 80.9739 82.6038C80.9705 82.5273 80.9932 82.452 81.0382 82.39C81.148 82.239 81.3595 82.2056 81.5105 82.3154C83.5864 83.8245 84.9075 84.9209 85.4739 85.6046C85.8897 84.9427 87.1031 84.1718 89.1141 83.2917C89.1848 83.2607 89.2639 83.2549 89.3384 83.2752C89.5186 83.3241 89.6249 83.5099 89.576 83.6901C88.7419 86.7588 88.1073 88.3708 87.6721 88.5263C87.433 88.6118 87.0632 88.649 86.5629 88.6379Z" fill="#DE3190"/>
<path d="M88.7176 96.229C88.754 96.0231 88.9458 95.8571 89.1505 95.8767C89.2866 95.8841 89.3949 95.9783 89.462 96.2108C89.5538 96.7975 88.9649 97.5844 88.7546 97.2432C88.6043 97.0334 88.6713 96.5373 88.7176 96.229ZM85.0068 96.0246C85.0432 95.8187 85.235 95.6528 85.4397 95.6723C85.5758 95.6798 85.684 95.7739 85.7512 96.0065C85.843 96.5932 85.2541 97.38 85.0438 97.0388C84.8935 96.829 84.9605 96.3329 85.0068 96.0246Z" fill="#482D1F"/>
<path d="M87.4598 96.448L87.5946 98.1332C87.5951 98.1396 87.5712 98.1671 87.5631 98.1676C87.4709 98.1741 87.3762 98.1746 87.228 98.1707C87.1993 98.1699 87.1692 98.169 87.1258 98.1677C87.0712 98.1659 87.0413 98.165 87.0127 98.1641C86.9146 98.1611 86.8334 98.1591 86.7467 98.1576C86.6534 98.156 86.5764 98.2304 86.5748 98.3238C86.5732 98.4171 86.6476 98.4941 86.741 98.4957C86.826 98.4971 86.9057 98.4991 87.0023 98.5021C87.0308 98.5029 87.0604 98.5039 87.1152 98.5056C87.159 98.507 87.1896 98.5079 87.219 98.5087C87.3771 98.5129 87.4814 98.5123 87.5867 98.5049C87.781 98.4914 87.9454 98.3023 87.9318 98.108L87.7969 96.421C87.7894 96.3279 87.7079 96.2585 87.6149 96.266C87.5218 96.2734 87.4524 96.3549 87.4598 96.448Z" fill="#482D1F"/>
<path d="M86.484 99.4632C86.3624 99.4208 86.0663 99.306 86.0377 99.1385C86.0353 99.1048 86.0149 99.0554 86.0474 99.0361C86.1259 98.9459 86.3341 99.0161 86.6436 99.0792C87.1927 99.1764 87.6335 99.1794 87.6335 99.1794C87.6335 99.1794 87.4838 99.4611 87.3873 99.5356C87.1991 99.7521 86.6586 99.5357 86.484 99.4632Z" fill="#482D1F"/>
<path d="M82.3853 95.5692L81.3758 95.3352C81.2394 95.3036 81.1544 95.1674 81.186 95.031C81.2177 94.8945 81.3539 94.8096 81.4903 94.8412L82.5758 95.0928C82.9512 94.3849 83.6724 93.8809 84.5305 93.8209C85.8531 93.7284 87.0002 94.7256 87.0927 96.0482C87.0949 96.0798 87.0965 96.1113 87.0975 96.1427L87.6115 96.1696C87.7661 95.0713 88.6705 94.1923 89.8214 94.1119C91.144 94.0194 92.2911 95.0166 92.3836 96.3392C92.4761 97.6618 91.4789 98.8089 90.1563 98.9014C88.8345 98.9938 87.688 97.9979 87.5942 96.6766L87.0598 96.6486C86.8676 97.7017 85.9826 98.5323 84.8654 98.6104C83.5428 98.7029 82.3957 97.7057 82.3032 96.3831C82.2835 96.101 82.3133 95.8269 82.3853 95.5692ZM82.9296 95.5376C82.8335 95.7879 82.7892 96.0627 82.8091 96.3478C82.8821 97.3909 83.7869 98.1774 84.83 98.1045C85.8732 98.0316 86.6597 97.1268 86.5868 96.0836C86.5138 95.0404 85.6091 94.2539 84.5659 94.3268C83.8496 94.3769 83.2544 94.8192 82.9752 95.4291C82.9744 95.4344 82.9733 95.4396 82.9721 95.4449C82.9641 95.4795 82.9493 95.5107 82.9296 95.5376ZM88.0953 96.4946C88.0951 96.5423 88.0966 96.5903 88.1 96.6387C88.1729 97.6819 89.0777 98.4684 90.1209 98.3955C91.1641 98.3225 91.9506 97.4177 91.8777 96.3746C91.8047 95.3314 90.8999 94.5449 89.8568 94.6178C88.8964 94.685 88.1536 95.4571 88.0986 96.3932C88.1017 96.4114 88.1028 96.4301 88.1018 96.4493C88.101 96.4648 88.0988 96.4799 88.0953 96.4946Z" fill="#482D1F"/>
<path d="M107.997 149.786L106.54 135.67C106.525 135.531 106.401 135.429 106.261 135.444C106.122 135.458 106.021 135.583 106.035 135.722L107.492 149.838C107.507 149.978 107.631 150.079 107.771 150.064C107.91 150.05 108.011 149.925 107.997 149.786Z" fill="#482D1F"/>
<path fill-rule="evenodd" clip-rule="evenodd" d="M78.7998 117.198C78.9397 117.19 79.0591 117.298 79.0665 117.438L78.8132 117.451C79.0665 117.438 79.0665 117.438 79.0665 117.438L79.0665 117.439L79.0666 117.441L79.0669 117.448C79.0672 117.454 79.0676 117.462 79.068 117.473C79.0689 117.496 79.07 117.528 79.071 117.57C79.073 117.652 79.0745 117.771 79.0727 117.916C79.0691 118.207 79.0523 118.606 78.9989 119.04C78.9457 119.473 78.8555 119.947 78.7024 120.385C78.5502 120.82 78.3295 121.238 78.0043 121.539C77.9016 121.634 77.7412 121.628 77.646 121.525C77.5508 121.423 77.5569 121.262 77.6597 121.167C77.9007 120.944 78.0858 120.612 78.2237 120.217C78.3607 119.825 78.445 119.389 78.4956 118.978C78.546 118.567 78.5621 118.188 78.5656 117.91C78.5673 117.772 78.5659 117.659 78.564 117.582C78.5631 117.543 78.562 117.513 78.5613 117.493C78.5609 117.483 78.5605 117.476 78.5603 117.471L78.5601 117.466L78.56 117.465C78.56 117.465 78.56 117.464 78.56 117.464M78.7998 117.198C78.66 117.205 78.5526 117.325 78.56 117.464L78.7998 117.198Z" fill="#482D1F"/>
</g>
<g clip-path="url(#clip3)">
<path d="M175.141 31.3867C175.141 30.4534 175.898 29.6969 176.831 29.6969H191.978L198.132 35.8419V55.2247C198.132 56.1583 197.374 56.9151 196.442 56.9151H176.831C175.898 56.9151 175.141 56.1588 175.141 55.2254V31.3867Z" fill="#F2F6FB"/>
<path d="M191.092 44.7385L183.426 48.5952C183.368 48.6245 183.297 48.601 183.267 48.5426C183.259 48.5261 183.255 48.5079 183.255 48.4895V40.7761C183.255 40.7107 183.308 40.6577 183.373 40.6577C183.391 40.6577 183.41 40.662 183.426 40.6703L191.092 44.527C191.15 44.5564 191.173 44.6276 191.144 44.6859C191.133 44.7086 191.114 44.7271 191.092 44.7385Z" fill="#D8DEED"/>
<path d="M191.977 29.6969L198.131 35.8419L192.358 36.882C191.438 37.0477 190.821 36.4369 190.979 35.5161L191.977 29.6969Z" fill="#D8DEED"/>
</g>
<g clip-path="url(#clip4)">
<path d="M175.115 64.8599C175.115 63.9267 175.872 63.1702 176.805 63.1702H191.952L198.107 69.3152V88.6979C198.107 89.6316 197.348 90.3884 196.416 90.3884H176.805C175.872 90.3884 175.115 89.632 175.115 88.6986V64.8599Z" fill="#F2F6FB"/>
<path d="M191.952 63.1702L198.107 69.3152L192.333 70.3553C191.413 70.5209 190.796 69.9101 190.954 68.9894L191.952 63.1702Z" fill="#D8DEED"/>
<path d="M180.355 81.8519V74.6745C180.355 74.5288 180.418 74.39 180.528 74.2938C181.39 73.5348 182.444 73.2166 183.688 73.3392C185.016 73.47 185.897 74.1439 186.33 75.361V83.2066C186.33 83.3 186.254 83.3757 186.161 83.3757C186.108 83.3757 186.058 83.3511 186.026 83.3091C185.429 82.5259 184.753 82.036 183.997 81.8393C183.25 81.645 182.271 81.8048 181.061 82.3187C180.803 82.4282 180.505 82.3079 180.396 82.0501C180.369 81.9874 180.355 81.92 180.355 81.8519ZM192.938 81.8519C192.938 81.92 192.924 81.9874 192.898 82.0501C192.788 82.3079 192.49 82.4282 192.233 82.3187C191.022 81.8048 190.044 81.645 189.297 81.8393C188.541 82.036 187.864 82.5259 187.267 83.3091C187.235 83.3511 187.186 83.3757 187.133 83.3757C187.04 83.3757 186.964 83.3 186.964 83.2066V75.361C187.397 74.1439 188.277 73.47 189.606 73.3392C190.85 73.2166 191.903 73.5348 192.766 74.2938C192.875 74.39 192.938 74.5288 192.938 74.6745V81.8519Z" fill="#D8DEED"/>
</g>
<defs>
<clipPath id="clip0">
<rect x="150.771" y="109.83" width="59.8463" height="44.9693" fill="white"/>
</clipPath>
<clipPath id="clip1">
<rect x="85.5142" y="28.5133" width="85.7121" height="65.7633" fill="white"/>
</clipPath>
<clipPath id="clip2">
<rect x="20.2583" y="19.3844" width="171.762" height="160.097" fill="white"/>
</clipPath>
<clipPath id="clip3">
<rect x="175.115" y="29.6969" width="23.1609" height="27.2182" fill="white"/>
</clipPath>
<clipPath id="clip4">
<rect x="175.115" y="63.1702" width="22.9918" height="27.2182" fill="white"/>
</clipPath>
</defs>
</svg>
