<svg width="291" height="210" viewBox="0 0 291 210" fill="none" xmlns="http://www.w3.org/2000/svg">
<g clip-path="url(#clip0)">
<g clip-path="url(#clip1)">
<path d="M258.656 182.187H241.328C240.922 182.187 240.567 181.894 240.567 181.543V181.309C240.567 180.958 240.905 180.665 241.328 180.665H258.656C259.062 180.665 259.417 180.958 259.417 181.309V181.543C259.417 181.894 259.079 182.187 258.656 182.187ZM215.8 180.665C216.22 180.665 216.561 181.006 216.561 181.426C216.561 181.846 216.22 182.187 215.8 182.187H188.244C187.824 182.187 187.483 181.846 187.483 181.426C187.483 181.006 187.824 180.665 188.244 180.665H215.8Z" fill="#DE3190"/>
<path d="M215.884 180.67C215.857 180.667 215.83 180.665 215.802 180.665H188.364C188.345 180.573 188.336 180.456 188.339 180.305C188.358 180.187 188.36 180.052 188.396 179.917C188.613 179.109 188.876 178.573 189.646 178.096C190.415 177.619 191.2 177.193 192.018 176.818C195.036 175.4 196.067 175.418 198.051 174.117C198.872 173.573 199.627 172.944 200.332 172.263C200.802 171.809 201.762 171.072 203.211 170.051L215.884 170.342V180.67ZM258.72 180.668C258.7 180.666 258.679 180.665 258.658 180.665H241.387L242.918 171.094L254.279 169.794L258.72 180.668Z" fill="#474961"/>
<path d="M221.045 76.7985C221.623 76.1463 222.269 75.5435 222.98 75.0014C225.046 74.225 228.989 73.4041 231.803 74.3003C235.093 75.3484 237.123 78.2144 237.123 78.2144C237.123 78.2144 237.606 77.7121 242.638 91.7673C245.993 101.137 249.248 113.835 252.404 129.86C252.706 131.654 254.45 141.774 257.635 160.221C257.638 160.236 257.64 160.252 257.642 160.267C257.776 161.191 257.136 162.048 256.212 162.182L238.59 164.733C237.742 164.856 236.936 164.325 236.715 163.497C234.517 155.278 233.329 150.786 233.15 150.02C232.765 148.489 232.387 146.756 231.995 144.771L228.911 129.865C228.881 129.72 228.823 129.252 228.736 128.458C227.297 123.183 226.067 118.673 225.046 114.927C224.225 118.079 223.336 121.46 222.38 125.068C221.916 145.299 221.569 156.805 221.34 159.583C221.304 160.013 221.191 161.595 221.001 164.33C220.938 165.248 220.151 165.946 219.232 165.901L201.066 165.012C200.202 164.969 199.509 164.28 199.461 163.416C198.658 148.838 199.19 135.125 201.056 122.277C203.953 102.335 208.331 94.1862 210.943 86.5155C210.972 86.4241 213.044 83.1435 217.158 76.6736C218.588 76.682 219.883 76.7237 221.045 76.7985Z" fill="#FFCB3D"/>
<path opacity="0.176986" d="M218.522 81.1379C217.564 83.7405 217.4 86.6307 218.161 89.4257C219.227 93.3412 220.292 97.2566 221.358 101.172C221.358 101.172 222.595 105.708 225.069 114.78C224.242 117.975 223.346 121.404 222.38 125.068C221.904 145.236 221.551 156.709 221.321 159.488C221.165 161.379 221.048 162.985 220.97 164.307C220.916 165.234 220.125 165.944 219.198 165.897L201.015 164.978C200.15 164.934 199.458 164.244 199.412 163.379C198.642 148.825 199.19 135.124 201.056 122.277C203.953 102.335 208.28 94.1503 210.891 86.4795C210.914 86.4058 214.646 83.5792 218.522 81.1379Z" fill="#8C2A00"/>
<path d="M217.043 49.1891C217.409 49.0547 217.772 48.9408 218.124 48.8443L218.054 47.5764C218.044 47.3918 218.184 47.2333 218.368 47.2204L226.299 46.6683C226.486 46.6555 226.647 46.7959 226.66 46.9821L226.711 47.6981C231.037 47.1695 233.563 47.0488 234.287 47.336C241.011 49.9998 242.123 61.5648 242.087 65.0831C242.078 66.0266 240.57 66.8734 237.564 67.6236C237.892 70.8216 238.085 72.6283 238.196 73.5667C238.196 73.5667 238.194 73.7329 238.232 73.9787C238.327 74.701 215.485 81.7717 215.485 81.7717C215.468 81.7566 215.452 81.758 215.452 81.758C215.452 81.758 215.127 81.7032 214.726 81.5057C214.527 81.4234 214.325 81.3081 214.119 81.1435C212.591 79.9481 212.345 76.9641 212.313 76.2363C212.293 76.0056 212.277 75.8244 212.277 75.8244C212.214 74.7386 212.061 72.5402 211.757 68.4391C210.674 68.9061 209.493 69.3809 208.215 69.8636L208.262 52.992C208.266 51.7856 208.981 50.6952 210.087 50.2121C212.547 49.1369 214.866 48.7959 217.043 49.1891Z" fill="#DE3190"/>
<path d="M215.887 170.35H212.83L203.211 170.052L203.704 165.098L215.967 165.694L215.887 170.35ZM241.336 164.301L253.296 162.574L254.279 169.795L242.918 171.095L241.336 164.301ZM226.053 40.4575V46.7068L219.505 47.1537L219.597 45.7912C218.661 46.0296 218.715 46.0016 218.625 46.0213C217.538 46.1777 216.633 46.0497 216.469 45.9988C215.869 45.8857 215.283 45.3187 214.801 44.4085C214.148 43.1938 213.646 41.354 213.501 39.1973C213.465 38.8901 213.48 38.5881 213.495 38.2862L213.744 35.2938C213.798 34.6249 214.02 33.9735 214.42 33.4082C214.583 33.1553 214.74 32.9525 214.928 32.7866C216.95 30.7042 220.109 31.3708 220.672 31.5138C220.738 31.5375 220.805 31.5445 220.87 31.5682C221.475 31.7998 222.058 31.9112 222.645 31.9892C222.914 32.0173 223.108 32.2736 223.079 32.5404L222.61 36.8083C222.772 36.724 225.322 35.7082 226.032 36.2207C226.619 36.6497 226.868 39.3289 226.053 40.4575ZM212.413 78.1999L212.586 78.0475C212.664 78.0475 212.709 78.0516 212.724 78.0596L226.74 71.7335L227.029 69.1838C233.234 68.5121 237.526 67.7196 239.905 66.8061C239.946 73.3634 239.463 77.1355 238.454 78.1224C236.167 80.36 224.258 85.8896 212.337 87.3823C209.672 88.5634 205.264 89.4235 199.114 89.9626C197.359 88.8404 196.417 86.8803 196.286 84.0822L200.557 82.6133C200.384 82.5539 200.296 82.5097 200.296 82.5097C199.372 80.3986 211.079 78.5304 212.573 78.1276L212.413 78.1999ZM208.915 69.4581C203.159 72.1078 193.891 74.1226 191.414 71.236C188.17 67.4562 187.743 57.1645 190.133 40.3609C184.917 39.2056 181.304 37.9498 179.294 36.5934C178.75 36.2263 178.43 35.6089 178.446 34.9543C178.471 33.8914 179.356 33.0498 180.423 33.0747C185.531 33.1938 188.767 33.184 190.133 33.0453C190.167 33.0418 190.201 33.0386 190.236 33.0356C194.378 32.6717 198.033 35.723 198.398 39.8508L199.965 57.5564L208.258 53.5671L208.25 69.7116C208.474 69.6269 208.696 69.5424 208.915 69.4581Z" fill="#DB9E75"/>
<path opacity="0.176986" d="M216.915 49.1572C215.397 49.7333 213.849 50.6692 212.814 52.1898C212.517 52.6307 212.144 53.2942 211.89 54.2295C211.854 54.3655 211.817 54.485 211.781 54.621C211.694 54.9108 211.508 55.5247 211.359 56.1854C211.2 56.9298 211.132 58.3305 211.158 60.271L211.163 60.3204L211.202 61.1306C211.423 64.0645 211.603 66.4698 211.748 68.4347C210.673 68.8992 209.499 69.3714 208.228 69.8513L208.264 52.9857C208.266 51.7823 208.978 50.6935 210.079 50.2079C212.492 49.1434 214.771 48.7932 216.915 49.1572V49.1572Z" fill="#444444"/>
<path d="M219.599 45.8297L222.193 45.1827L219.505 47.2104L219.599 45.8297Z" fill="#482D1F"/>
<path d="M224.619 41.1534L224.635 41.1518C224.864 41.0742 225.535 40.8398 225.983 40.142C226.43 39.4442 226.585 38.4618 226.112 37.6338C225.653 36.8242 224.688 36.3002 223.853 36.4836C223.383 36.5867 223.044 36.9066 223.006 36.9365C222.492 37.4582 222.328 38.0502 222.328 38.0502L222.243 38.4569C222.15 38.3188 222.064 38.1822 221.988 38.0485C220.927 36.6682 219.867 35.2711 218.808 33.874C218.116 33.9878 217.021 34.0593 215.805 33.6613C215.378 33.5151 215.016 33.2403 214.696 33.0544C214.792 32.9461 214.887 32.8544 214.967 32.7443C216.45 31.0887 219.182 31.1376 220.412 31.4017C220.561 31.4343 221.092 31.5575 221.861 31.6887C222.277 31.7661 222.614 31.8013 222.814 31.8392C225.308 32.2018 226.332 32.0043 227.522 32.8058C227.745 32.9476 228.251 33.3052 228.66 33.9403C229.814 35.7364 229.268 37.8456 229.117 38.4729C228.613 40.3495 227.431 41.2959 227.044 41.7462C226.267 42.6634 225.258 41.7462 225.258 41.7462C225.258 41.7462 224.999 41.5181 224.619 41.1534Z" fill="#482D1F"/>
<path d="M202.868 84.7442C203.004 84.7106 203.142 84.7936 203.175 84.9296C203.209 85.0655 203.126 85.203 202.99 85.2366C202.136 85.4475 201.468 85.5904 199.976 85.8922C198.49 86.1926 197.827 86.3344 196.983 86.5431C196.847 86.5767 196.709 86.4937 196.676 86.3577C196.642 86.2218 196.725 86.0843 196.861 86.0507C197.714 85.8398 198.383 85.6969 199.875 85.3951C201.36 85.0947 202.024 84.9529 202.868 84.7442ZM204.818 87.2659C204.956 87.2408 205.088 87.332 205.113 87.4698C205.138 87.6076 205.047 87.7397 204.909 87.7648C203.966 87.937 203.238 88.087 201.619 88.4337C199.995 88.7814 199.263 88.9321 198.313 89.1055C198.175 89.1307 198.043 89.0394 198.018 88.9016C197.993 88.7638 198.084 88.6317 198.222 88.6066C199.165 88.4344 199.893 88.2844 201.512 87.9377C203.137 87.59 203.868 87.4393 204.818 87.2659Z" fill="#482D1F"/>
<path d="M214.508 38.4224C214.508 38.713 214.523 39.2112 214.365 39.4228C214.12 39.7387 213.617 38.8984 213.77 38.327C213.861 38.1037 213.978 38.0218 214.114 38.0286C214.32 38.0305 214.493 38.2148 214.508 38.4224ZM218.143 38.6136C218.16 38.9071 218.175 39.4053 218 39.614C217.756 39.93 217.252 39.0896 217.405 38.5182C217.496 38.2949 217.613 38.213 217.749 38.2198C217.955 38.2217 218.128 38.406 218.143 38.6136Z" fill="#482D1F"/>
<path d="M216 38.7611L215.69 40.4157C215.689 40.4213 215.71 40.4506 215.718 40.452C215.809 40.468 215.903 40.4784 216.051 40.4899C216.079 40.4922 216.109 40.4944 216.153 40.4976C216.207 40.5015 216.237 40.5037 216.266 40.5058C216.363 40.5131 216.444 40.5195 216.531 40.527C216.624 40.5352 216.692 40.6172 216.684 40.7102C216.676 40.8032 216.594 40.872 216.501 40.8639C216.416 40.8564 216.337 40.8501 216.241 40.843C216.212 40.8409 216.183 40.8387 216.128 40.8348C216.084 40.8316 216.054 40.8293 216.024 40.827C215.867 40.8147 215.763 40.8033 215.659 40.7851C215.467 40.7514 215.323 40.5467 215.357 40.3551L215.668 38.6988C215.685 38.607 215.773 38.5466 215.865 38.5638C215.957 38.581 216.017 38.6693 216 38.7611Z" fill="#482D1F"/>
<path d="M221.183 38.6477C221.197 38.8404 221.187 39.0378 221.152 39.2367C220.922 40.5373 219.677 41.4053 218.371 41.1761C217.274 40.9834 216.482 40.0759 216.395 39.0184L215.842 38.979C215.608 40.2753 214.365 41.1394 213.062 40.9107C211.757 40.6815 210.885 39.4413 211.115 38.1404C211.345 36.8398 212.591 35.9718 213.896 36.201C215.033 36.4006 215.842 37.3674 215.879 38.4732L216.408 38.5109C216.412 38.4759 216.418 38.4409 216.424 38.4059C216.654 37.1053 217.899 36.2373 219.205 36.4664C220.134 36.6295 220.843 37.3042 221.092 38.1483L222.226 37.9864C222.364 37.9666 222.493 38.0629 222.513 38.2016C222.532 38.3402 222.436 38.4687 222.297 38.4885L221.183 38.6477ZM215.371 38.6399C215.414 37.7083 214.756 36.867 213.808 36.7005C212.778 36.5197 211.796 37.2043 211.614 38.2289C211.433 39.2532 212.12 40.2304 213.15 40.4112C214.18 40.592 215.162 39.9074 215.344 38.8828C215.352 38.8354 215.359 38.7881 215.364 38.741C215.361 38.7246 215.361 38.7077 215.362 38.6906C215.363 38.6731 215.366 38.6562 215.371 38.6399ZM220.653 39.1483C220.834 38.1239 220.147 37.1468 219.117 36.966C218.087 36.7851 217.105 37.4697 216.923 38.4943C216.742 39.5187 217.429 40.4958 218.459 40.6766C219.489 40.8575 220.471 40.1729 220.653 39.1483Z" fill="#482D1F"/>
<path d="M216.652 41.8645C216.777 41.8353 217.084 41.7523 217.13 41.5895C217.136 41.5564 217.161 41.5096 217.131 41.4871C217.062 41.3896 216.848 41.4374 216.534 41.4677C215.977 41.5068 215.539 41.464 215.539 41.464C215.539 41.464 215.658 41.7584 215.746 41.8422C215.914 42.0596 216.471 41.9182 216.652 41.8645Z" fill="#482D1F"/>
<path d="M227.388 69.1604C227.352 67.6718 227.325 66.3695 227.305 65.2538C227.285 64.1378 227.258 62.3049 227.222 59.7552C227.22 59.6152 227.105 59.5032 226.965 59.5052C226.825 59.5071 226.713 59.6222 226.715 59.7623C226.751 62.3126 226.778 64.146 226.798 65.2627C226.818 66.3796 226.845 67.6829 226.881 69.1726C226.884 69.3126 227.001 69.4234 227.141 69.4201C227.281 69.4167 227.391 69.3005 227.388 69.1604Z" fill="#482D1F"/>
</g>
<g clip-path="url(#clip2)">
<path d="M119.137 185.524L119.139 185.626C119.128 186.015 118.794 186.325 118.384 186.332L89.9537 186.287C89.5433 186.278 89.2168 185.962 89.21 185.573L89.2082 185.472C89.2192 185.083 89.5527 184.773 89.9628 184.766L118.375 184.811C118.803 184.803 119.13 185.119 119.137 185.524ZM43.4887 186.163L43.4472 186.172L26.8156 173.173C26.5113 172.937 26.4437 172.48 26.6973 172.193L26.748 172.108C26.9002 171.922 27.1369 171.821 27.3735 171.838C27.5088 171.838 27.6271 171.889 27.7455 171.973L44.2996 184.77L53.3587 184.79C53.7475 184.783 54.0573 185.099 54.081 185.488L54.0828 185.589C54.0727 185.978 53.7568 186.288 53.3681 186.295L43.4593 186.265C43.4691 186.231 43.4789 186.197 43.4887 186.163Z" fill="#FF5645"/>
<path d="M118.897 185.062C118.761 184.932 118.571 184.854 118.356 184.857L89.9436 184.812C89.8985 184.813 89.8542 184.818 89.8112 184.825L90.9518 174.31L103.937 174.272C105.499 175.293 106.515 176.031 106.985 176.485C107.69 177.166 108.445 177.795 109.266 178.339C111.25 179.64 112.281 179.622 115.299 181.04C116.117 181.415 116.902 181.841 117.671 182.318C118.441 182.795 118.703 183.331 118.92 184.139C118.957 184.274 118.959 184.409 118.978 184.527C118.983 184.793 118.95 184.953 118.897 185.062ZM27.7251 172.019L33.6421 163.928L43.7855 171.621L44.1102 172.669C45.2936 176.816 45.936 179.003 46.0374 179.228C46.1594 179.492 46.2859 179.736 46.4189 179.973C47.3381 180.347 48.3819 180.713 49.9765 181.51C50.7879 181.899 51.5656 182.339 52.3264 182.829C53.0871 183.319 53.3407 183.86 53.5436 184.672C53.5606 184.74 53.5691 184.808 53.5754 184.874C53.5017 184.849 53.4224 184.835 53.3395 184.837L44.2804 184.817L27.7263 172.02C27.7259 172.02 27.7255 172.019 27.7251 172.019Z" fill="#474961"/>
<path d="M77.5576 90.2624C77.6081 90.2692 77.6587 90.2774 77.7093 90.287C78.1985 90.3794 78.6554 90.5974 79.035 90.9196C93.6679 103.337 102.322 113.607 104.998 121.731C106.516 126.338 107.856 138.192 109.017 157.292C109.233 160.834 106.536 163.879 102.995 164.095C102.92 164.099 102.846 164.102 102.771 164.104L92.1156 164.38C88.6232 164.47 85.6989 161.753 85.5326 158.263L84.1121 128.446C81.7765 125.977 79.7414 123.802 78.0068 121.921C77.5906 124.19 76.9484 126.586 75.9104 129.791C74.1807 135.132 67.1341 145.688 54.7704 161.459L54.2953 162.092C52.2815 164.775 48.5423 165.457 45.7111 163.657L37.7601 158.603C34.7658 156.7 33.8814 152.73 35.7846 149.735C35.8638 149.611 35.9472 149.489 36.0347 149.37L53.742 125.343C54.1641 115.817 54.9997 107.484 56.2489 100.342C58.1226 89.6301 72.1484 89.8615 77.4568 90.0378C77.4909 90.1111 77.5245 90.186 77.5576 90.2624Z" fill="#3ABF7C"/>
<path opacity="0.176986" d="M77.5469 90.26C77.601 90.2671 77.6552 90.2758 77.7095 90.286C78.1987 90.3785 78.6555 90.5965 79.0352 90.9187C93.6681 103.336 102.323 113.607 104.999 121.73C106.516 126.337 107.856 138.191 109.017 157.291C109.233 160.833 106.537 163.878 102.995 164.094C102.921 164.098 102.846 164.101 102.771 164.103L92.1158 164.379C88.6234 164.469 85.699 161.752 85.5328 158.263L84.1123 128.445C81.7781 125.978 79.7441 123.804 78.0102 121.924C78.7767 117.733 78.7735 113.967 79.071 106.319C79.3703 98.6269 78.8622 93.2738 77.5469 90.26Z" fill="#444444"/>
<path d="M87.6255 50.5844L193.198 43.202L197.95 111.166C198.08 113.029 196.676 114.645 194.813 114.775L95.9868 121.686C94.124 121.816 92.5083 120.411 92.378 118.549L87.6255 50.5844Z" fill="#F2F6FB"/>
<path d="M93.2821 57.6711L96.4465 57.4498C96.6328 57.4368 96.7944 57.5773 96.8074 57.7635L96.8946 59.0105C96.9076 59.1968 96.7672 59.3584 96.5809 59.3714L93.4165 59.5927C93.2302 59.6057 93.0686 59.4652 93.0556 59.2789L92.9684 58.032C92.9554 57.8457 93.0958 57.6841 93.2821 57.6711ZM174.861 51.9666L188.582 51.0071C188.768 50.9941 188.93 51.1345 188.943 51.3208L189.03 52.5677C189.043 52.754 188.903 52.9156 188.717 52.9286L174.995 53.8881C174.809 53.9012 174.647 53.7607 174.634 53.5744L174.547 52.3275C174.534 52.1412 174.674 51.9796 174.861 51.9666ZM148.947 53.7786L162.669 52.8191C162.855 52.8061 163.017 52.9465 163.03 53.1328L163.117 54.3798C163.13 54.5661 162.99 54.7276 162.803 54.7406L149.082 55.7002C148.896 55.7132 148.734 55.5727 148.721 55.3865L148.634 54.1395C148.621 53.9532 148.761 53.7916 148.947 53.7786ZM165.263 52.6377L172.266 52.148C172.453 52.135 172.614 52.2754 172.627 52.4617L172.715 53.7087C172.728 53.8949 172.587 54.0565 172.401 54.0695L165.397 54.5593C165.211 54.5723 165.05 54.4318 165.037 54.2455L164.949 52.9986C164.936 52.8123 165.077 52.6507 165.263 52.6377Z" fill="#D8DEED"/>
<path d="M124.756 63.1942L101.794 64.7999C101.179 64.8428 100.716 65.376 100.758 65.9907L103.951 111.64C103.994 112.254 104.527 112.718 105.141 112.675L128.104 111.069C128.718 111.026 129.182 110.493 129.139 109.878L125.947 64.2294C125.904 63.6147 125.371 63.1512 124.756 63.1942Z" fill="#D8DEED"/>
<path d="M116.673 110.276C117.654 110.207 118.395 109.371 118.327 108.408C118.26 107.445 117.41 106.719 116.429 106.788C115.449 106.857 114.708 107.693 114.775 108.656C114.843 109.619 115.692 110.344 116.673 110.276Z" fill="#F2F6FB"/>
<path d="M114.936 66.7484L112.335 66.9302C112.073 66.9486 111.875 67.1764 111.893 67.4391C111.911 67.7017 112.139 67.8998 112.402 67.8814L115.003 67.6995C115.266 67.6812 115.464 67.4533 115.445 67.1907C115.427 66.928 115.199 66.73 114.936 66.7484Z" fill="#F2F6FB"/>
<path d="M124.309 68.642L102.996 70.1323L105.567 106.911L126.881 105.42L124.309 68.642Z" fill="#F2F6FB"/>
<path d="M115.679 91.2463L110.698 91.5946C110.576 91.6032 110.525 91.523 110.585 91.4157L113.625 85.9623C113.685 85.8549 113.795 85.8451 113.873 85.9419L116.577 89.349L117.499 87.6847C117.559 87.5773 117.671 87.5647 117.753 87.6595L120.398 90.7355C120.478 90.829 120.445 90.9126 120.322 90.9224L118.169 91.0932L115.679 91.2463ZM117.525 86.4738C117.087 86.5044 116.708 86.1876 116.679 85.7661C116.649 85.3447 116.98 84.9782 117.418 84.9476C117.857 84.917 118.236 85.2338 118.265 85.6552C118.294 86.0767 117.963 86.4431 117.525 86.4738Z" fill="#D8DEED"/>
<path d="M136.955 75.3747L180.429 72.3347C180.615 72.3217 180.777 72.4622 180.79 72.6485L181.012 75.8169C181.025 76.0032 180.884 76.1648 180.698 76.1778L137.224 79.2178C137.038 79.2308 136.876 79.0904 136.863 78.9041L136.642 75.7356C136.629 75.5493 136.769 75.3878 136.955 75.3747ZM137.392 81.6197L164.07 79.7542C164.257 79.7412 164.418 79.8816 164.431 80.0679L164.653 83.2364C164.666 83.4227 164.525 83.5843 164.339 83.5973L137.661 85.4628C137.475 85.4758 137.313 85.3354 137.3 85.1491L137.078 81.9806C137.065 81.7943 137.206 81.6328 137.392 81.6197ZM137.829 87.8647L174.584 85.2945C174.771 85.2815 174.932 85.422 174.945 85.6082L175.167 88.7767C175.18 88.963 175.039 89.1246 174.853 89.1376L138.098 91.7078C137.911 91.7208 137.75 91.5804 137.737 91.3941L137.515 88.2256C137.502 88.0393 137.643 87.8778 137.829 87.8647Z" fill="#E1E5F0"/>
<path d="M172.315 66.6268L136.519 69.1299C136.333 69.1429 136.192 69.3045 136.205 69.4907L136.427 72.6592C136.44 72.8455 136.601 72.986 136.788 72.9729L172.583 70.4698C172.77 70.4568 172.91 70.2952 172.897 70.109L172.676 66.9405C172.663 66.7542 172.501 66.6137 172.315 66.6268Z" fill="#D8DEED"/>
<path d="M141.389 97.7533L158.998 96.522C160.065 96.4474 160.492 96.5355 160.92 96.7271C161.348 96.9188 161.694 97.2197 161.943 97.6165C162.192 98.0133 162.339 98.4241 162.414 99.4913L162.505 100.792C162.579 101.86 162.491 102.287 162.3 102.714C162.108 103.142 161.807 103.488 161.41 103.738C161.013 103.987 160.603 104.134 159.535 104.208L141.927 105.439C140.86 105.514 140.432 105.426 140.005 105.234C139.577 105.043 139.231 104.742 138.982 104.345C138.732 103.948 138.586 103.537 138.511 102.47L138.42 101.169C138.345 100.102 138.434 99.6747 138.625 99.2471C138.817 98.8194 139.118 98.4732 139.515 98.224C139.911 97.9747 140.322 97.8279 141.389 97.7533Z" fill="#474BFF"/>
<path d="M87.3072 46.0311C87.1769 44.1682 88.5814 42.5525 90.4458 42.4221L189.269 35.5117C191.133 35.3814 192.749 36.7866 192.879 38.6488L193.221 43.5394L87.6491 50.9217L87.3072 46.0311Z" fill="#E1E5F0"/>
<path d="M92.9769 48.3461C93.9549 48.2777 94.6923 47.4294 94.6239 46.4515C94.5555 45.4735 93.7072 44.7361 92.7293 44.8045C91.7513 44.8729 91.0139 45.7211 91.0823 46.6991C91.1507 47.6771 91.999 48.4145 92.9769 48.3461Z" fill="#FF5645"/>
<path d="M98.8798 47.9334C99.8577 47.865 100.595 47.0167 100.527 46.0388C100.458 45.0608 99.6101 44.3234 98.6321 44.3918C97.6541 44.4602 96.9168 45.3084 96.9852 46.2864C97.0535 47.2644 97.9018 48.0017 98.8798 47.9334Z" fill="#FFCB3D"/>
<path d="M104.951 47.5088C105.929 47.4404 106.666 46.5922 106.598 45.6142C106.529 44.6362 105.681 43.8989 104.703 43.9672C103.725 44.0356 102.988 44.8839 103.056 45.8618C103.124 46.8398 103.973 47.5772 104.951 47.5088Z" fill="#3ABF7C"/>
<path d="M55.9431 76.7049L54.0732 77.0505C54.0033 77.0635 53.9321 77.069 53.861 77.067C53.301 77.0517 52.8595 76.5852 52.8749 76.0252C53.0245 70.577 53.5737 67.0222 54.5225 65.3611C54.8003 64.8748 55.1581 64.483 55.572 64.1795C57.2641 62.5735 60.1434 61.6682 63.5773 61.0839L64.5263 60.9165C65.994 60.6676 67.4079 60.6862 68.7206 60.9224C70.3586 60.985 72.3749 61.3651 74.2086 62.5739C74.4994 62.763 75.1203 63.1685 75.8047 63.8375C75.8047 63.8375 77.1482 65.1284 78.9015 69.5229C79.1048 70.0439 79.4001 70.9094 79.7875 72.1193C79.9299 72.5639 79.6848 73.0397 79.2402 73.182C79.2099 73.1918 79.179 73.1998 79.1477 73.206L77.0217 73.6297L77.5818 80.5362C77.5975 80.7222 77.6102 80.8917 77.6425 81.0748C77.7785 81.9435 77.7832 83.0413 77.2229 84.0499C76.4197 85.5305 75.1443 87.6437 68.473 88.7514C62.2679 89.7769 60.4632 88.2068 59.2411 87.1176C58.3667 86.3448 57.9996 85.1392 57.8362 84.3097C57.8039 84.1265 57.7579 83.963 57.709 83.7828L55.9431 76.7049Z" fill="#FF5645"/>
<path opacity="0.176986" d="M68.6912 60.9196C71.983 61.5033 74.642 63.4537 75.9237 65.9815C76.3427 66.8003 76.5571 67.7238 76.6157 68.6405L77.0203 73.6297L79.1394 73.2171C79.1708 73.211 79.2018 73.2031 79.2323 73.1935C79.6775 73.0529 79.9244 72.5781 79.7839 72.1329C79.3992 70.9144 79.1051 70.0444 78.9017 69.5228C77.1483 65.1284 75.8049 63.8374 75.8049 63.8374C75.1204 63.1685 74.4996 62.7629 74.2087 62.5739C72.3461 61.346 70.3331 60.9731 68.6912 60.9196Z" fill="#444444"/>
<path d="M91.4975 164.342C91.686 164.354 91.8766 164.357 92.069 164.352L102.724 164.077C102.799 164.075 102.874 164.072 102.948 164.067C103.58 164.029 104.184 163.9 104.75 163.695L103.879 174.263H90.8803L91.4975 164.342ZM47.7693 164.492L43.785 171.621L33.6416 163.928L37.1882 158.204C37.3553 158.335 37.5304 158.459 37.7134 158.576L45.6645 163.63C46.3276 164.051 47.0404 164.336 47.7693 164.492ZM85.3499 85.9698L87.8067 86.2424C88.8534 85.6911 98.3878 80.7444 99.0095 83.1435C99.0095 83.1435 98.9681 83.2309 98.8714 83.3808L103.311 81.861C105.759 85.2878 103.687 90.6444 103.654 90.663C97.9887 93.1485 93.7359 94.469 90.8951 94.6246C90.5671 94.6426 90.2739 94.6217 90.0156 94.562C90.0112 94.5931 90.0068 94.6244 90.0023 94.6558C81.0399 95.7309 71.644 95.3329 61.8147 93.4618C59.4498 93.0117 56.8336 87.5074 53.9661 76.9489C53.9938 76.9461 54.0214 76.9422 54.0489 76.9371L65.0823 74.8977C65.181 74.8795 65.2737 74.8475 65.3587 74.8042L68.0771 84.0527L76.4317 84.98C76.7054 84.6114 76.9044 84.2561 77.0807 83.9311C77.641 82.9225 77.6363 81.8247 77.5003 80.956C77.468 80.7729 77.4553 80.6035 77.4396 80.4174L77.0048 73.5673L79.0335 73.2292C79.0786 73.2213 79.3716 73.1447 79.3716 73.1447L81.5727 77.5657C83.4651 76.5182 89.0079 70.0171 89.0079 70.0171C89.0079 70.0171 89.2707 73.5573 89.8566 81.3331L85.3499 85.9698ZM67.3198 59.0097L67.5134 60.6169C70.9441 60.7571 72.5033 62.0908 73.0287 62.6723C73.0287 62.6723 69.4092 63.3332 62.17 64.6551C60.2177 63.0899 57.312 62.735 55.5069 64.0964C56.5091 63.1256 58.2403 62.29 60.7004 61.5897C61.344 61.4065 61.9567 61.2527 62.5399 61.1251L61.9094 55.1304C61.8727 55.1097 61.836 55.0877 61.7994 55.0644C61.1401 54.6285 60.6425 53.8167 60.7372 52.8637C60.8167 51.9848 61.4749 50.7754 62.2763 50.6307C62.7259 50.5452 63.9812 50.9268 63.8925 50.5305C63.8334 50.2663 63.4872 48.8656 62.854 46.3283C62.8003 46.0626 62.9557 45.7934 63.217 45.7234C63.8093 45.5822 64.3951 45.5478 64.9762 45.2345C65.0416 45.217 65.1025 45.1832 65.1678 45.1657C65.7055 44.9516 68.6988 43.712 70.9846 45.5148C71.1797 45.6551 71.3716 45.8487 71.5678 46.0586C72.0312 46.5471 72.3369 47.1652 72.4793 47.8272L73.1318 50.7852C73.1779 51.0879 73.2404 51.3862 73.2538 51.6976C73.5023 55.499 72.5714 58.4263 71.226 58.8918C71.0671 58.9519 70.1897 59.2045 69.0865 59.2025C68.9798 59.1961 69.0745 59.2232 67.5541 59.0356C67.4738 59.027 67.3957 59.0183 67.3198 59.0097Z" fill="#F2A98A"/>
<path opacity="0.2" d="M85.2105 85.9869L89.8459 81.2821C89.2601 73.4904 89.0078 70.0172 89.0078 70.0172C89.0078 70.0172 83.4616 76.4927 81.5693 77.5403L79.3715 73.1448C79.3715 73.1448 79.118 73.2293 78.5263 73.3138L77.0047 73.5674L77.4366 80.5199C77.4523 80.7059 77.465 80.8754 77.4973 81.0585C77.6333 81.9272 77.638 83.025 77.0777 84.0336C76.9118 84.3394 76.7258 84.6722 76.4763 85.0175L85.2105 85.9869Z" fill="#8C2A00"/>
<path d="M98.3526 86.16C99.1888 85.9197 99.835 85.7116 101.273 85.2309C102.717 84.7479 103.368 84.5382 104.214 84.2953C104.348 84.2567 104.489 84.3344 104.528 84.469C104.566 84.6036 104.489 84.7441 104.354 84.7828C103.518 85.023 102.871 85.2312 101.434 85.7119C99.9891 86.1948 99.3381 86.4045 98.4927 86.6474C98.358 86.6861 98.2176 86.6083 98.1789 86.4737C98.1402 86.3391 98.218 86.1986 98.3526 86.16ZM97.9104 89.6407C98.8207 89.3169 99.5303 89.0824 101.112 88.5735C102.689 88.0662 103.396 87.8328 104.299 87.5114C104.431 87.4644 104.576 87.5333 104.623 87.6653C104.67 87.7973 104.601 87.9423 104.469 87.9892C103.559 88.313 102.849 88.5474 101.268 89.0563C99.6905 89.5637 98.9843 89.797 98.0803 90.1185C97.9484 90.1654 97.8034 90.0965 97.7564 89.9646C97.7095 89.8326 97.7784 89.6876 97.9104 89.6407Z" fill="#482D1F"/>
<path d="M57.0449 50.752C57.0313 50.0989 57.1366 49.3861 57.4721 48.6842C57.7925 47.9858 58.257 47.5638 58.455 47.3882C59.5461 46.4308 60.5971 46.4992 63.0661 45.7852C63.5842 45.6288 64.3474 45.4068 65.2356 45.0638C65.3053 45.0627 65.3662 45.0288 65.4315 45.0113C65.9692 44.7972 68.9182 43.8496 71.0841 45.597C71.0929 45.6296 71.4198 45.8046 71.4166 45.8579C71.4166 45.8579 69.1637 50.7144 64.4556 51.7047C64.3296 51.5688 63.9956 51.2472 63.4949 51.0434C63.4372 51.0239 63.0286 50.8708 62.5789 50.9563C61.7776 51.101 61.1274 51.9403 61.0479 52.8192C60.9444 53.7395 61.4376 54.535 62.0806 54.9753C62.7237 55.4156 63.4162 55.3875 63.6417 55.3796L63.9061 55.3033C64.1345 55.7407 64.2936 56.2119 64.1091 56.5715C63.7528 57.266 63.0894 57.6669 62.1191 57.7743C61.2216 58.9103 59.7539 59.703 58.0511 59.822C55.1172 60.0272 52.5962 58.1549 52.4203 55.6401C52.252 53.232 54.295 51.1079 57.0449 50.752ZM73.4399 49.9409C73.1428 50.0731 72.6333 50.2621 72.1324 50.2213C71.3526 50.1852 71.9824 49.5964 72.6607 49.4496C72.9917 49.3785 73.2804 49.4761 73.4623 49.5674C73.6073 49.6511 73.5944 49.8645 73.4399 49.9409ZM70.2719 50.7898C69.9585 50.9263 69.4491 51.1153 68.9317 51.0789C68.1564 51.0591 68.7818 50.454 69.4601 50.3072C69.8074 50.2317 70.0961 50.3294 70.278 50.4206C70.4393 50.4999 70.4265 50.7134 70.2719 50.7898Z" fill="#482D1F"/>
<path d="M72.5522 51.5264C72.5324 51.3217 72.6563 51.131 72.8522 51.0785C72.9829 51.0435 73.1147 51.0781 73.2249 51.2936C73.4793 51.7856 73.1743 52.6724 72.8833 52.4353C72.6675 52.2831 72.5939 51.8128 72.5522 51.5264ZM69.6193 52.2073C69.5994 52.0026 69.7233 51.8118 69.9193 51.7593C70.0499 51.7243 70.1817 51.759 70.292 51.9745C70.5463 52.4664 70.2414 53.3532 69.9503 53.1162C69.7345 52.964 69.6447 52.498 69.6193 52.2073Z" fill="#482D1F"/>
<path d="M71.3191 55.2871C71.196 55.2851 70.8922 55.2615 70.7951 55.095C70.7863 55.0623 70.7569 55.0177 70.7644 54.9807C70.8035 54.8652 71.0289 54.8573 71.3316 54.8112C71.8673 54.7202 72.2787 54.5574 72.2787 54.5574C72.2787 54.5574 72.2356 54.919 72.1758 55.0225C72.0825 55.3276 71.5118 55.288 71.3191 55.2871Z" fill="#482D1F"/>
<path d="M71.7364 51.8782L72.396 53.5615L72.4019 53.5795C72.4497 53.7577 72.3721 53.9559 72.2022 54.0331C72.1704 54.045 72.1526 54.0512 72.1346 54.0573C71.9649 54.1148 71.8414 54.1497 71.3965 54.2689C71.3063 54.2931 71.2136 54.2396 71.1895 54.1494C71.1653 54.0592 71.2188 53.9665 71.309 53.9423C71.746 53.8252 71.8661 53.7913 72.0261 53.7371C72.0428 53.7314 72.0594 53.7257 72.0761 53.7198C72.0724 53.7208 72.081 53.6982 72.0768 53.6735L71.4171 51.9901L71.4098 51.9667L71.1843 50.9945C71.1632 50.9035 71.2198 50.8127 71.3108 50.7916C71.4018 50.7705 71.4926 50.8271 71.5137 50.9181L71.7364 51.8782Z" fill="#482D1F"/>
<path d="M65.6704 74.7861C65.2593 73.2038 64.8205 71.5589 64.3537 69.8516C64.3168 69.7165 64.1773 69.6369 64.0423 69.6738C63.9072 69.7108 63.8276 69.8502 63.8645 69.9853C64.3307 71.6907 64.769 73.3334 65.1795 74.9136C65.2147 75.0492 65.3531 75.1305 65.4887 75.0953C65.6242 75.0601 65.7056 74.9216 65.6704 74.7861Z" fill="#482D1F"/>
</g>
</g>
<defs>
<clipPath id="clip0">
<rect y="4" width="287.398" height="202.869" fill="white"/>
</clipPath>
<clipPath id="clip1">
<rect x="131.696" y="22.0892" width="171.762" height="160.097" fill="white"/>
</clipPath>
<clipPath id="clip2">
<rect x="26.5425" y="35.2758" width="171.762" height="151.814" fill="white"/>
</clipPath>
</defs>
</svg>
